<svg id="Camada_1" data-name="Camada 1" xmlns="http://www.w3.org/2000/svg" viewBox="0 0 71.41 43.5"><defs><style>.cls-1{fill:#002d2a;}.cls-2{fill:#6b0300;}.cls-3{fill:#00615c;}.cls-4{fill:#fff;}</style></defs><polygon class="cls-1" points="0 2.89 71.41 2.89 71.41 0 2 0 0 2.89"/><rect class="cls-2" x="1.5" y="2.89" width="69.41" height="40.61"/><rect class="cls-3" x="2" width="69.41" height="43"/><path class="cls-4" d="M11.07,16v3.32a1.72,1.72,0,0,1-.22.9,1.48,1.48,0,0,1-.62.57,2,2,0,0,1-.9.19,1.89,1.89,0,0,1-.9-.2,1.42,1.42,0,0,1-.61-.58,1.83,1.83,0,0,1-.23-.93h.88a.88.88,0,0,0,.26.69,1,1,0,0,0,.61.2A.83.83,0,0,0,10,20a.89.89,0,0,0,.22-.63V16Z"/><path class="cls-4" d="M13.82,20.78a1.62,1.62,0,0,1-.75-.66,1.89,1.89,0,0,1-.27-1V16h.91v3a1.15,1.15,0,0,0,.33.88,1.27,1.27,0,0,0,.92.31,1.26,1.26,0,0,0,.91-.31A1.15,1.15,0,0,0,16.2,19V16h.91V19.1a2,2,0,0,1-.26,1,1.72,1.72,0,0,1-.75.66A2.58,2.58,0,0,1,15,21,2.52,2.52,0,0,1,13.82,20.78Z"/><path class="cls-4" d="M23.32,16v4.9h-.93l-2.61-3.62v3.62H18.9V16h.94l2.59,3.57V16Z"/><path class="cls-4" d="M29,16.84H27.29v4.09h-.9V16.84H24.71V16H29Z"/><path class="cls-4" d="M31.26,20.69a2.28,2.28,0,0,1-.92-.9A2.51,2.51,0,0,1,30,18.48a2.55,2.55,0,0,1,.34-1.32,2.41,2.41,0,0,1,.92-.9,2.82,2.82,0,0,1,1.34-.32,2.79,2.79,0,0,1,1.34.32,2.37,2.37,0,0,1,.93.9,2.64,2.64,0,0,1,.33,1.32,2.6,2.6,0,0,1-.33,1.31,2.24,2.24,0,0,1-.93.9,3,3,0,0,1-2.68,0Zm2.2-.72a1.45,1.45,0,0,0,.59-.61,1.82,1.82,0,0,0,.21-.88,1.86,1.86,0,0,0-.21-.89,1.57,1.57,0,0,0-.59-.61,1.64,1.64,0,0,0-.86-.22,1.61,1.61,0,0,0-.85.22,1.57,1.57,0,0,0-.59.61,1.75,1.75,0,0,0-.22.89,1.72,1.72,0,0,0,.22.88,1.45,1.45,0,0,0,.59.61,1.61,1.61,0,0,0,.85.22A1.64,1.64,0,0,0,33.46,20Z"/><path class="cls-4" d="M37.35,20.79a2.51,2.51,0,0,1-1-.55l.55-.69a2.55,2.55,0,0,0,.8.48,2.51,2.51,0,0,0,.9.16,1.47,1.47,0,0,0,.79-.19.57.57,0,0,0,.3-.49.47.47,0,0,0-.18-.37,1.41,1.41,0,0,0-.62-.23l-1-.2a1.87,1.87,0,0,1-1-.46,1.1,1.1,0,0,1-.34-.83,1.19,1.19,0,0,1,.27-.78,1.66,1.66,0,0,1,.73-.51,2.69,2.69,0,0,1,1-.18,3.4,3.4,0,0,1,1.06.16,2.43,2.43,0,0,1,.9.51l-.52.67a2.34,2.34,0,0,0-1.46-.55,1.68,1.68,0,0,0-.79.17.53.53,0,0,0-.32.44.38.38,0,0,0,.18.32,1.67,1.67,0,0,0,.6.21l1,.18a2,2,0,0,1,1.07.51,1.19,1.19,0,0,1,.36.88,1.44,1.44,0,0,1-.25.81,1.67,1.67,0,0,1-.7.54,2.61,2.61,0,0,1-1,.19A4,4,0,0,1,37.35,20.79Z"/><path class="cls-4" d="M48,16.22a1.32,1.32,0,0,1,.58.54,1.7,1.7,0,0,1,0,1.56,1.32,1.32,0,0,1-.58.54,2,2,0,0,1-.92.2H45.55v1.87h-.9V16h2.46A2,2,0,0,1,48,16.22Zm-.35,1.85a.69.69,0,0,0,.21-.53.66.66,0,0,0-.21-.52.85.85,0,0,0-.6-.19H45.55v1.42h1.53A.9.9,0,0,0,47.68,18.07Z"/><path class="cls-4" d="M54.22,20.93h-4V16h3.94l-.12.79H51.11V18h2v.8h-2v1.36h3Z"/><path class="cls-4" d="M59.37,20.12v.81H55.62V16h.91v4.09Z"/><path class="cls-4" d="M61.65,20.69a2.28,2.28,0,0,1-.92-.9,2.6,2.6,0,0,1-.33-1.31,2.64,2.64,0,0,1,.33-1.32,2.41,2.41,0,0,1,.92-.9,3,3,0,0,1,2.69,0,2.41,2.41,0,0,1,.92.9,2.64,2.64,0,0,1,.33,1.32,2.6,2.6,0,0,1-.33,1.31,2.28,2.28,0,0,1-.92.9,3,3,0,0,1-2.69,0ZM63.86,20a1.43,1.43,0,0,0,.58-.61,1.72,1.72,0,0,0,.22-.88,1.75,1.75,0,0,0-.22-.89,1.55,1.55,0,0,0-.58-.61,1.67,1.67,0,0,0-.86-.22,1.64,1.64,0,0,0-.86.22,1.57,1.57,0,0,0-.59.61,1.86,1.86,0,0,0-.22.89,1.82,1.82,0,0,0,.22.88,1.45,1.45,0,0,0,.59.61,1.64,1.64,0,0,0,.86.22A1.67,1.67,0,0,0,63.86,20Z"/><path class="cls-4" d="M11.81,24.73l1,10.14H10.6l-.13-1.46h-1l-.18,1.46H7.1L8.5,24.73Zm-1.42,6.73-.29-4.05-.42,4.05Z"/><path class="cls-4" d="M18.68,29.76l1-5H23V34.88H20.77V28.15l-1.11,6.72H17.71l-1.08-6.73v6.73H14.42V24.73h3.32Z"/><path class="cls-4" d="M29.26,24.73l1,10.14H28.05l-.12-1.46h-1l-.18,1.46H24.56L26,24.73Zm-1.41,6.73-.3-4.05-.41,4.05Z"/><path class="cls-4" d="M37.06,24.72v2l-2.77,6.22H37v2H31.87V33l2.78-6.23H32.12v-2Z"/><path class="cls-4" d="M38.83,27.12A3.1,3.1,0,0,1,39,26.4a2.31,2.31,0,0,1,.32-.72,2,2,0,0,1,.63-.61,2.71,2.71,0,0,1,.52-.24,2.54,2.54,0,0,1,.45-.12,5.12,5.12,0,0,1,.69,0,3.82,3.82,0,0,1,.68.06,3.43,3.43,0,0,1,.64.21,2.61,2.61,0,0,1,.55.36,1.75,1.75,0,0,1,.47.59,2.75,2.75,0,0,1,.24.68,3.29,3.29,0,0,1,.1.68c0,.23,0,.44,0,.63v3.87c0,.18,0,.39,0,.61a3.28,3.28,0,0,1-.1.69,3,3,0,0,1-.24.69,1.75,1.75,0,0,1-.47.59,2.48,2.48,0,0,1-1.19.56,4.21,4.21,0,0,1-1.37,0,3.85,3.85,0,0,1-.45-.12,2.71,2.71,0,0,1-.52-.24,2,2,0,0,1-.63-.62,2.31,2.31,0,0,1-.32-.72,3.18,3.18,0,0,1-.12-.72c0-.23,0-.44,0-.62V27.74C38.81,27.57,38.82,27.36,38.83,27.12Zm2.23,5.49a.42.42,0,0,0,.25.35.46.46,0,0,0,.21,0,.4.4,0,0,0,.24,0,.4.4,0,0,0,.23-.3,2.49,2.49,0,0,0,0-.49V27.46A2.43,2.43,0,0,0,42,27a.4.4,0,0,0-.23-.31.4.4,0,0,0-.24-.05.46.46,0,0,0-.21.05.44.44,0,0,0-.25.36,4.91,4.91,0,0,0,0,.57V32A5,5,0,0,0,41.06,32.61Z"/><path class="cls-4" d="M49.16,29.28V24.73h2.21V34.87H49.16l-.92-4.61v4.61H46V24.73h2.21Z"/><path class="cls-4" d="M57.67,24.73l1,10.14H56.46l-.13-1.46h-1l-.18,1.46H53l1.4-10.14Zm-1.42,6.73L56,27.41l-.42,4.05Z"/><path class="cls-4" d="M63.38,28.07c0-.27,0-.49,0-.66a3.67,3.67,0,0,0,0-.4.76.76,0,0,0-.08-.23.93.93,0,0,0-.14-.14.67.67,0,0,0-.27-.06.46.46,0,0,0-.3.08.67.67,0,0,0-.17.2.65.65,0,0,0-.07.29.89.89,0,0,0,.25.61,5.93,5.93,0,0,0,.66.62l.41.35a13.62,13.62,0,0,1,1.29,1.19,4.8,4.8,0,0,1,.69.93,2.41,2.41,0,0,1,.27.81,4.49,4.49,0,0,1,0,.82,2.65,2.65,0,0,1-.55,1.45,2.62,2.62,0,0,1-1.15.87,2.94,2.94,0,0,1-.7.15,4.87,4.87,0,0,1-.86,0,5.25,5.25,0,0,1-.87-.14,2,2,0,0,1-.7-.31,1.68,1.68,0,0,1-.51-.52,2.25,2.25,0,0,1-.25-.64,5.82,5.82,0,0,1-.1-.76c0-.27,0-.56,0-.87v-.89h2.21v.43c0,.34,0,.61,0,.81s0,.37,0,.49a1.3,1.3,0,0,0,0,.27.51.51,0,0,0,.09.16.58.58,0,0,0,.25.17.73.73,0,0,0,.36,0,.72.72,0,0,0,.35-.26,1.1,1.1,0,0,0,.17-.4,1.18,1.18,0,0,0,0-.53,1.29,1.29,0,0,0-.23-.43,5.39,5.39,0,0,0-.48-.48l-.74-.65-.42-.37a6.71,6.71,0,0,1-.92-1,4.16,4.16,0,0,1-.51-.89,2.58,2.58,0,0,1-.18-.78,3.94,3.94,0,0,1,0-.7,2.61,2.61,0,0,1,.47-1.11,2.18,2.18,0,0,1,.93-.72,2.59,2.59,0,0,1,.75-.17,4.31,4.31,0,0,1,.88,0,4.25,4.25,0,0,1,.86.18,2,2,0,0,1,1.17.93,2.37,2.37,0,0,1,.22.65,3.48,3.48,0,0,1,.07.75c0,.27,0,.56,0,.88Z"/></svg>