<?xml version="1.0" encoding="utf-8"?>
<!-- Generator: Adobe Illustrator 24.0.1, SVG Export Plug-In . SVG Version: 6.00 Build 0)  -->
<svg version="1.1" id="Camada_1" xmlns="http://www.w3.org/2000/svg" xmlns:xlink="http://www.w3.org/1999/xlink" x="0px" y="0px"
	 viewBox="0 0 130 130" style="enable-background:new 0 0 130 130;" xml:space="preserve">
<style type="text/css">
	.st0{fill-rule:evenodd;clip-rule:evenodd;fill:#FFFFFF;}
	.st1{fill:#FFFFFF;}
</style>
<g>
	<path class="st0" d="M108.88,30.05c-0.02-0.08-0.02-0.14-0.01-0.21c0.15-0.11,0.3,0.03,0.41-0.1c-0.07-0.1-0.16-0.28-0.12-0.37
		c0.05-0.11,0.26-0.24,0.37-0.3c0.15-0.08,0.25-0.16,0.38-0.17c0.45-0.04,0.85,0.61,1.25,0.98c0.14,0.17,0.29,0.35,0.43,0.52
		c0.27,0.35,0.65,0.87,0.96,1.36c0.27,0.42,0.49,0.82,0.48,1.07c0,0.19-0.44,0.58-0.63,0.71c-0.04,0.03-0.07,0.03-0.08,0.03
		c-0.06,0-0.2-0.17-0.32-0.21c-0.02,0-0.01-0.01-0.04,0.01c-0.06,0.11-0.03,0.24-0.14,0.33c-0.08,0.01-0.14-0.04-0.21-0.05
		c-0.19,0.14-0.75,0.52-0.85,0.7c-0.12,0.23-0.09,0.58-0.1,0.84c-0.01,0.55-0.21,1.16-0.66,1.65c-0.17,0.14-0.35,0.28-0.52,0.42
		c-0.33,0.25-0.65,0.51-0.98,0.76c-0.99,0.76-1.98,1.52-2.97,2.27c-1.88,1.43-3.75,2.86-5.63,4.29c-0.2,0.15-0.39,0.3-0.59,0.45
		c-0.66,0.49-1.31,0.98-1.97,1.47c-0.39,0.21-0.7,0.58-1.05,0.62c-0.57,0.06-0.88-0.24-1.35-0.6c-0.03-0.05-0.06-0.09-0.09-0.14
		c-0.03-0.02-0.06,0.01-0.09-0.04c-0.02-0.04-0.04-0.08-0.06-0.12c-0.02,0-0.05-0.01-0.07-0.01c-0.01-0.03-0.03-0.07-0.04-0.1
		c-0.05-0.1-0.11-0.07-0.17-0.19c-0.05-0.09-0.1-0.05-0.14-0.1c-0.04-0.04-0.02-0.13-0.08-0.18c-0.02,0-0.05-0.01-0.07-0.01
		c-0.09-0.06-0.02-0.15-0.1-0.2c-0.15-0.1-0.1-0.02-0.16-0.21c-0.17-0.02-0.12-0.09-0.17-0.19c-0.03-0.05-0.08-0.04-0.11-0.06
		c-0.09-0.07-0.06-0.14-0.09-0.2c-0.16-0.01-0.13-0.17-0.18-0.23c-0.03-0.02-0.06-0.03-0.09-0.05c-0.07-0.06-0.07-0.15-0.1-0.19
		c-0.17-0.21-0.38-0.44-0.51-0.69c-0.04-0.05-0.08-0.1-0.12-0.15c-0.19-0.38-0.5-0.73-0.63-1.1c-0.13-0.39-0.16-0.84,0.05-1.18
		c0.12-0.19,0.36-0.31,0.54-0.5c0.36-0.29,0.73-0.59,1.09-0.88c0.13-0.1,0.26-0.2,0.38-0.29c0.74-0.57,1.48-1.14,2.21-1.72
		c1.44-1.11,2.88-2.22,4.33-3.32c1.08-0.83,2.16-1.66,3.24-2.48c0.41-0.31,0.82-0.62,1.23-0.93c0.14-0.1,0.28-0.2,0.42-0.3
		c0.48-0.24,1.12-0.33,1.55-0.22c0.25,0.06,0.85,0.21,1.09,0.11C108.2,30.52,108.79,30.12,108.88,30.05z"/>
	<g>
		<path class="st1" d="M116.7,102.23c0.46-0.63,0.44-0.59,0.86-1.24c0.04-0.06,0.03-0.11-0.03-0.16c-0.28-0.21-0.56-0.41-0.85-0.61
			c-0.02-0.01-0.04-0.01-0.07-0.02c0-0.04-0.25-0.22-0.31-0.22c0.01-0.05,0.09-0.09,0.02-0.15c0.02-0.03,0.03-0.05,0.05-0.07
			c0.55-0.76,1.1-1.52,1.65-2.28c0.08-0.12,0.09-0.21-0.02-0.31c-0.13-0.13-0.27-0.25-0.42-0.36c-0.44-0.34-0.88-0.67-1.32-1
			c-0.45-0.33-0.89-0.67-1.34-0.99c-0.07-0.05-0.14-0.09-0.22-0.12c-0.06-0.02-0.11-0.01-0.15,0.04c-0.04,0.05-0.03,0.11,0.01,0.15
			c0.05,0.06,0.11,0.12,0.17,0.17c0,0-1.44-1.05-2.52-1.86c-1.01-0.76-2.02-1.51-3.04-2.27c-0.76-0.57-1.53-1.14-2.3-1.7
			c-1.42-1.05-2.85-2.1-4.28-3.13c-1.87-1.36-3.75-2.71-5.62-4.06c-0.13-0.09-0.25-0.19-0.4-0.24c-0.16-0.05-0.32-0.05-0.44,0.12
			c-0.35,0.48-0.7,0.96-1.05,1.44l-3.3,4.54c-0.35,0.48-0.69,0.97-1.04,1.44c-0.12,0.16-0.08,0.31,0.02,0.45
			c0.09,0.13,0.22,0.22,0.35,0.31c1.86,1.37,3.73,2.73,5.59,4.09c1.43,1.04,2.87,2.07,4.3,3.1c0.77,0.56,1.55,1.11,2.33,1.66
			c1.03,0.73,2.06,1.46,3.09,2.19c1.1,0.78,2.55,1.82,2.55,1.82c-0.07-0.05-0.14-0.08-0.22-0.11c-0.06-0.02-0.11-0.01-0.15,0.04
			c-0.04,0.05-0.03,0.11,0.01,0.15c0.06,0.06,0.12,0.12,0.18,0.17c0.45,0.32,0.91,0.65,1.36,0.97c0.45,0.32,0.9,0.64,1.36,0.95
			c0.15,0.1,0.31,0.2,0.47,0.29c0.13,0.07,0.22,0.04,0.3-0.08c0.55-0.76,1.11-1.52,1.66-2.27c0.02-0.02,0.03-0.04,0.05-0.07
			c0.08,0.05,0.09-0.05,0.14-0.07c0.01,0.06,0.26,0.24,0.3,0.23c0.02,0.02,0.02,0.05,0.04,0.06c0.28,0.21,0.56,0.41,0.85,0.62
			c0.06,0.04,0.11,0.04,0.16-0.02c0.49-0.6,0.5-0.62,0.95-1.26L116.7,102.23"/>
	</g>
	<path class="st0" d="M73.4,102.76c-0.04,0.13-0.06,0.36-0.01,0.56s0.33,0.99,0.41,1.16c0.04,0.09,0.24,0.63,0.44,1.12
		c0.17,0.43,0.35,0.8,0.48,1.05c0.28,0.54,0.38,0.78,0.49,1.11s0.36,1.23,0.41,1.81c0.05,0.57,0.09,1.11,0.22,1.45
		c0.13,0.34,0.14,0.31,0.27,0.38c0.14,0.08,0.22,0.05,0.25,0.15c0.03,0.09-0.07,0.17-0.13,0.31s-0.02,0.27,0.02,0.38
		c0.04,0.11,0.03,0.14,0.12,0.23s0.14,0.4,0.2,0.57s0.47,1.43,0.72,2.19c0.25,0.76,0.44,1.32,0.47,1.41
		c0.02,0.09,0.02,0.21,0.08,0.39s0.21,0.57,0.32,0.72s0.44,0.52,0.67,0.73c0.23,0.21,0.66,0.45,0.93,0.61s0.51,0.32,0.73,0.45
		c0.21,0.13,0.4,0.29,0.52,0.45s0.21,0.38,0.25,0.55s0.03,0.19,0.02,0.23c-0.01,0.04-0.13,0.11-0.18,0.14
		c-0.05,0.03-0.14,0.06-0.11,0.15c0.03,0.09,0.17,0.06,0.24,0.05s0.21-0.04,0.29,0c0.08,0.04,0.05,0.03,0.05,0.03
		s-0.13,0.06-0.23,0.09s-0.11,0.05-0.15,0.07c-0.04,0.02-0.05,0.04-0.03,0.08c0.01,0.03,0.06,0.18,0.08,0.22s0.06,0.12,0.07,0.16
		s0.02,0.04,0.04,0.04c0,0,0.14,0.41,0.16,0.46c0.02,0.05,0.18,0.57,0.2,0.62c0.02,0.05,0.04,0.1,0.04,0.1
		c0.02,0.06,0.05,0.14,0.08,0.17c0.03,0.03,0.07,0.06,0.1,0.06c0.03,0,0.53-0.16,0.62-0.18c0.09-0.03,0.51-0.16,0.68-0.22
		c0.14-0.05,0.35-0.11,0.51-0.16c0.16-0.05,0.35-0.13,0.49-0.17c0.18-0.06,0.58-0.2,0.68-0.24c0.09-0.03,0.57-0.21,0.6-0.22
		c0.03-0.02,0.05-0.07,0.05-0.11c0-0.04-0.02-0.12-0.04-0.18c0,0-0.02-0.05-0.03-0.1c-0.02-0.05-0.19-0.56-0.21-0.61
		c-0.02-0.05-0.15-0.46-0.15-0.46c0.01-0.01,0.02-0.02,0.01-0.06c-0.01-0.04-0.03-0.12-0.04-0.17c-0.01-0.05-0.06-0.19-0.07-0.23
		s-0.03-0.05-0.08-0.04s-0.06,0.01-0.16,0.03c-0.1,0.03-0.24,0.06-0.24,0.06s-0.02,0.02,0.02-0.05c0.04-0.08,0.17-0.13,0.23-0.18
		c0.06-0.04,0.19-0.1,0.16-0.19c-0.03-0.09-0.13-0.07-0.18-0.05c-0.06,0.01-0.19,0.03-0.23,0s-0.05-0.04-0.12-0.2
		c-0.07-0.16-0.13-0.38-0.13-0.59c0-0.21,0.05-0.44,0.15-0.68c0.09-0.23,0.2-0.5,0.31-0.79c0.12-0.29,0.32-0.74,0.38-1.05
		c0.06-0.31,0.1-0.8,0.1-0.99c0-0.18-0.12-0.59-0.18-0.77c-0.06-0.18-0.14-0.27-0.17-0.36c-0.03-0.08-0.22-0.65-0.47-1.41
		c-0.25-0.76-0.68-2.02-0.74-2.18c-0.05-0.17-0.2-0.45-0.18-0.58c0.02-0.13,0-0.14-0.04-0.26c-0.04-0.11-0.08-0.24-0.22-0.32
		s-0.26-0.08-0.29-0.17c-0.03-0.09,0.05-0.13,0.11-0.27c0.07-0.14,0.09-0.12-0.01-0.47c-0.1-0.35-0.39-0.8-0.69-1.29
		c-0.31-0.49-0.65-1.36-0.76-1.69s-0.18-0.59-0.28-1.18c-0.04-0.28-0.13-0.68-0.25-1.13c-0.13-0.51-0.3-1.06-0.33-1.16
		c-0.05-0.18-0.28-0.98-0.37-1.17c-0.09-0.19-0.24-0.36-0.35-0.44s-0.15-0.05-0.07-0.21c0.14-0.28,0.08-0.74-0.02-0.95
		c-0.1-0.21-0.58-0.8-0.68-0.93c-0.1-0.13-0.34-0.28-0.51-0.37c-0.18-0.08-0.4-0.22-0.68-0.13c-0.13,0.04-0.28,0.06-0.37,0.13
		c-0.09,0.07-0.11,0.2-0.15,0.29c-0.08,0.17-0.24,0.48-0.33,0.51s-0.21-0.03-0.36-0.19c-0.04-0.04-0.09-0.09-0.16-0.14
		c-0.11-0.09-0.18-0.16-0.28-0.21c-0.07-0.04-0.15,0-0.21,0.01c-0.21,0.03-0.54,0.15-0.54,0.15l-0.01,0c0,0-0.32,0.1-0.51,0.2
		c-0.06,0.03-0.14,0.04-0.18,0.12c-0.05,0.1-0.06,0.2-0.1,0.34c-0.02,0.08-0.03,0.14-0.04,0.2c-0.03,0.22-0.08,0.34-0.18,0.37
		s-0.41-0.12-0.58-0.21c-0.09-0.05-0.17-0.14-0.29-0.14c-0.11,0-0.24,0.07-0.37,0.12c-0.28,0.09-0.38,0.34-0.47,0.51
		c-0.09,0.17-0.19,0.43-0.19,0.6c0,0.17-0.03,0.93,0.02,1.15c0.04,0.23,0.27,0.63,0.55,0.77C73.49,102.62,73.44,102.63,73.4,102.76z
		"/>
	<path class="st0" d="M44.79,113.49c-0.17,0.1-0.51,0.39-0.67,0.9c-0.17,0.51-0.15,0.75-0.19,0.88c-0.04,0.13-0.21,0.35-0.25,0.5
		s-0.2,0.67-0.24,0.81c-0.03,0.11-0.03,0.33-0.11,0.53c-0.05,0.13-0.28,0.54-0.34,0.74c-0.05,0.19-0.21,0.69,0.03,1.12
		c0.15,0.28,0.3,0.59,0.4,0.83c0.09,0.23,0.14,0.38,0.19,0.57c0.13,0.46,0.29,1.09,0.32,1.39s0.03,0.3-0.03,0.47
		c-0.06,0.17-0.08,0.24-0.09,0.28c-0.03,0.09-0.05,0.18-0.11,0.16c-0.08-0.03-0.31-0.1-0.31-0.1l-0.03-0.01c0,0-0.06,0.16-0.06,0.18
		c0.01,0.02,0.03,0.04,0.1,0.07c0.07,0.03-0.01,0.02-0.01,0.02l-0.17-0.04c0,0-0.14,0.65-0.14,0.66c0,0.02,0.01,0.04,0.03,0.06
		l-0.23,0.75l-0.11,0.37c0,0-0.05,0.13-0.01,0.21c0.04,0.08,0.12,0.14,0.18,0.16s0.98,0.33,0.98,0.33s1.08,0.36,1.15,0.39l0.23,0.07
		c0.08,0.03,1.16,0.37,1.16,0.37s0.93,0.29,0.99,0.31s0.16,0.02,0.24-0.02c0.08-0.04,0.12-0.17,0.12-0.17l0.13-0.36l0.25-0.74
		c0.02,0,0.05-0.02,0.06-0.03c0.01-0.01,0.28-0.62,0.28-0.62l-0.16-0.07c0,0-0.07-0.04,0.01-0.02c0.08,0.02,0.1,0.02,0.12,0
		s0.06-0.18,0.06-0.18l-0.03-0.01c0,0-0.23-0.08-0.31-0.1c-0.06-0.02-0.03-0.11,0-0.2c0.01-0.04,0.04-0.1,0.09-0.28
		c0.05-0.18,0.05-0.17,0.25-0.4c0.2-0.23,0.7-0.64,1.08-0.93c0.16-0.12,0.29-0.22,0.5-0.35c0.22-0.14,0.52-0.3,0.82-0.44
		c0.44-0.21,0.61-0.71,0.68-0.89c0.07-0.19,0.12-0.66,0.16-0.79c0.06-0.21,0.18-0.39,0.22-0.49c0.05-0.15,0.23-0.66,0.29-0.8
		c0.05-0.14,0.05-0.41,0.09-0.55c0.05-0.13,0.2-0.31,0.37-0.82c0.17-0.51,0.06-0.93-0.01-1.12c-0.08-0.19-0.33-0.52-0.24-0.8
		s0.69-0.47,0.75-0.65c0.06-0.18,0.03-0.56,0.12-0.97s0.4-1.73,0.56-2.2c0.16-0.46,0.75-2.34,0.87-2.71s0.39-1.16,0.5-1.49
		c0.11-0.33,0.56-1.62,0.74-2.05c0.18-0.43,0.62-1.15,0.78-1.33c0.16-0.18,0.34-0.37,0.42-0.61c0.08-0.24-0.2-0.58-0.12-0.82
		c0.08-0.24,0.36-0.26,0.47-0.4c0.11-0.13,0.22-0.17,0.25-0.79c0.02-0.61-0.09-1.22-0.62-1.49c-0.4-0.2-1.28-0.55-1.98-0.81
		c0,0-1-0.35-1.28-0.44c-0.28-0.09-1.04-0.32-1.09-0.33l-0.05-0.01c-0.71-0.21-1.57-0.43-2.02-0.5c-0.59-0.1-1.03,0.33-1.38,0.84
		c-0.34,0.51-0.28,0.61-0.27,0.78c0.01,0.17,0.23,0.36,0.15,0.6s-0.51,0.35-0.59,0.59c-0.08,0.24-0.04,0.5-0.02,0.74
		c0.02,0.24-0.05,1.07-0.16,1.53c-0.11,0.46-0.5,1.76-0.61,2.09c-0.11,0.33-0.37,1.13-0.48,1.5c-0.11,0.37-0.75,2.23-0.89,2.7
		c-0.15,0.46-0.68,1.72-0.85,2.1s-0.42,0.67-0.47,0.85s0.32,0.68,0.22,0.97C45.36,113.27,44.96,113.39,44.79,113.49z"/>
	<path class="st0" d="M17.08,30.5c-0.18,0.25-0.95,1.35-1,1.42c-0.05,0.08-0.11,0.2-0.09,0.31c0.02,0.11,0.1,0.15,0.1,0.15
		s0.15,0.11,0.38,0.27c0,0,1.42,1.06,1.54,1.14c0.12,0.09,0.09,0.19,0.06,0.36c-0.03,0.17-0.05,0.37-0.07,0.68
		c-0.02,0.31-0.07,0.63,0.12,1.12c0.19,0.5,0.62,0.79,1.17,1.16c0.55,0.37,1.35,0.89,2.03,1.36c0.68,0.47,3.71,2.46,3.95,2.61
		c0.24,0.15,2.39,1.56,2.59,1.7c0.2,0.14,2.45,1.62,2.77,1.82c0.32,0.21,0.74,0.5,0.91,0.65s0.31,0.5,0.4,0.72
		c0.1,0.22,0.28,0.49,0.35,0.57c0.07,0.08,0.18,0.14,0.4,0.27s0.69,0.39,0.81,0.47c0.11,0.07,0.28,0.13,0.41,0.11
		s0.36-0.25,0.58-0.49s0.82-1.02,1.19-1.48c0.18-0.22,0.45-0.59,0.76-1.03l0.04-0.06c0.31-0.43,0.63-0.87,0.78-1.12
		c0.32-0.5,0.87-1.32,1.02-1.6c0.15-0.28,0.3-0.58,0.28-0.7c-0.02-0.13-0.13-0.27-0.23-0.35c-0.11-0.08-0.5-0.44-0.7-0.62
		s-0.28-0.25-0.39-0.3s-0.41-0.13-0.65-0.15s-0.61-0.04-0.81-0.15c-0.2-0.11-0.61-0.42-0.91-0.65c-0.3-0.23-2.41-1.9-2.61-2.04
		s-2.22-1.73-2.43-1.91s-3.07-2.42-3.73-2.91c-0.66-0.5-1.41-1.09-1.94-1.49s-0.94-0.72-1.47-0.74c-0.53-0.02-0.81,0.12-1.1,0.24
		c-0.29,0.12-0.47,0.2-0.62,0.28c-0.15,0.08-0.24,0.14-0.36,0.06c-0.12-0.09-1.58-1.1-1.58-1.1c-0.23-0.16-0.38-0.27-0.38-0.27
		s-0.06-0.06-0.18-0.04c-0.11,0.02-0.21,0.11-0.26,0.18c-0.06,0.07-0.85,1.15-1.03,1.4L17.08,30.5z"/>
	<path class="st0" d="M57.58,28.16c-0.05-0.14-0.16-0.41-0.26-0.58c-0.1-0.17-0.38-0.64-0.48-0.79c-0.1-0.16-0.36-0.56-0.47-0.77
		c-0.11-0.21-0.28-0.56-0.38-0.81c-0.1-0.25-0.29-0.78-0.34-0.98c-0.05-0.2-0.14-0.57-0.2-0.88c-0.06-0.31-0.18-1.04-0.21-1.21
		s-0.19-1-0.23-1.19s-0.18-0.89-0.22-1.11c-0.05-0.22-0.15-0.73-0.19-0.85c-0.03-0.12-0.08-0.24-0.12-0.31
		c-0.04-0.07-0.09-0.13-0.14-0.22s-0.11-0.28-0.14-0.39c-0.03-0.11-0.1-0.45-0.13-0.57c-0.03-0.12-0.14-0.56-0.19-0.73
		c-0.05-0.16-0.19-0.6-0.26-0.75c-0.06-0.16-0.28-0.72-0.35-0.88c-0.07-0.16-0.27-0.57-0.35-0.76c-0.09-0.19-0.29-0.57-0.31-0.62
		c-0.03-0.05-0.03-0.08-0.06-0.1c-0.03-0.01-0.04-0.04-0.05-0.07s-0.05-0.07-0.07-0.09c-0.02-0.02-0.05-0.04-0.07-0.04
		c-0.01-0.03-0.04-0.11-0.04-0.11s-0.01-0.07-0.01-0.09s0.01-0.07,0.01-0.11c0-0.02-0.01-0.05-0.02-0.09
		c-0.03-0.1-0.04-0.1-0.05-0.13c-0.01-0.03-0.06-0.09-0.09-0.14c-0.03-0.05-0.12-0.18-0.17-0.25c-0.05-0.07-0.17-0.25-0.22-0.31
		c-0.04-0.06-0.3-0.42-0.35-0.49c-0.05-0.06-0.32-0.42-0.39-0.51c-0.07-0.09-0.25-0.31-0.34-0.42c-0.09-0.11-0.35-0.41-0.44-0.51
		C50.2,10.2,50,9.97,49.94,9.9c-0.06-0.08-0.22-0.29-0.31-0.4c-0.09-0.12-0.25-0.33-0.37-0.48c-0.12-0.16-0.26-0.37-0.33-0.5
		c-0.07-0.12-0.22-0.4-0.27-0.52c-0.05-0.11-0.22-0.45-0.27-0.57c-0.05-0.12-0.12-0.27-0.17-0.38c-0.04-0.11-0.18-0.47-0.22-0.58
		c-0.04-0.11-0.17-0.51-0.2-0.6s-0.04-0.13-0.06-0.19c-0.01-0.05-0.01-0.08,0.02-0.12c0.03-0.04,0.08-0.09,0.1-0.12
		C47.9,5.4,47.9,5.35,47.89,5.3c-0.02-0.05-0.04-0.09-0.07-0.14c-0.03-0.04-0.2-0.24-0.28-0.33c-0.08-0.09-0.17-0.18-0.21-0.23
		c-0.04-0.05-0.08-0.12-0.09-0.16c-0.01-0.04-0.01-0.05-0.01-0.05s0.19-0.06,0.17-0.12c-0.02-0.06-0.06-0.17-0.08-0.22
		c-0.02-0.05-0.06-0.14-0.07-0.18c-0.02-0.04-0.06-0.15-0.12-0.2c-0.06-0.05-0.11-0.09-0.17-0.12c-0.03-0.01-0.12-0.03-0.21-0.03
		c-0.11,0-0.22,0.01-0.27,0.02c-0.1,0.01-0.75,0.16-0.85,0.18c-0.14,0.04-0.37,0.11-0.51,0.15l-0.02,0.01
		c-0.14,0.04-0.33,0.11-0.47,0.16c-0.1,0.04-0.71,0.3-0.79,0.35c-0.05,0.03-0.14,0.08-0.23,0.15c-0.07,0.05-0.13,0.12-0.15,0.15
		c-0.04,0.06-0.06,0.12-0.07,0.2c-0.02,0.08,0.01,0.19,0.02,0.24c0.01,0.05,0.03,0.14,0.05,0.19c0.01,0.05,0.04,0.16,0.06,0.22
		c0.02,0.06,0.21,0,0.21,0s0.01,0.01,0.02,0.04c0.01,0.03,0.03,0.12,0.02,0.18c0,0.06-0.02,0.18-0.03,0.3S43.7,6.44,43.7,6.5
		c0,0.06,0.01,0.11,0.02,0.15c0.02,0.05,0.05,0.09,0.09,0.1c0.04,0.01,0.1,0.03,0.15,0.04c0.05,0.01,0.07,0.04,0.09,0.09
		c0.02,0.05,0.04,0.09,0.06,0.18c0.03,0.09,0.15,0.49,0.19,0.6c0.04,0.11,0.14,0.48,0.17,0.6c0.03,0.11,0.06,0.28,0.09,0.41
		s0.09,0.5,0.12,0.62c0.03,0.12,0.07,0.44,0.09,0.58c0.02,0.14,0.03,0.4,0.03,0.6c0,0.19-0.01,0.46-0.01,0.61
		c0,0.15-0.01,0.41-0.01,0.51c-0.01,0.1-0.03,0.4-0.05,0.54c-0.01,0.14-0.05,0.53-0.05,0.67c-0.01,0.14-0.02,0.43-0.02,0.54
		c0,0.11-0.01,0.56-0.01,0.64c0,0.08,0,0.52,0.01,0.6c0,0.07,0.01,0.29,0.01,0.38s0.01,0.24,0.01,0.3c0.01,0.06,0.01,0.13,0.01,0.16
		c0.01,0.03,0,0.04,0.03,0.14c0.01,0.03,0.03,0.07,0.04,0.08c0.02,0.03,0.06,0.07,0.07,0.08c0.01,0.02,0.05,0.08,0.05,0.08
		s0.03,0.08,0.04,0.11c-0.01,0.01-0.03,0.05-0.03,0.08c0,0.03,0,0.09,0,0.12s0.01,0.06,0,0.09c-0.02,0.03,0,0.06,0.01,0.11
		c0.01,0.06,0.07,0.48,0.11,0.69s0.13,0.65,0.16,0.82c0.03,0.17,0.19,0.75,0.23,0.92c0.04,0.16,0.18,0.6,0.24,0.76
		c0.05,0.16,0.22,0.58,0.27,0.7c0.05,0.12,0.19,0.44,0.23,0.54c0.04,0.1,0.1,0.29,0.12,0.39c0.02,0.11,0.01,0.18,0.02,0.26
		c0.01,0.08,0.04,0.2,0.09,0.32c0.04,0.12,0.26,0.59,0.35,0.8c0.09,0.21,0.39,0.85,0.47,1.03c0.08,0.18,0.44,0.94,0.51,1.1
		c0.07,0.16,0.41,0.82,0.54,1.1s0.28,0.63,0.36,0.82c0.08,0.2,0.24,0.73,0.3,0.99s0.13,0.64,0.17,0.87c0.04,0.23,0.06,0.71,0.07,0.9
		s0.06,0.73,0.08,0.93c0.02,0.19,0.09,0.47,0.13,0.62c0.04,0.15,0.13,0.48,0.16,0.57c0.03,0.09,0.13,0.39,0.17,0.47
		c0.03,0.08,0.16,0.31,0.19,0.36c0.03,0.05,0.1,0.14,0.12,0.17s0.07,0.04,0.11,0.07s0.08,0.06,0.08,0.06s0,0,0,0c0,0,0,0,0,0
		c0.04,0.04,0.06,0.05,0.12,0.08c0.05,0.03,0.09,0.06,0.25,0.11c0.15,0.05,0.32,0.07,0.73,0.02c0.13-0.02,0.55-0.09,0.92-0.19
		c0.91-0.24,2.1-0.61,2.1-0.61l0.02-0.01c0,0,1.15-0.38,2.02-0.73c0.35-0.14,0.74-0.32,0.85-0.39c0.36-0.2,0.48-0.32,0.58-0.45
		c0.1-0.13,0.11-0.18,0.13-0.23c0.02-0.05,0.03-0.08,0.05-0.14c0,0,0,0,0,0c0,0,0,0,0,0s0.01-0.05,0.03-0.1
		c0.02-0.05,0.05-0.09,0.05-0.12c0-0.03,0-0.15,0-0.2c-0.01-0.05-0.04-0.32-0.06-0.41s-0.11-0.38-0.14-0.47
		C57.77,28.63,57.64,28.31,57.58,28.16z M50.13,32.53C50.14,32.53,50.14,32.53,50.13,32.53C50.14,32.53,50.13,32.53,50.13,32.53z
		 M57.92,30C57.92,30,57.92,30,57.92,30C57.92,30,57.92,30,57.92,30z"/>
	<path class="st0" d="M83.65,20.41c0.04-0.03,0.08-0.06,0.08-0.16c0-0.09-0.01-0.33,0.01-0.41c0.03-0.08,0.54-1.61,0.6-1.79
		c0.06-0.19,0.79-2.24,0.83-2.37c0.04-0.13,0.06-0.18,0.06-0.18s0.1-0.04,0.14-0.14c0.03-0.1-0.1-0.22-0.07-0.31
		s0.15-0.04,0.21-0.24c0.07-0.2,0.14-0.68,0.15-0.94c0.01-0.27-0.05-0.82-0.1-1.12c-0.05-0.3-0.21-0.75-0.37-1.3
		c-0.16-0.54-0.26-0.67-0.38-0.99c-0.12-0.32-0.19-0.41-0.13-0.62c0.06-0.21,0.11-0.4,0.14-0.49c0,0,0.36,0.1,0.43,0.09
		c0.06,0,0,0,0,0c0.06-0.01,0.1,0,0.14-0.01c0.04-0.01,0.05-0.02,0.07-0.07c0,0,0,0,0,0c0.02-0.06,0-0.12-0.11-0.22
		c0,0,0.06-0.32,0.09-0.43c0.03-0.11,0.09-0.28,0.04-0.35l0.37-1.06c0,0,0.09-0.25,0.06-0.36c-0.04-0.11-0.26-0.26-0.45-0.35
		c-0.19-0.09-1.16-0.47-1.38-0.54c-0.22-0.07-1.22-0.33-1.43-0.37c-0.21-0.04-0.47-0.06-0.57,0.01c-0.1,0.07-0.17,0.33-0.17,0.33
		l-0.32,1.07c-0.09,0.02-0.14,0.2-0.18,0.31c-0.04,0.11-0.18,0.4-0.18,0.4c-0.15,0.01-0.2,0.05-0.22,0.11c0,0,0,0,0,0
		c-0.01,0.04-0.01,0.06,0.02,0.09c0.02,0.04,0.06,0.05,0.11,0.1c0,0-0.05-0.04,0,0c0.05,0.04,0.4,0.18,0.4,0.18
		c-0.03,0.09-0.1,0.27-0.17,0.48C81.31,8.97,81.2,9,80.91,9.19c-0.29,0.19-0.44,0.24-0.89,0.58c-0.45,0.35-0.85,0.62-1.06,0.83
		c-0.21,0.21-0.59,0.62-0.73,0.85c-0.14,0.22-0.36,0.65-0.43,0.85c-0.07,0.2,0.06,0.23,0.03,0.32c-0.03,0.09-0.2,0.11-0.24,0.21
		c-0.03,0.1,0.03,0.19,0.03,0.19s-0.02,0.05-0.06,0.18s-0.66,2.22-0.72,2.41c-0.06,0.19-0.54,1.72-0.57,1.8
		c-0.03,0.08-0.18,0.26-0.23,0.34c-0.05,0.08-0.04,0.13-0.03,0.17c0.01,0.05,0.07,0.09,0.03,0.18c-0.02,0.05-0.08,0.06-0.12,0.13
		c-0.03,0.05-0.05,0.14-0.08,0.24c-0.05,0.21-0.18,0.76-0.25,1.16c-0.04,0.23-0.14,0.86-0.27,1.49c-0.09,0.45-0.22,0.91-0.3,1.17
		c-0.2,0.62-0.62,1.56-0.82,2.1c-0.2,0.54-0.78,1.83-0.88,2.1c-0.1,0.27-0.37,0.91-0.45,1.15c-0.08,0.23-0.15,0.5-0.2,0.66
		c0,0.01,0,0.02-0.01,0.03c-0.03,0.09-0.13,0.3-0.17,0.44c0,0,0,0,0,0c0,0,0,0,0,0c-0.04,0.14-0.15,0.59-0.18,0.75
		c-0.03,0.16-0.07,0.38-0.06,0.56c0.01,0.18,0.1,0.43,0.17,0.5c0.07,0.07,0.09,0.08,0.15,0.13c0.08,0.06,0.35,0.12,0.46,0.15
		c0.12,0.03,0.51,0.18,0.58,0.2c0.07,0.02,0.2-0.08,0.23-0.06c0.04,0.02,0.1,0.04,0.2,0.05c0.1,0.01,0.26-0.01,0.26-0.01
		c0.07,0.12,0.52,0.49,0.86,0.6c0.34,0.11,0.58,0.13,0.58,0.13s0.2,0.13,0.54,0.24c0.34,0.11,0.93,0.08,1.05,0.02
		c0,0,0.13,0.11,0.21,0.16c0.08,0.05,0.15,0.07,0.19,0.08c0.04,0.01,0.08,0.17,0.15,0.19c0.07,0.02,0.47,0.13,0.59,0.17
		c0.11,0.04,0.36,0.16,0.46,0.15c0.07,0,0.09,0,0.2-0.02c0.1-0.01,0.32-0.16,0.43-0.3c0.11-0.15,0.21-0.34,0.28-0.49
		c0.07-0.15,0.25-0.58,0.29-0.71c0,0,0,0,0,0c0,0,0,0,0,0c0.04-0.13,0.09-0.37,0.12-0.46c0-0.01,0.01-0.02,0.01-0.03
		c0.05-0.16,0.15-0.41,0.23-0.65c0.07-0.24,0.23-0.92,0.31-1.2c0.08-0.27,0.36-1.66,0.52-2.22c0.16-0.56,0.37-1.56,0.57-2.18
		c0.09-0.26,0.25-0.71,0.44-1.13c0.26-0.58,0.55-1.15,0.66-1.36c0.18-0.37,0.39-0.88,0.47-1.08c0.04-0.09,0.07-0.18,0.08-0.24
		c0-0.08-0.04-0.12-0.02-0.17C83.55,20.44,83.62,20.45,83.65,20.41z M80.26,30.77C80.26,30.77,80.26,30.77,80.26,30.77
		C80.26,30.77,80.28,30.72,80.26,30.77z M85.47,9.35C85.47,9.35,85.47,9.35,85.47,9.35C85.47,9.35,85.48,9.31,85.47,9.35z
		 M72.67,28.31C72.67,28.31,72.67,28.3,72.67,28.31C72.69,28.25,72.67,28.31,72.67,28.31z M81.03,7.91
		C81.03,7.91,81.03,7.91,81.03,7.91C81.05,7.87,81.03,7.91,81.03,7.91z"/>
	<path class="st0" d="M30.64,84.68c-0.16,0.15-0.38,0.45-0.61,0.65c-0.32,0.28-0.61,0.52-0.88,0.71c-0.5,0.36-0.75,0.56-0.97,0.74
		c-0.23,0.17-1.57,1.19-2.35,1.74c-0.78,0.55-0.67,0.49-0.94,0.65c-0.28,0.15-0.77,0.45-1.06,0.67c-0.28,0.21-0.93,0.93-1.2,1.42
		c-0.27,0.49-0.71,1.45-1.13,1.96s-1.13,0.93-1.54,1.07s-1.55,0.5-2.11,0.65c-0.56,0.15-0.88,0.36-1.22,0.65
		c-0.34,0.29-0.96,0.97-1.2,1.48c-0.11,0.22-0.2,0.63-0.24,1.03c-0.05,0.51-0.04,0.81,0.02,1.18c0.05,0.33,0.06,0.31-0.02,0.43
		c-0.09,0.14-0.69,0.65-0.79,0.72c0,0-0.09-0.1-0.17-0.16c-0.08-0.06-0.21-0.11-0.27-0.05c-0.03,0.03-0.05,0.07-0.08,0.08
		c-0.03,0.01-0.06-0.01-0.08-0.01c-0.05-0.01-0.17,0.15-0.21,0.21c-0.04,0.06-0.14,0.11-0.22,0.18c-0.08,0.06-0.62,0.5-0.62,0.5
		l-0.33,0.27l-0.11,0.1c0,0-0.08,0.05-0.08,0.13c-0.01,0.08,0.05,0.18,0.1,0.29c0.03,0.06,0.32,0.61,0.47,0.84
		c0.08,0.13,0.22,0.32,0.36,0.51l0.16,0.21c0.14,0.19,0.29,0.38,0.39,0.49c0.18,0.21,0.62,0.65,0.67,0.69
		c0.1,0.08,0.18,0.16,0.25,0.18c0.08,0.02,0.15-0.05,0.15-0.05l0.12-0.07l0.35-0.24c0,0,0.57-0.4,0.66-0.45
		c0.08-0.06,0.16-0.14,0.23-0.16c0.07-0.02,0.26-0.09,0.26-0.14c0-0.02-0.01-0.06,0.01-0.08c0.02-0.02,0.06-0.03,0.1-0.05
		c0.08-0.04,0.06-0.18,0.03-0.27c-0.03-0.09-0.1-0.21-0.1-0.21c0.1-0.08,0.75-0.51,0.91-0.56c0.14-0.04,0.11-0.04,0.42,0.1
		c0.34,0.16,0.63,0.25,1.13,0.35c0.4,0.08,0.81,0.1,1.06,0.05c0.55-0.09,1.38-0.5,1.75-0.74c0.37-0.24,0.66-0.49,0.96-0.99
		c0.3-0.5,0.96-1.5,1.21-1.85s0.85-0.92,1.45-1.18c0.61-0.26,1.64-0.42,2.19-0.54s1.42-0.54,1.7-0.76c0.28-0.21,0.71-0.61,0.93-0.83
		c0.23-0.23,0.14-0.13,0.88-0.73c0.74-0.6,2.09-1.6,2.32-1.77c0.23-0.17,0.5-0.35,0.98-0.73c0.26-0.21,0.57-0.42,0.93-0.65
		c0.26-0.16,0.6-0.29,0.8-0.41c0.46-0.27,1.23-0.97,1.56-1.36c0.32-0.4,0.79-1.07,0.89-1.4c0.05-0.17,0.1-0.39,0.08-0.6
		c-0.02-0.2-0.11-0.38-0.22-0.54c-0.23-0.31-0.64-0.58-0.9-0.78s-0.51-0.45-0.51-0.45c0.03-0.2,0.28-0.69-0.08-1.17l0,0
		c-0.36-0.47-0.9-0.37-1.1-0.4c0,0-0.16-0.3-0.29-0.61c-0.12-0.31-0.27-0.77-0.5-1.09c-0.11-0.15-0.27-0.29-0.45-0.36
		c-0.19-0.08-0.42-0.09-0.59-0.09c-0.34,0.01-1.12,0.27-1.59,0.47S31.03,84.31,30.64,84.68z"/>
	<g>
		<path class="st1" d="M6.67,68.89C6,68.53,5.48,68.05,5.1,67.43c-0.38-0.62-0.57-1.31-0.57-2.07c0-0.76,0.19-1.45,0.57-2.07
			c0.38-0.62,0.9-1.1,1.56-1.46c0.67-0.35,1.42-0.53,2.25-0.53c0.64,0,1.24,0.11,1.79,0.32c0.55,0.21,0.99,0.52,1.34,0.92
			l-1.06,1.18c-0.3-0.3-0.62-0.53-0.95-0.67c-0.33-0.14-0.69-0.21-1.07-0.21c-0.5,0-0.95,0.11-1.35,0.33
			c-0.4,0.22-0.72,0.52-0.95,0.9c-0.23,0.38-0.35,0.81-0.35,1.28c0,0.47,0.11,0.9,0.34,1.28c0.23,0.38,0.55,0.68,0.96,0.9
			c0.41,0.22,0.87,0.33,1.37,0.33c0.8,0,1.49-0.29,2.05-0.86l1.06,1.16c-0.36,0.41-0.81,0.72-1.36,0.93
			c-0.55,0.21-1.15,0.31-1.79,0.31C8.1,69.41,7.34,69.24,6.67,68.89z"/>
		<path class="st1" d="M15.03,68.9c-0.63-0.34-1.13-0.82-1.49-1.44c-0.36-0.62-0.54-1.32-0.54-2.1c0-0.78,0.18-1.48,0.54-2.1
			c0.36-0.62,0.85-1.1,1.49-1.44c0.63-0.34,1.35-0.52,2.16-0.52c0.8,0,1.52,0.17,2.16,0.52c0.63,0.34,1.13,0.82,1.49,1.44
			c0.36,0.62,0.54,1.32,0.54,2.1c0,0.78-0.18,1.48-0.54,2.1c-0.36,0.62-0.85,1.1-1.49,1.44c-0.63,0.34-1.35,0.52-2.16,0.52
			C16.38,69.41,15.66,69.24,15.03,68.9z M18.43,67.55c0.37-0.21,0.65-0.51,0.86-0.89c0.21-0.38,0.31-0.81,0.31-1.3
			c0-0.49-0.1-0.92-0.31-1.3c-0.21-0.38-0.49-0.68-0.86-0.89c-0.37-0.21-0.78-0.32-1.24-0.32c-0.46,0-0.88,0.11-1.24,0.32
			c-0.37,0.21-0.65,0.51-0.86,0.89c-0.21,0.38-0.31,0.81-0.31,1.3c0,0.49,0.1,0.92,0.31,1.3c0.21,0.38,0.49,0.68,0.86,0.89
			c0.37,0.21,0.78,0.32,1.24,0.32C17.65,67.87,18.07,67.76,18.43,67.55z"/>
		<path class="st1" d="M24.61,68.89c-0.67-0.35-1.19-0.84-1.57-1.46c-0.38-0.62-0.57-1.31-0.57-2.07c0-0.76,0.19-1.45,0.57-2.07
			c0.38-0.62,0.9-1.1,1.56-1.46c0.67-0.35,1.42-0.53,2.25-0.53c0.64,0,1.24,0.11,1.79,0.32c0.55,0.21,0.99,0.52,1.34,0.92
			l-1.06,1.18c-0.3-0.3-0.62-0.53-0.95-0.67c-0.33-0.14-0.69-0.21-1.07-0.21c-0.5,0-0.95,0.11-1.35,0.33
			c-0.4,0.22-0.72,0.52-0.95,0.9c-0.23,0.38-0.35,0.81-0.35,1.28c0,0.47,0.11,0.9,0.34,1.28c0.23,0.38,0.55,0.68,0.96,0.9
			c0.41,0.22,0.87,0.33,1.37,0.33c0.8,0,1.49-0.29,2.05-0.86l1.06,1.16c-0.36,0.41-0.81,0.72-1.36,0.93
			c-0.55,0.21-1.15,0.31-1.79,0.31C26.03,69.41,25.28,69.24,24.61,68.89z"/>
		<path class="st1" d="M36.45,67.53h-3.43l-0.65,1.74h-1.78l3.11-7.82h2.1l3.11,7.82H37.1L36.45,67.53z M35.89,66.06l-1.16-3.1
			l-1.16,3.1H35.89z"/>
		<path class="st1" d="M39.6,65.11h3.35v1.59H39.6V65.11z"/>
		<path class="st1" d="M46.14,68.89c-0.67-0.35-1.19-0.84-1.57-1.46c-0.38-0.62-0.57-1.31-0.57-2.07c0-0.76,0.19-1.45,0.57-2.07
			c0.38-0.62,0.9-1.1,1.56-1.46c0.67-0.35,1.42-0.53,2.25-0.53c0.64,0,1.24,0.11,1.79,0.32c0.55,0.21,0.99,0.52,1.34,0.92
			l-1.06,1.18c-0.3-0.3-0.62-0.53-0.95-0.67c-0.33-0.14-0.69-0.21-1.07-0.21c-0.5,0-0.95,0.11-1.35,0.33
			c-0.4,0.22-0.72,0.52-0.95,0.9c-0.23,0.38-0.35,0.81-0.35,1.28c0,0.47,0.11,0.9,0.34,1.28c0.23,0.38,0.55,0.68,0.96,0.9
			c0.41,0.22,0.87,0.33,1.37,0.33c0.8,0,1.49-0.29,2.05-0.86l1.06,1.16c-0.36,0.41-0.81,0.72-1.36,0.93
			c-0.55,0.21-1.15,0.31-1.79,0.31C47.57,69.41,46.81,69.24,46.14,68.89z"/>
		<path class="st1" d="M54.5,68.9c-0.63-0.34-1.13-0.82-1.49-1.44c-0.36-0.62-0.54-1.32-0.54-2.1c0-0.78,0.18-1.48,0.54-2.1
			c0.36-0.62,0.85-1.1,1.49-1.44c0.63-0.34,1.35-0.52,2.16-0.52s1.52,0.17,2.16,0.52c0.63,0.34,1.13,0.82,1.49,1.44
			c0.36,0.62,0.54,1.32,0.54,2.1c0,0.78-0.18,1.48-0.54,2.1c-0.36,0.62-0.85,1.1-1.49,1.44c-0.63,0.34-1.35,0.52-2.16,0.52
			S55.14,69.24,54.5,68.9z M57.9,67.55c0.37-0.21,0.65-0.51,0.86-0.89c0.21-0.38,0.31-0.81,0.31-1.3c0-0.49-0.1-0.92-0.31-1.3
			c-0.21-0.38-0.49-0.68-0.86-0.89c-0.37-0.21-0.78-0.32-1.24-0.32c-0.46,0-0.88,0.11-1.24,0.32c-0.37,0.21-0.65,0.51-0.86,0.89
			c-0.21,0.38-0.31,0.81-0.31,1.3c0,0.49,0.1,0.92,0.31,1.3c0.21,0.38,0.49,0.68,0.86,0.89c0.37,0.21,0.78,0.32,1.24,0.32
			C57.12,67.87,57.54,67.76,57.9,67.55z"/>
		<path class="st1" d="M68.47,67.75v1.52h-6.11v-7.82h1.71v6.3H68.47z"/>
		<path class="st1" d="M74.92,67.53h-3.43l-0.65,1.74h-1.78l3.11-7.82h2.1l3.11,7.82h-1.79L74.92,67.53z M74.36,66.06l-1.16-3.1
			l-1.16,3.1H74.36z"/>
		<path class="st1" d="M88.65,65.82c0.22,0.36,0.33,0.75,0.33,1.2c0,0.44-0.11,0.83-0.33,1.17c-0.22,0.34-0.53,0.61-0.95,0.8
			c-0.42,0.19-0.91,0.29-1.49,0.29h-4.31v-7.82h4c0.53,0,0.98,0.09,1.35,0.27c0.37,0.18,0.65,0.43,0.84,0.75
			c0.19,0.32,0.28,0.68,0.28,1.08c0,0.67-0.26,1.17-0.77,1.5C88.08,65.2,88.44,65.46,88.65,65.82z M83.58,62.89v1.7h2.17
			c0.29,0,0.52-0.08,0.68-0.23c0.16-0.16,0.24-0.36,0.24-0.62c0-0.26-0.09-0.47-0.26-0.61c-0.17-0.15-0.41-0.22-0.73-0.22H83.58z
			 M86.95,67.59c0.2-0.16,0.3-0.38,0.3-0.67c0-0.28-0.09-0.49-0.28-0.66c-0.18-0.16-0.43-0.24-0.74-0.24h-2.65v1.82h2.5
			C86.46,67.83,86.75,67.75,86.95,67.59z"/>
		<path class="st1" d="M93.89,66.27h-1.77v3h-1.68v-7.82h4.37c0.5,0,0.94,0.11,1.31,0.32c0.37,0.21,0.66,0.51,0.86,0.87
			c0.2,0.37,0.3,0.78,0.3,1.22c0,0.53-0.14,1-0.42,1.41c-0.28,0.41-0.66,0.7-1.15,0.86l2.13,3.14h-1.97L93.89,66.27z M92.12,64.77
			h2.38c0.33,0,0.58-0.08,0.77-0.24c0.18-0.16,0.28-0.39,0.28-0.67c0-0.28-0.09-0.49-0.28-0.66c-0.18-0.16-0.44-0.24-0.77-0.24
			h-2.38V64.77z"/>
		<path class="st1" d="M104.1,67.53h-3.43l-0.65,1.74h-1.78l3.11-7.82h2.1l3.11,7.82h-1.79L104.1,67.53z M103.54,66.06l-1.16-3.1
			l-1.16,3.1H103.54z"/>
		<path class="st1" d="M108.68,69.06c-0.66-0.21-1.19-0.51-1.59-0.89l1.05-1.28c0.73,0.65,1.6,0.98,2.62,0.98
			c0.46,0,0.84-0.09,1.12-0.26c0.28-0.17,0.42-0.39,0.42-0.64c0-0.19-0.08-0.35-0.25-0.48s-0.45-0.24-0.85-0.32l-1.66-0.32
			c-0.72-0.14-1.27-0.39-1.62-0.76c-0.36-0.37-0.54-0.82-0.54-1.36c0-0.49,0.14-0.92,0.43-1.29c0.29-0.37,0.68-0.65,1.2-0.84
			c0.51-0.2,1.09-0.29,1.73-0.29c0.61,0,1.19,0.09,1.75,0.26c0.56,0.17,1.04,0.45,1.45,0.82l-0.98,1.25
			c-0.69-0.56-1.45-0.84-2.27-0.84c-0.44,0-0.81,0.08-1.1,0.23c-0.29,0.15-0.44,0.34-0.44,0.58c0,0.15,0.07,0.29,0.22,0.4
			c0.15,0.12,0.43,0.21,0.85,0.29l1.54,0.28c0.77,0.15,1.35,0.42,1.73,0.82c0.39,0.4,0.58,0.88,0.58,1.44c0,0.5-0.13,0.94-0.4,1.33
			c-0.27,0.38-0.65,0.68-1.14,0.89c-0.49,0.21-1.06,0.32-1.7,0.32C110.06,69.38,109.34,69.27,108.68,69.06z"/>
		<path class="st1" d="M117.34,61.45v7.82h-1.71v-7.82H117.34z"/>
		<path class="st1" d="M125.46,67.75v1.52h-6.11v-7.82h1.71v6.3H125.46z"/>
	</g>
</g>
</svg>
