<svg xmlns="http://www.w3.org/2000/svg" viewBox="0 0 172.45 79.33"><title>logo_Coca-Cola-Brasil</title><g id="desktop"><g id="Camada_1-2" data-name="Camada 1-2"><path d="M120.81,4.16a21.49,21.49,0,0,0-7,5.43c-3.75,4.14-6,8.81-4.33,10,.62.47,2.05.55,4.66-1.79a20.53,20.53,0,0,0,5.51-7.65c1.69-4.12,1.15-6,1.15-6m20.58,7.45c-4.18-2.14-7.23-4.76-10.4-6.39S126,3,123.54,3.35a8.76,8.76,0,0,0-1,.25s1.27,4.31-3.74,11.55-9.72,7.29-11,5.26.39-6.46,3.37-10.32c3.09-4,8.54-7.39,8.54-7.39s-1.74-1.06-6,1.36-11.34,8-18,17.41-8,14.66-8.92,18.76-.09,8.47,4.45,8.48,9.83-6.93,11.32-9.34c2.78-4.49,4.59-11.36.81-10.42-1.87.47-3.37,2.53-4.31,4.5a18.93,18.93,0,0,0-1.38,4A15.39,15.39,0,0,0,94,39.59a27,27,0,0,0-3.49,3.09s0-3.28,2.62-8.58,7.4-7.72,10.11-7.94c2.45-.2,5.62,1.87,2.93,9.54s-10.65,17-19,17.08c-7.71.1-12.76-9.74-2-26.92C97,6.87,111,1.05,115.48.4s6,1.35,6,1.35A19.38,19.38,0,0,1,130.08.33c5.53.37,9.8,4.28,15.44,7-1.48,1.43-2.88,2.89-4.12,4.27m24.81-6.39C162.38,7.7,157.08,9.92,152,9.43c-1.28,1.34-2.67,2.88-4,4.56,8.83,1.75,16.56-3.72,20.68-8.38A27.4,27.4,0,0,0,172.45.09a33.87,33.87,0,0,1-6.24,5.15M154.46,30.1a2.43,2.43,0,0,0,.16-.37.89.89,0,0,0-.81-.78c-.84,0-2,.13-5,3.46a44.9,44.9,0,0,0-6.4,9.07C140.7,44.63,140,47,141,47.57a1.4,1.4,0,0,0,1,.11c.68-.16,1.43-.79,2.59-2.12.54-.63,1.15-1.5,1.87-2.5,2-2.71,7-11.24,8-13m-31.25,3.62c.5-1.31,1.12-3.88-.19-4.89s-5.07,1.44-5.09,4,2.56,3.84,3.19,4c.35.09.47.08.64-.21a21.11,21.11,0,0,0,1.45-2.94m-2.75,4.82A11,11,0,0,1,118,37a8.14,8.14,0,0,1-1.88-2.29c0-.08-.1,0-.15.06a32.79,32.79,0,0,0-2.23,3.12c-1.94,2.85-4.92,8.73-2.22,9.74,1.73.64,4.61-2.39,6.18-4.39a35.59,35.59,0,0,0,2.89-4.41c.08-.16,0-.21-.09-.24m30.6,6.8c-.73,1.18-1.56,3.42.86,2,2.94-1.7,7.14-8.07,7.14-8.07H161a62.48,62.48,0,0,1-5.77,7.57c-3,3.31-6.63,6.32-9.2,6-3-.35-2-4.29-2-4.29s-4.31,4.57-7.26,4.24c-4-.44-2.79-5.4-2.79-5.4s-4.52,5.57-7.61,5.39c-4.84-.27-3.62-6.18-2.28-10.31.73-2.22,1.39-4,1.39-4a14.61,14.61,0,0,1-1.49.28c-.54.07-1.53.13-1.53.13a65.93,65.93,0,0,1-3.62,5.69c-1.61,2.14-8.47,9.5-12.5,8-3.73-1.36-2.5-7.07-.32-11.61C109.11,34.46,118,25,123.17,26.21c5.33,1.29.13,11,.13,11a.05.05,0,0,0,0,.05,2.11,2.11,0,0,0,1-.05,11.19,11.19,0,0,0,2-.58s5.35-11.21,11.27-18.54,17.66-20,22.29-16.91c1.13.75.62,3.33-.91,6.48-.67.21-1.37.4-2.09.55a17.52,17.52,0,0,0,1.9-4.5c.7-3.79-8.15,4.2-14.48,12.8A118.84,118.84,0,0,0,134.2,32.9a27.53,27.53,0,0,0,3.26-2.32,94.76,94.76,0,0,0,8-7.49,85.56,85.56,0,0,0,6.84-7.89,19,19,0,0,0,2-.2,86.28,86.28,0,0,1-7.53,8.89c-2.51,2.55-5.24,5.3-7.63,7.3a63.55,63.55,0,0,1-6.68,5S127,47.3,130,48c1.75.42,5.24-5,5.24-5A122.92,122.92,0,0,1,142.51,33c3.74-4.27,7-6.74,10.19-6.77,1.88,0,3,2,3,2l.89-1.37H162s-10.16,17.23-11,18.53M166.21,5.24C162.38,7.7,157.08,9.92,152,9.43c-1.28,1.34-2.67,2.88-4,4.56,8.83,1.75,16.56-3.72,20.68-8.38A27.4,27.4,0,0,0,172.45.09a33.87,33.87,0,0,1-6.24,5.15M89.81,13.7H84.64l-2.92,4.73h5.17ZM65.33,30c2.2-3,8.28-13.58,8.28-13.58a.9.9,0,0,0-.81-.78c-.84,0-2.25.24-5,3.75a66.91,66.91,0,0,0-6.52,9.14c-1.73,3.14-2.48,5.37-1.5,6a1.44,1.44,0,0,0,1,.1,6.18,6.18,0,0,0,2.64-2.14c.55-.62,1.16-1.46,1.88-2.44M37.58,15.75c-1.43-1.08-5.07,1.44-5.09,4s3.28,3.41,3.71,3.43a.45.45,0,0,0,.51-.21c.39-.76.74-1.55,1-2.34.5-1.32,1.12-3.89-.2-4.9m-2.15,9.11a12.17,12.17,0,0,1-2.8-1.27,5.83,5.83,0,0,1-2-2.24c-.05-.09-.11,0-.16,0s-.34.45-2.29,3.3S23.34,33.4,26,34.4c1.73.64,4.64-2.39,6.2-4.4a48.68,48.68,0,0,0,3.27-4.91c.08-.17,0-.21-.09-.24m42.28,1.76h1.89s-9.5,13.72-14.87,13.11c-3-.35-2.11-4-2.11-4s-4.21,4.93-8.06,3.94c-3.5-.9-1.24-6.74-1.24-6.74-.4.16-8,8.71-13.31,6.66-5.58-2.13-2.68-9.29-1.62-11.44.89-1.81,1.87-3.59,1.87-3.59s-.86.25-1.39.38-1.33.28-1.33.28-2.63,4.28-4.26,6.42-8.46,9.5-12.5,8S17.73,32.49,20,28c3.69-7.28,12.42-16.22,17.67-14.87s.9,10,.9,10,1.05.13,3.58-1.59c3.66-2.49,8.46-9.18,13.67-8.39,2.44.37,4.72,2.88,1.61,7.64-1,1.53-2.67,2.9-4,1.55-.8-.84-.1-2.37.75-3.42A3.31,3.31,0,0,1,57,17.6s.86-2-1.32-1.93c-1.77,0-6.26,4.16-8.8,8.33-2.32,3.83-5.84,10.35-2.3,11.78,3.24,1.31,9.4-6,12.25-9.84s9.37-12.52,14.81-12.87a3.61,3.61,0,0,1,3,1.58l.64-1h5.44S70.48,30.81,69.66,32.1c-.63,1-1.47,3.31.86,2s7.16-7.49,7.16-7.49m-3,27.47a22.6,22.6,0,0,0-13.71-4,8.41,8.41,0,0,0-6.68,3.61c-2.08-3.63-6.2-5.86-12.56-5.81-10.27.12-20.47,4.87-28.54,4.85C5.46,52.76-.18,47.9,0,39.25.34,24.1,13.15,10.44,22.73,4.3,28.23.77,32.84-.28,35.83.06,38,.3,40.68,2.85,39,6.58c-2.43,5.49-5.82,5-5.67,2.41a4.38,4.38,0,0,1,2-3.37,4.07,4.07,0,0,1,2-.49c.49-.41.86-3.41-3.08-2.42s-8.69,4.87-13.22,9.84S9.49,27,7.75,36.93c-.81,4.61-.27,13,10.63,12.9,9.24-.07,22.89-6.15,35.42-6a24,24,0,0,1,12.4,3.39c3.25,2,7.14,4.93,8.51,6.92"/><path d="M70.38,73.06a3.86,3.86,0,0,1,.14,4.18,3.7,3.7,0,0,1-1.61,1.37,5.84,5.84,0,0,1-2.51.5H59.13V65.29h6.66a5,5,0,0,1,2.24.47A3.41,3.41,0,0,1,69.46,67a3.61,3.61,0,0,1,.08,3.49,3,3,0,0,1-1.3,1.23A3.66,3.66,0,0,1,70.38,73.06ZM61,66.94v4.3h4.63a2.38,2.38,0,0,0,1.81-.63A2.19,2.19,0,0,0,68,69.07a2,2,0,0,0-.62-1.55,2.65,2.65,0,0,0-1.85-.58Zm7.32,9.89a2.28,2.28,0,0,0,.19-3.21l-.14-.14a2.91,2.91,0,0,0-2-.61H61v4.59h5.22a3.28,3.28,0,0,0,2.12-.63Z"/><path d="M79.88,68.61v1.73a5,5,0,0,0-1.08-.12,3.71,3.71,0,0,0-2.49.82,2.88,2.88,0,0,0-1,2.29v5.78H73.5V68.65h1.75v1.63a3.44,3.44,0,0,1,1.56-1.36,5.14,5.14,0,0,1,2-.43A4.72,4.72,0,0,1,79.88,68.61Z"/><path d="M91.81,77.49V79a2.31,2.31,0,0,1-.9.16,2.59,2.59,0,0,1-1.5-.45,1.74,1.74,0,0,1-.75-1.28,4,4,0,0,1-1.72,1.4,5.81,5.81,0,0,1-2.37.48,4.89,4.89,0,0,1-2.92-.84,2.76,2.76,0,0,1-1.18-2.39,2.79,2.79,0,0,1,1.35-2.46,7.3,7.3,0,0,1,4-.9H88.6v-.13a2.28,2.28,0,0,0-.81-1.87,3.4,3.4,0,0,0-2.2-.67,5.61,5.61,0,0,0-1.77.29,4.92,4.92,0,0,0-1.53.82l-1-1.35a5.52,5.52,0,0,1,2-1.06,8.45,8.45,0,0,1,2.4-.35,5.13,5.13,0,0,1,3.46,1.09,3.73,3.73,0,0,1,1.28,3v4.22a.75.75,0,0,0,.63.85h.23A1.4,1.4,0,0,0,91.81,77.49Zm-4.46-.57a3.39,3.39,0,0,0,1.26-2.65H85.88c-2.38,0-3.57.59-3.57,1.79A1.41,1.41,0,0,0,83,77.29a3,3,0,0,0,1.76.45A4.31,4.31,0,0,0,87.35,76.92Z"/><path d="M95.5,77.28a6.39,6.39,0,0,0,2.25.4,3.64,3.64,0,0,0,1.94-.43,1.26,1.26,0,0,0,.73-1.12.93.93,0,0,0-.4-.79,2.8,2.8,0,0,0-1.16-.42l-2.78-.5a4.48,4.48,0,0,1-2.28-1,2.36,2.36,0,0,1-.75-1.78A2.71,2.71,0,0,1,93.59,70a3.44,3.44,0,0,1,1.59-1.12,6.61,6.61,0,0,1,2.41-.41,8.57,8.57,0,0,1,2.36.33,6.28,6.28,0,0,1,2.13,1.07l-1,1.37a5.34,5.34,0,0,0-1.65-.87,6.36,6.36,0,0,0-2-.32,3.52,3.52,0,0,0-1.83.41,1.21,1.21,0,0,0-.72,1.08.85.85,0,0,0,.41.75,3.65,3.65,0,0,0,1.35.45l2.59.46a4.28,4.28,0,0,1,2.28,1,2.44,2.44,0,0,1,.75,1.8,2.83,2.83,0,0,1-.57,1.73,3.72,3.72,0,0,1-1.6,1.17,6.26,6.26,0,0,1-2.38.42A9.37,9.37,0,0,1,95,78.89a6.42,6.42,0,0,1-2.29-1.15l1-1.44A6.58,6.58,0,0,0,95.5,77.28Z"/><path d="M104.79,66.75a1.14,1.14,0,0,1,0-1.63l0,0a1.3,1.3,0,0,1,1.73,0,1.15,1.15,0,0,1,0,1.63v0A1.32,1.32,0,0,1,104.79,66.75Zm-.06,1.9h1.84V79.11h-1.84Z"/><path d="M111.47,64.67v11.9a.9.9,0,0,0,.27.75,1.14,1.14,0,0,0,.75.24,2.49,2.49,0,0,0,.85-.18v1.68a3.26,3.26,0,0,1-1.2.21,2.62,2.62,0,0,1-1.83-.63,2.2,2.2,0,0,1-.68-1.69V64.67Z"/></g></g></svg>