<svg id="Camada_5" data-name="Camada 5" xmlns="http://www.w3.org/2000/svg" viewBox="0 0 1200 1232"><defs><style>.cls-1{fill:#fff;stroke:#e3212b;stroke-miterlimit:10;stroke-width:1.5px;}</style></defs><title>Prancheta 1</title><path class="cls-1" d="M730,143.12l2-.71c-.37-2,.16-3.82,3-5.18.92-.44,2.32-.51,2.44-1.52,1-7.51,1.92-14.54.56-22.1-.6-3.28-4.27-3.93-6.87-5-4-1.65-4.2-3.12-5.38-7.26-.51-1.76-1.15-3.71-2.77-4.58-1.47-.79-3.25-.43-4.91-.27A7.76,7.76,0,0,1,711.1,93,19.28,19.28,0,0,1,709,87.81c-1.93-6.44-3.62-13-5.89-19.3-2.69-7.53-1.75-16.11-2.58-24.06.74-1.35-.86-1.71-1.51-3.11-1.08-2.32-3.37-4-5-5.87-1.43-1.67-3.1-5.46-5.79-4.71-2.13.59-1.67,2.28-2,3.78-1.21,5.59-5.31,7-7.45,12.17-1.38,3.35-4,6-6.6,8.54-1.94,1.85-4,3.71-5.13,6.12-1.53,3.15-.83,5.71-2.66,8.69-2.68,4.37-5.59,8.62-7.91,13.21-2.19,4.35-4.94,9.12-8.73,12.33-5.44,4.63-9.44,2.26-14.44-1-3.58-2.36-8.62-2-12.72-2A12.57,12.57,0,0,0,617,93c-3.65,1.07-6,4.88-9.59,5.63a10.18,10.18,0,0,1-5.57-.7A23,23,0,0,1,598,96.1a38.08,38.08,0,0,0-7.66-3.25c-.48-.17-1-.31-1.46-.46.23.58.48,1.15.68,1.73,2.9,8.52-2,18.25,8.75,20.42,3.61.73,7.36-.87,11.17.19,5.34,1.47,10.44,5.83,14.15,9.78,8.13,8.67,12.91,19.88,17.19,31s8.31,22.47,15.34,32.06c2.06,2.81.88,3.79,2.36,7s3.41,6.55,6.78,6.95A10.23,10.23,0,0,0,669,201l8.14-2.12a10.91,10.91,0,0,0,4.69-2c3.25-2.93,1.93-8.3,3.51-12.38s5.84-6.34,9.77-8.26c5.87-2.88,10.42-10.14,16-13.61a22.47,22.47,0,0,0,6-4.77c2.7-3.44,3.3-8.33,6.49-11.32A18,18,0,0,1,730,143.12Z"/><path class="cls-1" d="M466.85,128.61a16.19,16.19,0,0,1-2.17.39c-5.07.59-4.62-4.91-8-6.36-1.78-.77-4-.15-5.87-1a12.08,12.08,0,0,1-4.54-4.38,5.15,5.15,0,0,0-1.12-1.33,6.81,6.81,0,0,0-1.75-.81,15.36,15.36,0,0,1-6.33-4.42c-2.93-3.45.21-9.34-1.26-13.62-1-2.86-3.19-4.43-4.6-7a21.28,21.28,0,0,1-2.44-10.88c.16-4.82-.08-9.13,1.08-13.81.63-2.57,1.26-5.14,2.07-7.65A14.9,14.9,0,0,0,433,54.46c.1-1.25-1-2-.23-3.42,1-2,3.83-2.25,5.88-3.3,1.46-.74,1.74-1.49,2.39-3a5.32,5.32,0,0,0-.26-4.73A72.87,72.87,0,0,0,432.61,28c-1.1-1.24-2.53-3-4.44-2.72-1.53.22-1.56,1.87-3.32,1.59-1.2-.19-2.5-2.19-2.43-3.33.14-2.6,3.28-4.29,4.05-6.63,0-.17,1.55-1,1.84-1.75.24-.63-.24-3-.31-3.76C427.59,7,425.55,1.09,420.11,1c-1.62,0-3.07,1-4.67,1.19-1.18.16-2.25-.29-3.45.07-3.8,1.12-4.21,4.92-4.25,8.32,0,2,.86,5-.6,6.59a5.23,5.23,0,0,1-1.64,1.09l-6.57,3.21c-2.2,1.08-2.22,2-4.23,3.38-3.31,2.31-7.71,3.27-11.47,4.66-6,2.21-17.33,10.15-23.42,5.53a33.47,33.47,0,0,0-3.47-2.72,4.06,4.06,0,0,0-4.18-.2,10.73,10.73,0,0,0-2,2.35A33.7,33.7,0,0,1,347.27,37a9,9,0,0,0-2.83,6.54,12.27,12.27,0,0,0,.23,3.73,5.59,5.59,0,0,1,.23,1.81A3,3,0,0,1,343.82,51a4.48,4.48,0,0,1-6.12-.44c-3.09-.74-5.55-3.26-7.89-5.41a8.85,8.85,0,0,0-2-1.39c-4.48-2.22-8.56-.19-13,.78a4.07,4.07,0,0,1-2.92-.08,10.3,10.3,0,0,1-1.11-.89,6.43,6.43,0,0,0-1.45-.75c-2.3-1-4.42-2.07-6.6-3-.87-.37-1.82-.51-2.68-.91-2.22-1-3.63-3.69-6.06-4a9.19,9.19,0,0,0-3.18.53c-4.28,1-6.83-1.57-10.64-1.69a1.33,1.33,0,0,0-1,.25,1.12,1.12,0,0,0-.32.83c-.06,1.44,1.14,2.58,2.25,3.51L287.75,44c1.81,1.52,2.59,3.56,4.92,4s5,.92,6.23,2.92c2.13,3.34,0,5.39-.27,8.87a14.92,14.92,0,0,0,2.81,10.08c3.1,4.14,1.95,10.32,5,14.28,2.85,3.72,9.67,5.6,14.1,5.92,3.09.21,4.73,3.41,4.25,6.13,4.08.7,8.12,1.93,11.23,4.21,1.88,1.38,2.81,3.17,5.07,4.47,2.44,1.41,5.34,1.45,7.32,3.74s1.93,5.7,1.14,8.61c-1.49,5.44,1.11,7.25,2.93,12.38s2.15,10.7,2.49,16.09c.33,5.07-.37,11.68,1.79,16.3,2,4.29,4.65,8.79,5.12,13.59.63,6.41-2.64,8.84-5.52,13.81-4,6.93,4.25,12.5,9.33,15.56,3.37,2,7.19,3,9.85,5.88s4.35,6.14,8.78,6.34a4.23,4.23,0,0,0,3.75-1.68,5.06,5.06,0,0,0,.09-4.6c-2.47-6.17-2.78-11.81-1.85-18.56s9-9.84,14.69-6.87c5,2.61,11.5,10.5,17.3,5.52,3.46-3,1.6-7.81,2.63-11.67.56-2.12,2.07-3.73,2.89-5.72.89-2.16.78-4.76,2.14-6.72a25.45,25.45,0,0,1,2.32-2.44c2.68-3,3.38-4.29,7.91-5.28,4.14-.92,8.9.15,13.15.13a59.17,59.17,0,0,1,6.92,0c2.7.32,4.68,1.83,7.16,0,2.07-1.5,2.42-4.27,2.42-6.56a166.38,166.38,0,0,1,.58-18.78C466.6,132.17,466.74,130.39,466.85,128.61Z"/><path class="cls-1" d="M227.57,476.52a108,108,0,0,0-14.31-8c-6-2.59-13.18-4-18.32-8.18s-8.69-5.84-15.38-8.18c-13.28-4.66-26.35-10.21-37.84-18.45-7.31-5.24-14-11.14-22.82-13.77-8-2.4-17.05-1.58-25.3-4-16-4.73-36.66-8.38-50.39-18.35-6.43-4.67-14.93-7.47-22.48-10.08L9.28,383.51A18.57,18.57,0,0,0,8,388.9c-.4,5,3,7.16-1.27,11.49C4.46,402.71-2,407.92.67,411.78,5.64,419,15.56,422,18,430.84c1,3.5,4.39,5.48,6.38,8.34,2.48,3.56,7.7,10.39,5.82,15.15-1.17,3-9.28,7.38-1.75,9.08,4.39,1,8.91.18,13.35.51,3.92.29,9.82,1.88,10.76,6.32.64,3.06.73,6.29,2.89,8.78,4.69,5.42,13.21,4.57,19.59,4.19,2.81-.17,5,0,7.36-1.65,5.11-3.43,10-7.12,15.06-10.66,1.73-1.22,3.66-3.24,5.6-4.09,7.72-3.39.94,18.37.42,20.45A22.92,22.92,0,0,0,103,496a48.86,48.86,0,0,1,.9,9.34c-.13,2.31-1.34,5.34.38,7.35a5.48,5.48,0,0,0,3,1.51c2.18.53,5.49,1.35,7.71.74,2.83-.77,5-2.07,7.92-2.61a68.49,68.49,0,0,1,9.9-1c5.49-.21,11-.23,16.42,1.09a38.29,38.29,0,0,1,12.06,5.69c4.37,3,5.72,0,9.23-3.15,4.34-3.91,7.78-8.56,13.21-11.05,4.34-2,9.28-1,13.34-3.65s7.8-6.23,12.06-8.84c2.07-1.26,4.36-1.65,6-2.9,4.15-3.13,8-6.73,12.42-9.46.64-.4,1.3-.75,2-1.08A16.77,16.77,0,0,0,227.57,476.52Z"/><path class="cls-1" d="M715.54,530.45l2.34-14.59c1.34-8.45,1.1-20.31,4.38-28.17,1.59-3.8,13.76-10.44,8.94-15.85-2.52-2.83-8.87,0-11.77.51-4.52.84-8.18.53-13,.23q-13.26-.82-26.53-1.61c-4.57-.27-8.81-1.66-13.44-1.66-5.06,0-10.06,1-15.13.57-4.34-.34-8.31-1.74-12.59-2.21a252.31,252.31,0,0,0-37.88-1.49c-16.19.73-34.84.17-50.75-2.91-8.43-1.64-13.57-2.69-20.44-8-5.11-3.95-10.49-7.54-15.81-11.22a23,23,0,0,0-2.8-1.74c-.84-.41-1.73-.72-2.54-1.18-6.49-3.72-4.31-11.83-5.93-17.75-2.19-8-7.05-15.08-8.79-23.29-1.17-5.53-3.9-11-9-4.25-5.44,7.17-3,22.77-2.43,31.1.16,2.63.33,5.25.49,7.88.2,3.15-.07,7.1-3,8.31a7.82,7.82,0,0,1-2.93.4l-12.31.05c-3.65,0-7-1.15-10.71-1.44a267.55,267.55,0,0,0-30.51-.67c-5.37.19-8.93,2.26-13.84,3.12-5.62,1-21.11-8.22-23.66.55-1.55,5.31.46,14.5.68,20.1.3,7.42,1,14.89-.57,22.24-1,5-3.82,12.35-2,17.58,2.8,8.07,11.22,4.2,17.54,4.21a21.23,21.23,0,0,1,4.85.37c3.7.85,12.19,4.39,15.77,2.66,2.38-1.15,5.12.4,7.3,1.89,5.28,3.63-1.63,13.49-2.34,17.94s0,6.3,3,9.4c3.16,3.3,8.19,8.92,7,14-.35,1.48-3.39,4.85-4.25,6.49-3.4,6.49-5.62,12.06-11.2,16.8C418,582,415.2,586,412.49,590c-1.5,2.21-3,4.43-4.44,6.68.56.29,1.11.57,1.68.92a12.58,12.58,0,0,1,6,7.75c.88,4,.29,5.17-.95,8.7-1.11,3.14-.77,6.52,1.85,8.78,3,2.57,5,3.82,5.27,8.48a34.17,34.17,0,0,1,.1,5.35c-.25,2.15-1.35,3-2.11,4.72-1.47,3.39-1.39,8.37-.66,11.94s.45,7,1.1,10.44c.75,4,1.61,8.21,3.79,11.68,4.05,6.43,14.92,4,21.35,4.16,5,.1,10.58,2.19,15.48,1,3.34-.81,6.49-.44,9.86-.28,1.93.08,4.22.11,5.83,1.36,3.17,2.46-1,7.67-1.11,10.6s.64,5.95.79,8.94c.19,3.68,2.63,6.72,5.28,9.06,1.1,1,2.53,1.53,3.6,2.51,1.28,1.15,2,2.79,3.36,3.8,3.32,2.43,7.61,1.31,9.27,6a7.29,7.29,0,0,1,.42,2.49,29.28,29.28,0,0,1,5.5-1.43c4.63-.77,9.07.17,13.27-1.65,3.37-1.47,6.64-7.06,9.63-7.92,2.27-.66,4-2.44,5.91-3.84,3.62-2.67,8-4,12.33-5.29a11.19,11.19,0,0,1,9.72.5l4.91,2c6,2.42,11.61,6,17.42,8.8l3.6,1.74c5.64,2.73,13.63,1.84,19.79,1.73,3.91-.07,8.87-2.16,11-5.51,2-3.11,4.86-5.76,7.32-8.58,3.69-4.26,6.95-1.21,6.38,3.91-.61,5.38-5.51,10.14-4.73,15.71.83,5.9,6.4,6.28,11.47,4.54,9.4-3.23,3.69-15.58,6.9-23.21,3.5-8.31,11.42-13.41,14.78-21.27,3.49-8.19,6.38-14.48,14.14-19,10-5.76,13.34-15.64,21.3-23,7.51-6.94,15.27-14.06,17.15-24.62,2.31-13,7.29-25.39,9.49-38.43,2-12.21-1.8-24.27-1.47-36.49A102.3,102.3,0,0,1,715.54,530.45Z"/><path class="cls-1" d="M740.62,1098.91a19.68,19.68,0,0,1,3.08-5c-2.3-2.69-4.54-5.42-6.79-8.14-4.56-5.52-4.55-10.26-.32-16.06,18.91-25.91-18.38-11.22-27.67-24.12-3.84-5.34-6.28-8.4-12.4-11.91-12.19-7-25.75-11.21-39.12-15.32-8.62-2.65-17.65-5.33-26.52-3.7-2.32.43-4.74,1.12-7.13,1.62-.76,5-2,9.33-3.78,11a9.72,9.72,0,0,1-4.06,1.77c-10.24,2.77-19.18,7.67-28.28,12.76l-5.21,2.92a12.33,12.33,0,0,0-3.16,2.22c-6.36,6.85-11.71,10.28-19.19,15.5a17.67,17.67,0,0,1-3.68,2.16c-2.17.84-4.62.81-6.71,1.82-4.39,2.1-4.13,6.27-6.14,9.93-1.8,3.28-5.47,6.9-7.84,9.79a54.05,54.05,0,0,1-8.84,8c-2.13,1.55-5.11,2.11-7.09,3.76-3.3,2.75-5.93,7.06-8.92,10.24-2.39,2.55-13.43,11.58-9,16.2,2.81,2.92,14.08-8.39,18.84-8.11,5.66.33,11.68,5.09,15.58,8.7,3.7,3.43,11.36,5,13.41,10,1.88,4.58-3.1,9.15,2.79,11.65,2.92,1.24,6.3-.11,8.63-2,2-1.64,3.82-5,6.93-4.5,6.6,1.05,4.65,8.4,7.93,12.27a7.69,7.69,0,0,0,5.56,3.69c3.45.69,6,1,8.67,3.1a104,104,0,0,1,9,7.34c1,4,3.7,4.82,7.59,6.32l7.3,2.83c3.92,1.51,4.22,5.43,7.12,8.47,4.26,4.46,7.44,4.49,11.77,8.89a10.84,10.84,0,0,1,6.25,3.67c1.65,1.84,2.11,4.92.46,6.77-1.41,1.58-3.8,1.83-5.52,3.08s-2.69,3.7-3.41,5.9c-1.24,3.78-5.21,13.08-1.57,16.66,4.4,4.34,14.87-1.11,17.79-5.13,1.54-2.12,2.09-5.33,3.36-7.67,2.44-4.48,6.07-6.41,9.13-10.07,1.71-2,1.49-5,1.18-7.64-1.22-10.38,14.88-13.1,18.74-20.15,1.16-2.13,1.92-4.51,3.47-6.37,2.32-2.78,5.84-3.92,8.93-5.57,4.19-2.24,7-5.83,10.72-8.66l9.47-7.25c3.58-2.73,3.06-8.23,6.47-11.16,1.25-1.07,2.9-1.53,4.2-2.54,1.88-1.45,1.88-3.17,2.72-5.08.74-1.67,2.3-3.12,2.77-4.9.56-2.09-.6-4.4,1-6.33,1.2-1.46,3-2.28,4.36-3.6C738.39,1112.19,738.21,1104.86,740.62,1098.91Z"/><path class="cls-1" d="M617.59,979.24c2.35,3,5.55,7.66,4.95,7.87A23.75,23.75,0,0,1,638.2,986c7.43,1.35,14.76,3.18,22.18,4.56,6.18,1.15,13.64.67,19.84-.32,4.28-.69,10.27-1.43,14.15-3.45,4.8-2.51,9.08-5.75,13.94-8.18,3.92-2,8.08-1.72,12.31-2.5,3.3-.61,6.28-1.84,9.66-1.92,3.72-.09,6.36,1.35,9.6,3.08a46.46,46.46,0,0,0,20.24,5.24,36.26,36.26,0,0,0,9.54-.57c5.5-1.32,10.19-2.87,14.91-3.42a22.19,22.19,0,0,1,4.29-5.37c4.59-4,8.1-9.13,11.35-14.3-2.66-3.55-6-6.67-9.84-8.2-4.08-1.64-6.29-1.51-9.69-4.75-2.21-2.11-3.72-4.83-6.77-5.93-4-1.44-8.72,1.6-12.75.16-5.47-2-7.58-17.7-9.57-22.53-2.28-5.53-4.74-10-5.18-16.21s-5.61-10.22-9.62-14.75c-2.79-3.16-6-2.83-9.77-3.8-4.67-1.22-9.3-3.48-13.82-5.18a40.94,40.94,0,0,0-5.11-1.83l-5.91-1.28c-3.46-.74-6.92,0-10.41.11-3.71.17-7.43.15-11.11.68l-1.75.26a49,49,0,0,0-7.91,1.83,27.12,27.12,0,0,1-2.94.79,25.74,25.74,0,0,1-4.12.35c-3.53.11-7.14-.3-10.34,1.31a37.21,37.21,0,0,1-3.67,1.58c-3.64,1.32-7.88,1-11.68.48-2.08-.29-4.16-.08-6.27-.31a75.59,75.59,0,0,0-9.52-.12c-1.38,0-2.76,0-4.12.07a2.15,2.15,0,0,0-1.91,1.09c-2.34,2.89-3.25,6.68-4.68,10-3.92,9.16-7.22,18.88-14,26.43-.44.49-.88,1-1.29,1.49.77.64,1.52,1.34,2.32,1.91,4.15,2.95,4.84,6.37,4.7,11.08a2.67,2.67,0,0,1-.13.89,2.63,2.63,0,0,1-1,1l-3.07,2.2a5.95,5.95,0,0,0-3.19,6.36,12.71,12.71,0,0,0,.36,3.48c.83,2.8,2.36,4.5,1.36,7.34-1.19,3.34-2.84,5.75-2.82,9.51,0,6.47,7.34,9.12,12.47,10.7,2.53.78,5.68.62,8,1.8A12.09,12.09,0,0,1,617.59,979.24Z"/><path class="cls-1" d="M780.31,1032.25c-1.25-1-1.57-2.82-1.72-4.44a46.6,46.6,0,0,1,.63-11.79c.61-3.85.57-4.6-2.72-6-7-3-1.27-7.64,1.69-11.57,2.42-3.21,5.12-7.55,4.28-11.74-.48-2.43.54-5.43,2.1-8.12-4.72.55-9.41,2.1-14.91,3.42a36.26,36.26,0,0,1-9.54.57,46.46,46.46,0,0,1-20.24-5.24c-3.24-1.73-5.88-3.17-9.6-3.08-3.38.08-6.36,1.31-9.66,1.92-4.23.78-8.39.54-12.31,2.5-4.86,2.43-9.14,5.67-13.94,8.18-3.88,2-9.87,2.76-14.15,3.45-6.2,1-13.66,1.47-19.84.32-7.42-1.38-14.75-3.21-22.18-4.56a23.71,23.71,0,0,0-15.58,1,36.34,36.34,0,0,1,2.11,9.58,101.72,101.72,0,0,1-1,19.65v0c2.39-.5,4.81-1.19,7.13-1.62,8.87-1.63,17.9,1.05,26.52,3.7,13.37,4.11,26.93,8.32,39.12,15.32,6.12,3.51,8.56,6.57,12.4,11.91,9.29,12.9,46.58-1.79,27.67,24.12-4.23,5.8-4.24,10.54.32,16.06,2.25,2.72,4.49,5.45,6.79,8.14h0c2.74-3.38,6.2-6.25,8.53-10.29a8.4,8.4,0,0,1,1.77-2.42,14.62,14.62,0,0,1,3.24-1.47c2.82-1.27,10.76-8.32,12.44-10.89,1.8-2.77,2.67-6.87,5.91-7.51s6.66-21.58,7-24.39a4.3,4.3,0,0,0-.49-3.3A12.13,12.13,0,0,0,780.31,1032.25Z"/><path class="cls-1" d="M597.77,919.18c6.76-7.55,10.06-17.27,14-26.43,1.09-2.55,2.26-6.44,4-9.16,2.93-4.44,5.24-6,10-8.63,3.34-1.82,4.72-5.56,8.94-5.86,1.72-.12,3.43.32,5.16.36,3.52.07,6.84-1.57,9.92-3.3,9-5.07,10.25-15.3,17.36-21.81,1.79-1.63,4.33-2.05,6.2-3.77,5.34-4.94,6-16.81,8.32-23.44.84-2.47,1.41-4.48,3.62-5.74s3.86-.37,6-2.95c4-4.85,10.32-7.43,12-14.11,1.67-6.52,1.62-15.41-2.72-20.93-4.66-5.93-13.48-9.45-20.48-11.54-9.3-2.78-25-5.52-32.25-12.48-3.93-3.76-7.14-9.83-10.59-14.13-1-1.22-1.78-3.92-2.44-7.39a8.09,8.09,0,0,1-3.06,1.82c-5.07,1.74-10.64,1.36-11.47-4.54-.78-5.57,4.12-10.33,4.73-15.71.57-5.12-2.69-8.17-6.38-3.91-2.46,2.82-5.33,5.47-7.32,8.58-1.56,2.44-2.59,3.79-5.39,4.26a76,76,0,0,1-9.85,1.37c-6.15.23-13.87-.35-19.38-3.36s-11.22-6.63-17.19-9l-4.91-2a11.19,11.19,0,0,0-9.72-.5c-4.31,1.29-8.71,2.62-12.33,5.29-1.91,1.4-3.64,3.18-5.91,3.84-3,.86-6.26,6.45-9.63,7.92-4.2,1.82-8.64.88-13.27,1.65a29.28,29.28,0,0,0-5.5,1.43,16.68,16.68,0,0,0,.17,3c.6,3.25,3,5.43,4.35,8.3,2,4.27,2.82,10.06.85,14.41-2.32,5.14-.95,14.76-6.33,18.08-6.68,4.11-6.68,10.75-5.6,17.57l.39,2.45a23.79,23.79,0,0,1,.48,7.28c-.37,2.35-1.93,4-2.43,6.17-1.28,5.51,1.23,11.65,3.43,16.62,2.47,5.59,1.35,12.14.73,18.18-.25,2.44.17,4.42-1.23,6.32-2.81,3.79-5.44,6.93-4.82,12.17.4,3.47,3.08,9.65,6.87,10.41,6,1.2,12.07.75,18,1.7,1.9.3,3.68,1,5.55,1.37s3.64-.37,5.5-.11c5.31.73,9.52-2.07,14.71-1.69a15.16,15.16,0,0,1,3.07.52c3.24.92,6.37,1.9,9.65,2.79s6.26,2.27,7.35,5.84c2.31,7.47,4.69,15,6.05,22.68.73,4.12.65,8.33,1.38,12.45.55,3.11.58,7.94,3.51,9.79a15.48,15.48,0,0,0,9.28,2.47c4.46-.1,8.18-3.25,12.4-4.71,1.94-.68,3.47.33,5,1.57C596.89,920.16,597.33,919.67,597.77,919.18Z"/><path class="cls-1" d="M851,610.38c-5.44-5.28-3.19-16.37-2.94-23.41.2-5.76,4.57-8.75,3.28-14.48-.43-1.89-1.08-4-2.87-4.79s-4,.48-5.66,1.69c-3.48,2.55-6.38,5.88-10.36,7.54-4.74,2-9.83,1.94-14.72,3.3-3.54,1-6.74,2.91-10.4,3.51-6,1-11.71-1.72-17.42-3.15a37.1,37.1,0,0,1-15-8.05c-2.45-2.13-5.86-2.74-9.1-2.94s-7.12.2-9,2.91c-1.28,1.82-1.64,4.6-3.75,5.34a4.89,4.89,0,0,1-3.63-.59c-4.52-2.22-8-6-11.39-9.75-1.75-1.92-2.68-6-4.61-7.28s-7.88-.72-10.12-.14c-2.71.7-5.17,2.87-7.55,4.87a58.57,58.57,0,0,1-.21,15.25c-2.2,13-7.18,25.41-9.49,38.43-1.88,10.56-9.64,17.68-17.15,24.62-8,7.35-11.35,17.23-21.3,23-7.76,4.48-10.65,10.77-14.14,19-3.36,7.86-11.28,13-14.78,21.27-2.77,6.58,1.08,16.66-3.84,21.39.66,3.47,1.45,6.17,2.44,7.39,3.45,4.3,6.66,10.37,10.59,14.13,7.27,7,22.95,9.7,32.25,12.48,7,2.09,15.82,5.61,20.48,11.54a13.25,13.25,0,0,1,1.53,2.51c2.23-1.73,4.54-3.35,6.91-4.86,6.57-4.18,12.53-9,19-13.34,6.62-4.4,14.34-6.83,21.87-9.15L773,741.43a23.6,23.6,0,0,1,5.17-1.17c6.2-.43,13,5.39,19,3.64,5.56-1.63,12-10,16-14,2.37-2.38,4.86-5.52,3.92-8.76-1.3-4.51-7.79-5.7-4.3-11.24,1.07-1.69,2.66-3,3.9-4.57a14,14,0,0,0,3-9.64c-.33-4.66-3.08-8.63-3.84-13.17-.69-4.06,1.21-7.4,3.3-10.89,2.61-4.36,7.2-2.55,9.92-5.71,2.61-3,1.1-8.16.32-11.59-1.56-6.79-4.25-16.28,2.38-21.69,2.89-2.36,10-2.21,13.36-1.2,3.16.94,6.33,5.7,9.1,1.09a11.14,11.14,0,0,0,1.2-4.66C856.13,621,856.43,615.66,851,610.38Z"/><path class="cls-1" d="M823.48,662.57a40.83,40.83,0,0,0,1.53-9.12c.25-2.34-.61-3.83-4.28-5.72s-14.55-1.18-18.34-.57c-3.37.54-11.45-.8-13.75,1.54-.57.58-1.71,4-1.91,4.78-.9,3.31-.7,6.74-.49,10.13a7.87,7.87,0,0,0,.39,2.35c1,2.61,4.67,3.87,8,4.08,6.52.42,12.5-.09,19-.48,1.37-.08,5.09-.15,6.3-.69C824.15,667,822.63,665.64,823.48,662.57Z"/><path class="cls-1" d="M430.1,541.52c-3-3.1-3.66-5.09-3-9.4s7.62-14.31,2.34-17.94c-2.18-1.49-4.92-3-7.3-1.89-3.58,1.73-12.07-1.81-15.77-2.66a21.23,21.23,0,0,0-4.85-.37c-6.32,0-14.74,3.86-17.54-4.21-1.81-5.23,1-12.61,2-17.58,1.52-7.35.87-14.82.57-22.24-.22-5.6-2.23-14.79-.68-20.1a5.23,5.23,0,0,1,.57-1.31L383,440.63c-2-1.87-3.73-4.62-6.4-5.6a7.85,7.85,0,0,0-5.24-.06c-2.86,1-5.29,3.35-8.33,1.89-2.83-1.35-5.19-5.8-7.22-8.11a66.31,66.31,0,0,0-12.53-11.49c-3.9-2.56-9.08-2.18-13.62-1a20.73,20.73,0,0,0-9.22,5.14c-8.14,7.85-8.2,23.86-21.11,26.53-4.09.85-7.88,1.66-12.05,1.05s-8.32-1.29-12.67.29c-2.66,1-5,2.67-7.51,4-3.78,2-8,3-12.08,4.14-6.42,1.74-13.15,2.46-19.21,5.37-2.77,1.33-4.47,3.92-7.19,5.08a17.8,17.8,0,0,0-6.79,5.2c1.92,1.14,3.82,2.32,5.7,3.51a16.77,16.77,0,0,1,2,1.48c4.07-2,8.57-2.81,13.06-3.43,5.24-.74,14.14-2.52,19.74-.78,7.8,2.43,4.79,6.09,3.57,13.31-1,6.15.8,11.78.32,17.75s-1,14.26.66,20.16c1,3.44,3.58,5.82,5,9s2.49,7.63,5,10a127.72,127.72,0,0,0,12.91,10.88c4.26,3.13,7.3,7.17,13.22,6.44,3.69-.46,10.87-2.21,14.2-.47a125.08,125.08,0,0,0,16.23,6.6,70.06,70.06,0,0,1,14.8,7.81c2.56,1.77,4.1,3.65,7,5.21,3.69,2,6.42,5.56,10,7.4s7.9,2.48,11.95,3.19c3.39.59,6.41,2.16,9.79,2.54,7.6.87,14.25-.45,21.15,3,1.45-2.25,2.94-4.47,4.44-6.68,2.71-4,5.49-8,9.16-11.12,5.58-4.74,7.8-10.31,11.2-16.8.86-1.64,3.9-5,4.25-6.49C438.29,550.44,433.26,544.82,430.1,541.52Z"/><path class="cls-1" d="M9.28,383.51l11.45,3.95c7.55,2.61,16.05,5.41,22.48,10.08,13.73,10,34.34,13.62,50.39,18.35,8.25,2.44,17.28,1.62,25.3,4,8.85,2.63,15.51,8.53,22.82,13.77,11.49,8.24,24.56,13.79,37.84,18.45,6.69,2.34,10.26,4,15.38,8.18s12.36,5.59,18.32,8.18a77.51,77.51,0,0,1,8.61,4.52,17.8,17.8,0,0,1,6.79-5.2c2.72-1.16,4.42-3.75,7.19-5.08,6.06-2.91,12.79-3.63,19.21-5.37,4.12-1.12,8.3-2.18,12.08-4.14,2.52-1.31,4.85-3,7.51-4,4.35-1.58,8.35-.92,12.67-.29s8-.2,12.05-1.05c12.91-2.67,13-18.68,21.11-26.53a20.73,20.73,0,0,1,9.22-5.14c4.54-1.15,9.72-1.53,13.62,1a66.31,66.31,0,0,1,12.53,11.49c2,2.31,4.39,6.76,7.22,8.11,3,1.46,5.47-.91,8.33-1.89a7.85,7.85,0,0,1,5.24.06c2.67,1,4.4,3.73,6.4,5.6l3.44,3.19a5.23,5.23,0,0,0-.57,1.31c2.55-8.77,18,.43,23.66-.55,4.91-.86,8.47-2.93,13.84-3.12a267.55,267.55,0,0,1,30.51.67c3.67.29,7.06,1.46,10.7,1.44l12.32-.05a7.82,7.82,0,0,0,2.93-.4c2.91-1.21,3.18-5.16,3-8.31-.16-2.63-.33-5.25-.49-7.88-.53-8.33-3-23.93,2.43-31.1,0-.07.1-.12.15-.18l-2.88-7.4c-1.3-3.35-2.62-6.75-2.92-10.33-.26-2.95.27-6.11,2.21-8.33a33,33,0,0,1,3.21-2.8c2.71-2.37,4.48-5.6,6.2-8.77,11.7-21.59,19.41-44.84,27.09-68.17a38.37,38.37,0,0,1,4.07-9.43c2-3,4.77-5.35,7-8.12s3.74-9.3,6-12.31c6.16-8.41,8.77-14.82,16.76-21.7,2.25-1.94,4.67-4.2,4.9-7.16a5.82,5.82,0,0,0-3.1-5.53c-5.29-2.68-13.76,4.79-19.23,5.54-6,.83-11.19-3.72-16.46-6.29-6.92-3.39-19.52-6.29-20.84-15.44A13,13,0,0,0,487.8,199c-15.1-4.23-20.16-22.73-24.92-39.38-2.24,1.24-4.13-.05-6.63-.34a59.17,59.17,0,0,0-6.92,0c-4.25,0-9-1.05-13.15-.13-4.53,1-5.23,2.3-7.91,5.28a25.45,25.45,0,0,0-2.32,2.44c-1.36,2-1.25,4.56-2.14,6.72-.82,2-2.33,3.6-2.89,5.72-1,3.86.83,8.7-2.63,11.67-5.8,5-12.34-2.91-17.3-5.52-5.65-3-13.78.23-14.69,6.87s-.62,12.39,1.85,18.56a5.06,5.06,0,0,1-.09,4.6,4.23,4.23,0,0,1-3.75,1.68c-4.43-.2-6.21-3.54-8.78-6.34s-6.48-3.85-9.85-5.88c-5.08-3.06-13.35-8.63-9.33-15.56,2.88-5,6.15-7.4,5.52-13.81-.47-4.8-3.11-9.3-5.12-13.59-2.16-4.62-1.46-11.23-1.79-16.3-.34-5.39-.67-11-2.49-16.09s-4.42-6.94-2.93-12.38c.79-2.91.83-6.33-1.14-8.61s-4.88-2.33-7.32-3.74c-2.26-1.3-3.19-3.09-5.07-4.47-3.11-2.28-7.15-3.51-11.23-4.21a4.43,4.43,0,0,1-2.31,3.23c-1.67.87-3.63,1-5.39,1.7a76.26,76.26,0,0,1-8.54,3.08c-1.78.45-4.36.8-5.79,2.06-1.75,1.52-1.61,3.76-2,5.87a17.32,17.32,0,0,1-4,8.61c-4.26,4.73-10.61,3.6-15.4,7.05-2.68,1.92-5.83,2.92-8.66,4.64-3,1.84-5.89,4-9.35,4.94-4.93,1.31-9.64-3.46-13.89-.49-1.86,1.31-2.69,3.22-4.89,4.36-7.37,3.82-18.88-1.36-26-3.91-1.71-.61-2.94-2.84-4.27-4.07-4.22-3.89-2-11.57-2.93-16.58-.53-2.84-2.36-3.24-4.75-4.75a6.84,6.84,0,0,1-1.82-1.47c-2.65-3.39-.48-9.88-3.58-12.58-2.83-2.46-4.11,1.07-5.31,2.59-.77,1-2.61,1.8-3.59,2.7a13.3,13.3,0,0,1-3.63,2.12,51.15,51.15,0,0,0-7.14,4c-10,6.44-24.2,1.31-35.27,2.15-4.31.33-21.37-4.44-20.79,3.91a9.36,9.36,0,0,0,.94,3,17.81,17.81,0,0,1,1.72,6.34c0,1.51-1.26,4.13-.21,5.38,2,2.4,10.57,0,13.41.27,3.67.41,5.79,3.07,6.53,6.52,1,4.51,1.28,8.06-2.6,11-.92.68-2.27.2-3.1-.58s-1.4-1.83-2.28-2.57c-3.77-3.15-8.73,0-12.4,1.55-4.12,1.68-5.47,4-7,8.37-.64,1.81-1.29,3.81-.6,5.59,2.28,5.88.6,12.5,3.76,18,1.61,2.77,5.32,2.39,7.19,5,4.48,6.21,8.5,10.87,10.52,18.36,1.54,5.7,3,11.82,1.2,17.65-1.38,4.49-4.81,8.71-7.3,12.63a22.49,22.49,0,0,0-3.37,9.53c-.38,3.37,2.57,5.67,2.16,9.09-.52,4.34-.88,9-2.36,13.22-2,5.75-4.82,11.5-5.21,17.67-.35,5.47,0,10.9-1.48,16.31-.45,1.65-1,5.35-2.31,6.38a4.58,4.58,0,0,1-2.5.73,8.11,8.11,0,0,1-3.92-.41c-3.77-1.68-2.8-5.92-7.72-5.55-5.18.39-10.57,2.37-15.49,3.95-7.41,2.37-14.69,4.87-22.25,6.24a22.67,22.67,0,0,0-13.25,7.68c-3,3.62-10.24,3.33-14.12,6-1.35.94-3.43,2-4.37,3.38-1.93,2.76-5.75,6.43-6.72,9.64-1.29,4.22.68,7.7-2.3,11.28s-7.95,7-7.73,12.23c.15,3.66,2.08,7,2.21,10.61.26,7.34-4.51,4.05-8.76,6.17-3.73,1.86-6.22,5.79-7.25,10.07A18,18,0,0,1,9.28,383.51Z"/><path class="cls-1" d="M908.64,878.82c6.06-7.13-5.65-6.07-8.63-7.77-4.23-2.41-6.09-5.12-11-2.73-3.06,1.5-7.07,2.23-10.43,2.81a27.16,27.16,0,0,0-4.72,1.48c-5.14,1.64-9.48,2.89-13.74,6-3.75,2.78-9.33,4-13.61,1.14-4.92-2.56-5.62-8.21-9-12.26a11.26,11.26,0,0,1-2.55-6.36,21,21,0,0,1,.28-7.5,77.15,77.15,0,0,1,3.75-9.83,16.48,16.48,0,0,0,1.59-5,5.55,5.55,0,0,0-1.68-4.81c-1.51-1.26-3.66-1.27-5.63-1.23-4.81.11-12.19.06-12.28-6.94-.05-3.48,2.7-7.54,3.1-11.19.25-2.27.13-4.87-1.55-6.42s-4.38-1.71-5.39-3.67a5.86,5.86,0,0,1-.48-2c-.29-2.5-.58-5-.88-7.49a7.38,7.38,0,0,0-.83-3.11c-1.28-2.1-4.16-2.43-6.61-2.34a46.44,46.44,0,0,0-14.24,2.77c-4.26,1.55-8.28,4.08-12.54,2.54-2.54-.92-5.47,1-7.95,1.57-2.79.6-5.55,1.54-8.32,2.12-3.37.71-5.7-.44-8.54-2.23a68.31,68.31,0,0,0-10.51-5.17c-4.8-2-7.94-6.21-12.65-8.17-4.12-1.73-8.83-.44-13.11.86-3.63,1.11-6.05,1.84-8.78,4.41s-4.88,5.81-8,7.95a13.9,13.9,0,0,1-1.66,1c-2.55,4.63-7.52,7.13-10.84,11.19-2.09,2.58-3.69,1.67-6,2.95s-2.78,3.27-3.62,5.74c-2.28,6.63-3,18.5-8.32,23.44-1.87,1.72-4.41,2.14-6.2,3.77-7.11,6.51-8.37,16.74-17.36,21.81-3.08,1.73-6.4,3.37-9.92,3.3-1.73,0-3.44-.48-5.16-.36-4.22.3-5.6,4-8.94,5.86-4.6,2.52-6.91,4.13-9.74,8.31.14-.18.26-.38.41-.56a2.15,2.15,0,0,1,1.91-1.09c1.36-.07,2.74,0,4.12-.07a75.59,75.59,0,0,1,9.52.12c2.11.23,4.19,0,6.27.31,3.8.53,8,.84,11.68-.48a37.21,37.21,0,0,0,3.67-1.58c3.2-1.61,6.81-1.2,10.34-1.31a25.74,25.74,0,0,0,4.12-.35,27.12,27.12,0,0,0,2.94-.79,49,49,0,0,1,7.91-1.83l1.75-.26c3.68-.53,7.4-.51,11.11-.68,3.49-.15,7-.85,10.41-.11l5.91,1.28a40.94,40.94,0,0,1,5.11,1.83c4.52,1.7,9.15,4,13.82,5.18,3.73,1,7,.64,9.77,3.8,4,4.53,9.18,8.42,9.62,14.75s2.9,10.68,5.18,16.21c2,4.83,4.1,20.56,9.57,22.53,4,1.44,8.73-1.6,12.75-.16,3.05,1.1,4.56,3.82,6.77,5.93,3.4,3.24,5.61,3.11,9.69,4.75,3.8,1.53,7.18,4.65,9.84,8.2-1.55,2.46-3.17,4.91-4.93,7.24,2.48-3.28,4.67-6.81,6.81-10.27,1.83-3,5.08-3.14,8.15-3.75,3.83-.77,7.09-3.19,9.8-5.91,1.26-1.26,1.58-2.72,2.53-4.2a35.84,35.84,0,0,1,4.49-5.5A54.48,54.48,0,0,1,840,926.81c3.56-2,7.92-4.55,11.92-5.36,5.67-1.14,13,1.88,18.17.32,6.6-2,10-8.94,14.6-13.28a16.72,16.72,0,0,1,5.29-3.22c0-.13,0-.25-.06-.38-1.16-5.32-2.07-11,1.69-15.57,1.71-2.08,2.82-4,5.45-4.87,2.08-.73,4.48-.19,6.46-1.33A19.6,19.6,0,0,0,908.64,878.82Z"/><path class="cls-1" d="M1039,667.56a14.34,14.34,0,0,0-5.63-4.94,44.94,44.94,0,0,0-18-5.57c-5.71-.51-10.63,1-15.95-1.54-5.74-2.74-4.25-5.55-7-10.48-3.88-7-11.74-8-18.89-8.54a29.67,29.67,0,0,1-15.85-5.8c-4.92-3.55-12.4-6.39-18.53-5.22-4.38.84-15,3.76-18.1-1.15-2.4-3.85,1.3-9.69-2.76-13.42-1.47-1.36-3.65-1.54-5.65-1.65-4.51-.24-9.53-.32-12.94,2.66-1.53,1.34-2.55,3.17-3.83,4.76a29.8,29.8,0,0,1-9.9,7.89,46,46,0,0,0-12.12,9.65,11.84,11.84,0,0,1-3.39,2.93,10.67,10.67,0,0,1-5,.79,54.29,54.29,0,0,1-6.86-.61c-1.27-.2-2.79-.17-3.81-1.06a8.05,8.05,0,0,0-3.5-2,8.45,8.45,0,0,1-2.71-.84,15.1,15.1,0,0,0-3.51-1.95c-3.39-1-10.47-1.16-13.36,1.2-6.63,5.41-3.94,14.9-2.38,21.69.78,3.43,2.29,8.59-.32,11.59-2.72,3.16-7.31,1.35-9.92,5.71-2.09,3.49-4,6.83-3.3,10.89.76,4.54,3.51,8.51,3.84,13.17a14,14,0,0,1-3,9.64c-1.24,1.57-2.83,2.88-3.9,4.57-3.49,5.54,3,6.73,4.3,11.24.94,3.24-1.55,6.38-3.92,8.76-4,4-10.49,12.37-16,14-6,1.75-12.75-4.07-19-3.64a23.6,23.6,0,0,0-5.17,1.17l-23.14,7.14c-7.53,2.32-15.25,4.75-21.87,9.15-6.45,4.29-12.41,9.16-19,13.34q-3.56,2.27-6.89,4.85c2.75,5.46,2.61,12.82,1.17,18.43a12.51,12.51,0,0,1-1.2,2.92,13.9,13.9,0,0,0,1.66-1c3.08-2.14,5.25-5.4,8-7.95s5.15-3.3,8.78-4.41c4.28-1.3,9-2.59,13.11-.86,4.71,2,7.85,6.18,12.65,8.17a68.31,68.31,0,0,1,10.51,5.17c2.84,1.79,5.17,2.94,8.54,2.23,2.77-.58,5.53-1.52,8.32-2.12,2.48-.52,5.41-2.49,7.95-1.57,4.26,1.54,8.28-1,12.54-2.54a46.44,46.44,0,0,1,14.24-2.77c2.45-.09,5.33.24,6.61,2.34a7.38,7.38,0,0,1,.83,3.11c.3,2.5.59,5,.88,7.49a5.86,5.86,0,0,0,.48,2c1,2,3.77,2.17,5.39,3.67s1.8,4.15,1.55,6.42c-.4,3.65-3.15,7.71-3.1,11.19.09,7,7.47,7,12.28,6.94,2,0,4.12,0,5.63,1.23a5.55,5.55,0,0,1,1.68,4.81,16.48,16.48,0,0,1-1.59,5,77.15,77.15,0,0,0-3.75,9.83,21,21,0,0,0-.28,7.5,11.26,11.26,0,0,0,2.55,6.36c3.43,4.05,4.13,9.7,9,12.26,4.28,2.85,9.86,1.64,13.61-1.14,4.26-3.16,8.6-4.41,13.74-6a27.16,27.16,0,0,1,4.72-1.48c3.36-.58,7.37-1.31,10.43-2.81a8.31,8.31,0,0,1,2.9-.89c.21-.2.4-.42.63-.6a20.64,20.64,0,0,1,6.92-3.11l13-4,4.32-1.34c7.16-2.21,14.53-5.41,21.73-3.2,9.13,2.79,27-11.53,30.34-19.3,3.14-7.19,1.72-14.65,9.19-19.7,4.29-2.91,4.59-2.42,4.12-7.86-.3-3.44-.29-6.31,2.85-8.47,3.39-2.31,8-2.58,10.88-5.67a25,25,0,0,0,2.06-2.53c1.53-2.1,2.77-4.89,4.09-7.13s3.88-3.53,5.1-5.82c6.86-12.91-4.46-24.71-2.58-37.19.74-4.87,5-9.31,9-11.79,2.74-1.68,5.15-.68,8.12-1,3.46-.33,8-.9,10.65-3.37,1.51-1.4.47-3.8-.43-5.22a47.43,47.43,0,0,0-4.55-6c-1.87-2.1-3.72-4-4.76-6.68-1.31-3.34-.19-4.18.8-7.43,1.35-4.42,2-10.55,5.44-13.82s7.87-4.34,10.19-9.08A10.39,10.39,0,0,0,1039,667.56Z"/><path class="cls-1" d="M846.57,230.58c2.36-7.18,5.67-12.78,5.7-20.8,0-1.76-.82-3.35-.88-5.08,0-.95.37-1.29.73-2.06a2.87,2.87,0,0,0,0-2.4c-.4-.48-.89-.33-1.48-.42a20.87,20.87,0,0,1-4.77-1.7,21.48,21.48,0,0,0-5.32-1.43c-1.36-.16-3-.31-3.64-1.49-.78-1.35-6.87-2.22-8.38-2.61-3-.8-6.13-1.47-9.17-2.25-5.34-1.37-8.91-5.53-14.69-6.14a17.33,17.33,0,0,0-7.43.79,16,16,0,0,0-4.78,2.64c-1.22,1-8.88-2.32-10.12-3-4.61-2.66.53-6-.24-9.92-.31-1.55-2.34-1.9-3.92-1.9-3.32,0-6.72.89-9.89.88-3.57,0-6.67-3.67-9.36-5.77a30.17,30.17,0,0,0-4.2-2.25,12.92,12.92,0,0,1-5.79-5.25,6,6,0,0,0-1.31-1.5c-1.33-1.23-2.77-2.51-4.56-2.82-3.36-.56-8.06,3.9-8.44-1.42-.09-1.32.65-2.47.46-3.89-.36-2.53-2.62-5.59-3.13-8.35l-2,.71a18,18,0,0,0-6.42,3.34c-3.19,3-3.79,7.88-6.49,11.32a22.47,22.47,0,0,1-6,4.77c-5.54,3.47-10.09,10.73-16,13.61-3.93,1.92-8.18,4.19-9.77,8.26s-.26,9.45-3.51,12.38a10.91,10.91,0,0,1-4.69,2L669,201a10.23,10.23,0,0,1-3.67.48c-3.37-.4-5.34-3.88-6.78-6.95s-.3-4.15-2.36-7c-7-9.59-11.06-21-15.34-32.06s-9.06-22.3-17.19-31c-3.71-4-8.81-8.31-14.15-9.78-3.81-1.06-7.56.54-11.17-.19-10.77-2.17-5.85-11.9-8.75-20.42-.2-.59-.46-1.15-.68-1.73a9.87,9.87,0,0,1-4.72-2.46c-1.21-1.32-2.1-3.19-3.84-3.61s-3.1.87-4.64,1.49c-1.9.77-3.67.74-5.54,1.45a28.54,28.54,0,0,1-6.68,1.94c-3.32.4-9-2.62-11.62-1.23-1.38.72-1.76,2.52-1.73,4.07a5.36,5.36,0,0,0,.55,2.54c.78,1.37,2.41,2,3.53,3.1,2.38,2.35-.65,6.57-2.48,8.48a5.36,5.36,0,0,1-1.92,1.38c-3.15,1.15-6.15-.2-8.46-2.33a9.51,9.51,0,0,0-1.73-1.45,5.37,5.37,0,0,0-2.09-.52c-3.68-.3-6.62,1.07-10,1.92a7,7,0,0,1-4.21.23c-1.74-.63-2.17-2.5-3.84-3-7.51-2.21-10.8,6.73-17.27,8.87a59.25,59.25,0,0,1-5.86,1.81c-2,.45-4.76.08-6.56,1.08-1.14.65-1.49,2-2.65,2.65-1.83.94-5.09.3-7,0a2.81,2.81,0,0,0-1.44,0,2.72,2.72,0,0,0-.89.66c-2.39,2.37-6.17,4.79-8,7.39a4.8,4.8,0,0,1-2.86,1.69c-.11,1.78-.25,3.56-.44,5.31a166.38,166.38,0,0,0-.58,18.78c0,2.29-.35,5.06-2.42,6.56a4.39,4.39,0,0,1-.53.32c4.76,16.65,9.82,35.15,24.92,39.38A13,13,0,0,1,497,209.41c1.32,9.15,13.92,12.05,20.84,15.44,5.27,2.57,10.41,7.12,16.46,6.29,5.47-.75,13.94-8.22,19.23-5.54a5.82,5.82,0,0,1,3.1,5.53c-.23,3-2.65,5.22-4.9,7.16-8,6.88-10.6,13.29-16.76,21.7-2.22,3-3.58,9.42-6,12.31s-5.05,5.14-7,8.12a38.37,38.37,0,0,0-4.07,9.43c-7.68,23.33-15.39,46.58-27.09,68.17-1.72,3.17-3.49,6.4-6.2,8.77a33,33,0,0,0-3.21,2.8c-1.94,2.22-2.47,5.38-2.21,8.33.3,3.58,1.62,7,2.92,10.33l2.88,7.4c5-6.47,7.73-1,8.89,4.43,1.74,8.21,6.6,15.26,8.79,23.29,1.62,5.92-.56,14,5.93,17.75.81.46,1.7.77,2.54,1.18a23,23,0,0,1,2.8,1.74c5.32,3.68,10.7,7.27,15.81,11.22,6.87,5.32,12,6.37,20.44,8,15.91,3.08,34.56,3.64,50.75,2.91a252.31,252.31,0,0,1,37.88,1.49c4.28.47,8.25,1.87,12.59,2.21,5.07.39,10.07-.56,15.13-.57,4.63,0,8.87,1.39,13.44,1.66q13.26.78,26.53,1.61c4.79.3,8.45.61,13-.23,1.8-.33,4.92-1.53,7.63-1.72a5.46,5.46,0,0,1,.77-.2,2.69,2.69,0,0,1,1.81.44,3.44,3.44,0,0,1,1.56,1,.56.56,0,0,1,0,.08,3,3,0,0,0,1.07.32,2.73,2.73,0,0,0,2.32-1.18c3-3.91,1.92-10,3.34-14.47a51.26,51.26,0,0,1,4.83-10.44c1.26-2.1,3.19-3.69,4.89-5.42,1-1,2-1.83,3-2.79,5.24-5.23,7.49-12.65,7.88-19.89.14-2.46.85-6.59,0-8.95-1-2.83-4.72-3.77-5.55-6.86-1.41-5.23,2.35-15,5.38-19s8-4.47,11.77-7.8,5.66-8.06,9.36-11.35c4.29-3.83,8.94-7.5,9.92-13.45.83-5-.36-11.68-5.43-14-4.89-2.26-13.39-2.21-7.62-9.34,5.13-6.34,16.47-7.81,23.07-12,4-2.5,4.77-4.38,7-8.49,2-3.74,1-8.59,3-12.35s6.47-5.39,10.09-7.71C836.2,276.08,840.88,248,846.57,230.58Z"/><path class="cls-1" d="M961.22,277.26c4.93-4.5,11.4-7,15.65-12.34A66.7,66.7,0,0,0,984.4,253a17.87,17.87,0,0,0-2.66-1.5c-6.11-2.71-12.81,2-19.21-.18a28.42,28.42,0,0,1-5.58-2.83,75.66,75.66,0,0,0-8-4.66c-2.37-1.05-4-3.15-6.38-4.12-2-.81-4.24-.83-6.25-1.71a15.59,15.59,0,0,0-3-1.06,10.53,10.53,0,0,0-7.72,1.77c-2.92,1.87-4.61,5.16-7.33,7-1.21.84-2.76,3.16-4.44,4.46-2.24,1.73,0-6.87-4.59-7-1.54,0-5,.58-6.07,6.36-1.22,6.48-7.28,1.67-2.17-4.31,2.75-3.21-.69-9.79-1.79-12.39-2.36-5.61-1.58-23.43-11.11-23.34-1.82,0-4.28,1.75-5.61,2.85-3.56,2.94-5.57,4.09-9.64,1.55-2.31-1.44-4.35-3.88-6.91-4.85s-4.21-.69-6.52-2.93c-1.62-1.56-3.53-3-5-4.67-.53-.61-.74-1.44-1.59-1.7a10.7,10.7,0,0,0-2.19,0c.59.09,1.08-.06,1.48.42a2.87,2.87,0,0,1,0,2.4c-.36.77-.76,1.11-.73,2.06.06,1.73.88,3.32.88,5.08,0,8-3.34,13.62-5.7,20.8-5.69,17.37-10.37,45.5-27,56.14-3.62,2.32-8.08,3.92-10.09,7.71s-1,8.61-3,12.35c-2.27,4.11-3.08,6-7,8.49-6.11,3.86-16.29,5.41-21.84,10.66a26.78,26.78,0,0,0,6.2,1.63c10.8,1.93,24.36,4.23,28.2,16.08,2.34,7.24,2.64,14.71,1.94,22.23-.55,6,1.77,13.3-3.71,17.63-1.35,1.07-2.94,1.79-4.31,2.84a5.51,5.51,0,0,0-2.44,4.33,7.22,7.22,0,0,0,1,2.84c.8,1.57,2,3.37,3.77,3.23,3.64,1.9,5,4,7,7.59,2.68,4.89,6.3,9.09,11.49,11.11,1.32.51,2.58,1.06,3.71.23a15.87,15.87,0,0,1,3.45-2.41c2.67-1,5.79.95,6.82,3.62s.41,5.71-.78,8.3c-.92,2-2.32,4-4.42,4.65-4.45,1.41-5.46,4.59-7,8.51-1.09,2.76-5.16,7.05-4.65,10.16,1,5.88,9.66,6.24,11.24,11.85.66,2.33-1,4.59-.37,7,.48,1.95,2.56,5.31,3.43,7.31,2.73,6.33,7.51,7.38,13.89,10a4.88,4.88,0,0,0,3,.56,4.06,4.06,0,0,0,1.65-1c4.84-4.37,4.71-11.87,4.2-18.37a30.24,30.24,0,0,0-.93-6.28c-2.7-9.17-6.13-10.31-.25-19.34a39.94,39.94,0,0,0,3.21-6.57q1.26-3,2.51-6c2.46-5.89,2.05-15.27,6.76-19.21,2.73-2.29,5.54-4.48,8.34-6.67,5.93-4.64,14.5-3.8,20.16-8.25,4.78-3.76,7.62-8.59,11.22-13.31,6-7.85,13.21-1.7,20.43-.29s15.65-1.07,18.4-8.64c1.9-5.25-.69-9.44-3.34-13.79-2.82-4.63-4.76-11.76-.54-16,3-3,4.21-6.32,5.63-10.19,1.72-4.68-2.23-7.47-2.68-11.65-.38-3.48,2.4-6.62,1.3-9.9-.72-2.17-3.84-3.27-4.55-5.89-.91-3.32,1-6.71,3.19-9.4C954.15,289,956,282,961.22,277.26Z"/><path class="cls-1" d="M1023.4,391.61c1.71-4.4,1.82-10.17-1.24-14-2-2.54-5.64-3.36-7.7-5.86-2.23-2.71-1.64-5.76-1.83-9-.3-5.2-3.64-9-3.36-14.7.25-5.2,1.73-10.25,2.13-15.43.19-2.46-.06-5.22-1.87-6.91s-4.82-1.85-6.17-4-.93-5.81-.84-8.05l.45-11.13a28.27,28.27,0,0,0-.25-6.63c-.61-3-2.19-5.76-3.3-8.64-3.16-8.15-1-19.21.29-27.64.26-1.72.74-3.16.85-4.56-.58,0-1.16-.05-1.74,0a74.36,74.36,0,0,1-9.08.12A10.55,10.55,0,0,1,984.4,253a66.7,66.7,0,0,1-7.53,11.92c-4.25,5.3-10.72,7.84-15.65,12.34C956,282,954.15,289,949.71,294.54c-2.15,2.69-4.1,6.08-3.19,9.4.71,2.62,3.83,3.72,4.55,5.89,1.1,3.28-1.68,6.42-1.3,9.9.45,4.18,4.4,7,2.68,11.65-1.42,3.87-2.64,7.2-5.63,10.19-4.22,4.21-2.28,11.34.54,16,2.65,4.35,5.24,8.54,3.34,13.79-2.75,7.57-11.05,10.06-18.4,8.64s-14.43-7.56-20.43.29c-3.6,4.72-6.44,9.55-11.22,13.31-5.66,4.45-14.23,3.61-20.16,8.25-2.8,2.19-5.61,4.38-8.34,6.67-4.71,3.94-4.3,13.32-6.76,19.21q-1.25,3-2.51,6a39.94,39.94,0,0,1-3.21,6.57c-5.88,9-2.45,10.17.25,19.34a30.24,30.24,0,0,1,.93,6.28c.51,6.5.64,14-4.2,18.37a6.41,6.41,0,0,1-.58.45c.64.14,1.28.25,1.91.36,3.7.6,8,.05,11,2.42,3.68,2.93,5.56,8.34,7.86,12.29,2.2,3.78,5.58,7.66,10,7.53,3.84-.12,6.78-3.28,9.59-5.91,3.63-3.39,7.32-2.37,11.93-2.66,4.77-.3,7.12-4.15,10.71-7a26.29,26.29,0,0,0,4.6-4.34,13.69,13.69,0,0,0,2.59-10c-.51-4-3.21-5.45-4.65-8.65-1.81-4,3.41-8.62,7.05-10a12.25,12.25,0,0,1,10.06.73c5.74,3.09,11.2,8.75,18.22,5.86,5.13-2.11,9.47-5.61,14.2-8.43,3.9-2.33,7.19-3.64,10.71-6.47s7.42-4.64,11.3-6.55c3.21-1.58,3.81-3.67,6.26-6.17,2.92-3,7.39-4.16,10.32-7.28a26.83,26.83,0,0,0,1.8-2.19l5.83-7.61c3-3.85,3.2-7.18,1-11.43-2-3.7-4.44-5.6-2.2-9.56C1017.88,396.47,1022.1,395,1023.4,391.61Z"/><path class="cls-1" d="M908.64,878.82c6.06-7.13-5.65-6.07-8.63-7.77-4.23-2.41-6.09-5.12-11-2.73-3.06,1.5-7.07,2.23-10.43,2.81a27.16,27.16,0,0,0-4.72,1.48c-5.14,1.64-9.48,2.89-13.74,6-3.75,2.78-9.33,4-13.61,1.14-4.92-2.56-5.62-8.21-9-12.26a11.26,11.26,0,0,1-2.55-6.36,21,21,0,0,1,.28-7.5,77.15,77.15,0,0,1,3.75-9.83,16.48,16.48,0,0,0,1.59-5,5.55,5.55,0,0,0-1.68-4.81c-1.51-1.26-3.66-1.27-5.63-1.23-4.81.11-12.19.06-12.28-6.94-.05-3.48,2.7-7.54,3.1-11.19.25-2.27.13-4.87-1.55-6.42s-4.38-1.71-5.39-3.67a5.86,5.86,0,0,1-.48-2c-.29-2.5-.58-5-.88-7.49a7.38,7.38,0,0,0-.83-3.11c-1.28-2.1-4.16-2.43-6.61-2.34a46.44,46.44,0,0,0-14.24,2.77c-4.26,1.55-8.28,4.08-12.54,2.54-2.54-.92-5.47,1-7.95,1.57-2.79.6-5.55,1.54-8.32,2.12-3.37.71-5.7-.44-8.54-2.23a68.31,68.31,0,0,0-10.51-5.17c-4.8-2-7.94-6.21-12.65-8.17-4.12-1.73-8.83-.44-13.11.86-3.63,1.11-6.05,1.84-8.78,4.41s-4.88,5.81-8,7.95a13.9,13.9,0,0,1-1.66,1c-2.55,4.63-7.52,7.13-10.84,11.19-2.09,2.58-3.69,1.67-6,2.95s-2.78,3.27-3.62,5.74c-2.28,6.63-3,18.5-8.32,23.44-1.87,1.72-4.41,2.14-6.2,3.77-7.11,6.51-8.37,16.74-17.36,21.81-3.08,1.73-6.4,3.37-9.92,3.3-1.73,0-3.44-.48-5.16-.36-4.22.3-5.6,4-8.94,5.86-4.6,2.52-6.91,4.13-9.74,8.31.14-.18.26-.38.41-.56a2.15,2.15,0,0,1,1.91-1.09c1.36-.07,2.74,0,4.12-.07a75.59,75.59,0,0,1,9.52.12c2.11.23,4.19,0,6.27.31,3.8.53,8,.84,11.68-.48a37.21,37.21,0,0,0,3.67-1.58c3.2-1.61,6.81-1.2,10.34-1.31a25.74,25.74,0,0,0,4.12-.35,27.12,27.12,0,0,0,2.94-.79,49,49,0,0,1,7.91-1.83l1.75-.26c3.68-.53,7.4-.51,11.11-.68,3.49-.15,7-.85,10.41-.11l5.91,1.28a40.94,40.94,0,0,1,5.11,1.83c4.52,1.7,9.15,4,13.82,5.18,3.73,1,7,.64,9.77,3.8,4,4.53,9.18,8.42,9.62,14.75s2.9,10.68,5.18,16.21c2,4.83,4.1,20.56,9.57,22.53,4,1.44,8.73-1.6,12.75-.16,3.05,1.1,4.56,3.82,6.77,5.93,3.4,3.24,5.61,3.11,9.69,4.75,3.8,1.53,7.18,4.65,9.84,8.2-1.55,2.46-3.17,4.91-4.93,7.24,2.48-3.28,4.67-6.81,6.81-10.27,1.83-3,5.08-3.14,8.15-3.75,3.83-.77,7.09-3.19,9.8-5.91,1.26-1.26,1.58-2.72,2.53-4.2a35.84,35.84,0,0,1,4.49-5.5A54.48,54.48,0,0,1,840,926.81c3.56-2,7.92-4.55,11.92-5.36,5.67-1.14,13,1.88,18.17.32,6.6-2,10-8.94,14.6-13.28a16.72,16.72,0,0,1,5.29-3.22c0-.13,0-.25-.06-.38-1.16-5.32-2.07-11,1.69-15.57,1.71-2.08,2.82-4,5.45-4.87,2.08-.73,4.48-.19,6.46-1.33A19.6,19.6,0,0,0,908.64,878.82Z"/><path class="cls-1" d="M1039,667.56a14.34,14.34,0,0,0-5.63-4.94,44.94,44.94,0,0,0-18-5.57c-5.71-.51-10.63,1-15.95-1.54-5.74-2.74-4.25-5.55-7-10.48-3.88-7-11.74-8-18.89-8.54a29.67,29.67,0,0,1-15.85-5.8c-4.92-3.55-12.4-6.39-18.53-5.22-4.38.84-15,3.76-18.1-1.15-2.4-3.85,1.3-9.69-2.76-13.42-1.47-1.36-3.65-1.54-5.65-1.65-4.51-.24-9.53-.32-12.94,2.66-1.53,1.34-2.55,3.17-3.83,4.76a29.8,29.8,0,0,1-9.9,7.89,46,46,0,0,0-12.12,9.65,11.84,11.84,0,0,1-3.39,2.93,10.67,10.67,0,0,1-5,.79,54.29,54.29,0,0,1-6.86-.61c-1.27-.2-2.79-.17-3.81-1.06a8.05,8.05,0,0,0-3.5-2,8.45,8.45,0,0,1-2.71-.84,15.1,15.1,0,0,0-3.51-1.95c-3.39-1-10.47-1.16-13.36,1.2-6.63,5.41-3.94,14.9-2.38,21.69.78,3.43,2.29,8.59-.32,11.59-2.72,3.16-7.31,1.35-9.92,5.71-2.09,3.49-4,6.83-3.3,10.89.76,4.54,3.51,8.51,3.84,13.17a14,14,0,0,1-3,9.64c-1.24,1.57-2.83,2.88-3.9,4.57-3.49,5.54,3,6.73,4.3,11.24.94,3.24-1.55,6.38-3.92,8.76-4,4-10.49,12.37-16,14-6,1.75-12.75-4.07-19-3.64a23.6,23.6,0,0,0-5.17,1.17l-23.14,7.14c-7.53,2.32-15.25,4.75-21.87,9.15-6.45,4.29-12.41,9.16-19,13.34q-3.56,2.27-6.89,4.85c2.75,5.46,2.61,12.82,1.17,18.43a12.51,12.51,0,0,1-1.2,2.92,13.9,13.9,0,0,0,1.66-1c3.08-2.14,5.25-5.4,8-7.95s5.15-3.3,8.78-4.41c4.28-1.3,9-2.59,13.11-.86,4.71,2,7.85,6.18,12.65,8.17a68.31,68.31,0,0,1,10.51,5.17c2.84,1.79,5.17,2.94,8.54,2.23,2.77-.58,5.53-1.52,8.32-2.12,2.48-.52,5.41-2.49,7.95-1.57,4.26,1.54,8.28-1,12.54-2.54a46.44,46.44,0,0,1,14.24-2.77c2.45-.09,5.33.24,6.61,2.34a7.38,7.38,0,0,1,.83,3.11c.3,2.5.59,5,.88,7.49a5.86,5.86,0,0,0,.48,2c1,2,3.77,2.17,5.39,3.67s1.8,4.15,1.55,6.42c-.4,3.65-3.15,7.71-3.1,11.19.09,7,7.47,7,12.28,6.94,2,0,4.12,0,5.63,1.23a5.55,5.55,0,0,1,1.68,4.81,16.48,16.48,0,0,1-1.59,5,77.15,77.15,0,0,0-3.75,9.83,21,21,0,0,0-.28,7.5,11.26,11.26,0,0,0,2.55,6.36c3.43,4.05,4.13,9.7,9,12.26,4.28,2.85,9.86,1.64,13.61-1.14,4.26-3.16,8.6-4.41,13.74-6a27.16,27.16,0,0,1,4.72-1.48c3.36-.58,7.37-1.31,10.43-2.81a8.31,8.31,0,0,1,2.9-.89c.21-.2.4-.42.63-.6a20.64,20.64,0,0,1,6.92-3.11l13-4,4.32-1.34c7.16-2.21,14.53-5.41,21.73-3.2,9.13,2.79,27-11.53,30.34-19.3,3.14-7.19,1.72-14.65,9.19-19.7,4.29-2.91,4.59-2.42,4.12-7.86-.3-3.44-.29-6.31,2.85-8.47,3.39-2.31,8-2.58,10.88-5.67a25,25,0,0,0,2.06-2.53c1.53-2.1,2.77-4.89,4.09-7.13s3.88-3.53,5.1-5.82c6.86-12.91-4.46-24.71-2.58-37.19.74-4.87,5-9.31,9-11.79,2.74-1.68,5.15-.68,8.12-1,3.46-.33,8-.9,10.65-3.37,1.51-1.4.47-3.8-.43-5.22a47.43,47.43,0,0,0-4.55-6c-1.87-2.1-3.72-4-4.76-6.68-1.31-3.34-.19-4.18.8-7.43,1.35-4.42,2-10.55,5.44-13.82s7.87-4.34,10.19-9.08A10.39,10.39,0,0,0,1039,667.56Z"/><path class="cls-1" d="M1008.56,862.56a5.64,5.64,0,0,0,.86-1.86,19.58,19.58,0,0,0,.15-10.68c-1.27-4.68.63-11.67,3.66-16.53l-.06-.16c-2.58-2-6.35-.57-9.5-1.38a25.84,25.84,0,0,1-4.74-2.29c-2.83-1.39-6-1.81-8.94-3s-5.71-3.61-5.87-6.75a10.12,10.12,0,0,0-.18-3.12,5.05,5.05,0,0,0-2.17-2.22c-.24-.16-.49-.28-.73-.43-.67.54-1.63,1.12-3,2-7.47,5.05-6,12.51-9.19,19.7-3.39,7.77-21.21,22.09-30.34,19.3-7.2-2.21-14.57,1-21.73,3.2l-4.32,1.34-13,4a20.64,20.64,0,0,0-6.92,3.11c-.23.18-.42.4-.63.6,2.93-.28,4.8,1.75,8.07,3.62,3,1.7,14.69.64,8.63,7.77a19.6,19.6,0,0,1-5.17,4.3c-2,1.14-4.38.6-6.46,1.33-2.63.92-3.74,2.79-5.45,4.87-3.76,4.57-2.85,10.25-1.69,15.57,0,.13,0,.25.06.38h0c3.51-1.43,7.38-2.18,10.76-3.95a107.45,107.45,0,0,1,15-6.39c4.57-1.61,9.14-1.2,13.79-2.16,5.47-1.14,10.51-3.49,16.22-3.39,6.35.11,12.71,2,19.13,2.36,3.91.21,8.12,1.3,12.07.37,5.2-1.23,5.17-5.72,5.14-10.31,0-4.77,1-6,4.42-9.18,2.51-2.34,6.27-2.13,9.17-3.71a57.64,57.64,0,0,1,9.77-4.53A6.61,6.61,0,0,0,1008.56,862.56Z"/><path class="cls-1" d="M1051.16,744.13a16.2,16.2,0,0,1,1.55-1.89l-2-2.14c-4.44-4.62-9.12-9.32-15.1-11.63-1.58-.61-3.17-1.29-4.77-2-2.67,1.54-6.26,2-9.12,2.27s-5.38-.72-8.12,1c-4,2.48-8.26,6.92-9,11.79-1.88,12.48,9.44,24.28,2.58,37.19-1.22,2.29-3.78,3.59-5.1,5.82s-2.56,5-4.09,7.13a25,25,0,0,1-2.06,2.53c-2.92,3.09-7.49,3.36-10.88,5.67-3.14,2.16-3.15,5-2.85,8.47.32,3.7.28,4.66-1.14,5.81h0c.24.15.49.27.73.43a5.05,5.05,0,0,1,2.17,2.22,10.12,10.12,0,0,1,.18,3.12c.16,3.14,3,5.54,5.87,6.75s6.11,1.63,8.94,3a25.84,25.84,0,0,0,4.74,2.29c3.15.81,6.92-.59,9.5,1.38l.06.16a17,17,0,0,1,3.1-3.79l6.78-5.89c2.53-2.2,3.52-4.95,5.67-7.35s4-3.68,5.46-6.56a32,32,0,0,0,2.32-5.62c.6-2.28.56-4.42,1.72-6.58,1.32-2.44,2.29-5.29,4-7.51,2.37-3.15,6.45-5.74,7.76-9.6,1.41-4.17.84-10.17-.08-14.43s-2.2-8.37-1.35-12.61C1049.14,750.67,1049.48,746.62,1051.16,744.13Z"/><path class="cls-1" d="M1110.12,551.85c1.47-2.55,4-4.26,5.41-6.65,1.12-1.91,1.2-4.55,2.13-6.63,1.3-2.89,2.75-5.69,3.85-8.65a25.57,25.57,0,0,0-2.77-1.26,21.47,21.47,0,0,0-4.79-1.29c-6-.79-11.26-1.56-14.88-7.39-2.77-4.45-4.14-9-8-13-1.15-1.19-2.39-3.18-1.13-4.26a3,3,0,0,1,1.47-.53l6.78-1.14a8.72,8.72,0,0,0,2.38-.64c2.22-1.05,3.16-3.66,3.66-6.06,1.23-5.94-.33-10.71-2.56-16.13-2.33-5.65-3.66-11.49-6.54-16.92l-4.42-8.33a18.48,18.48,0,0,0-4-5.64c-3.12-2.64-7-1.65-10.24-3.45-3.41-1.9-6.48-5.48-9.78-7.73a9.34,9.34,0,0,0-3.8-1.81c-6.2-.9-9.39,1.74-13.9,5-2,1.49-4.76,1.91-6.7,3.54a16.56,16.56,0,0,0-2.42,2.91,65.32,65.32,0,0,1-9.43,9.6l-5.27,4.68a8.44,8.44,0,0,1-2.38,1.66c-5.13,2-8.21-2.85-8.51-6.89a19.83,19.83,0,0,0-5.3-12c-2.3-2.43-5.31-4.42-7.25-7a14.9,14.9,0,0,0-2.43,2c-2.45,2.5-3.05,4.59-6.26,6.17-3.88,1.91-7.9,3.82-11.3,6.55s-6.81,4.14-10.71,6.47c-4.73,2.82-9.07,6.32-14.2,8.43-7,2.89-12.48-2.77-18.22-5.86a12.25,12.25,0,0,0-10.06-.73c-3.64,1.38-8.86,6-7.05,10,1.44,3.2,4.14,4.67,4.65,8.65a13.69,13.69,0,0,1-2.59,10,26.29,26.29,0,0,1-4.6,4.34c-3.59,2.89-5.94,6.74-10.71,7-4.61.29-8.3-.73-11.93,2.66-2.81,2.63-5.75,5.79-9.59,5.91-4.38.13-7.76-3.75-10-7.53-2.3-3.95-4.18-9.36-7.86-12.29-2.15-1.71-5.93-2.22-8.59-2.29l-3.74-.11a3.61,3.61,0,0,0-1.39.15,1.24,1.24,0,0,0-.82.91,1.85,1.85,0,0,0,.16.86c.32.9.65,1.8.89,2.72.66,2.54.82,4.58-.68,6.69s-1.81,5-3.55,7.08C847,508.6,830.35,510.12,837,521c2.46,4,10.49,4.82,10.44,10.37,0,2.06-.94,4-1.67,5.91-1.42,3.76-2.62,8.22-1.54,12,1.31,4.59,4.59,7,4.2,12.5a28.79,28.79,0,0,1-1.14,5.73,3.12,3.12,0,0,1,1.23.23c1.79.74,2.44,2.9,2.87,4.79,1.29,5.73-3.08,8.72-3.28,14.48-.25,7-2.5,18.13,2.94,23.41s5.13,10.62,4.38,17.49a11.14,11.14,0,0,1-1.2,4.66,3.63,3.63,0,0,1-2.24,1.92,8.79,8.79,0,0,1,2.86,1.81c1,.89,2.54.86,3.81,1.06a54.29,54.29,0,0,0,6.86.61,10.67,10.67,0,0,0,5-.79,11.84,11.84,0,0,0,3.39-2.93A46,46,0,0,1,886,624.56a29.8,29.8,0,0,0,9.9-7.89c1.28-1.59,2.3-3.42,3.83-4.76,3.41-3,8.43-2.9,12.94-2.66,2,.11,4.18.29,5.65,1.65,4.06,3.73.36,9.57,2.76,13.42,3.06,4.91,13.72,2,18.1,1.15,6.13-1.17,13.61,1.67,18.53,5.22a29.67,29.67,0,0,0,15.85,5.8c7.15.51,15,1.54,18.89,8.54,2.73,4.93,1.24,7.74,7,10.48,5.32,2.53,10.24,1,15.95,1.54a44.94,44.94,0,0,1,18,5.57,14.34,14.34,0,0,1,5.63,4.94,10.39,10.39,0,0,1,0,9.58c-2.32,4.74-6.7,5.76-10.19,9.08s-4.09,9.4-5.44,13.82c-1,3.25-2.11,4.09-.8,7.43,1,2.65,2.89,4.58,4.76,6.68a47.43,47.43,0,0,1,4.55,6c.9,1.42,1.94,3.82.43,5.22a8,8,0,0,1-1.53,1.1c1.6.7,3.19,1.38,4.77,2,6,2.31,10.66,7,15.1,11.63l2,2.14a28.46,28.46,0,0,0,2.67-3.13c2.52-3.72,4.79-8.4,9.08-10.4a5.87,5.87,0,0,0,3-3.56c1.34-3.52-.11-6.45-1.52-9.77-2-4.75.06-7.51,1.3-11.93.89-3.17,1-6.49,2.32-9.57,1.62-3.84,5.18-6.2,6.12-10.43.56-2.55.28-5.2.65-7.77.44-3.09,1.38-6,1.17-9.19a18.18,18.18,0,0,0-1.09-4.46l-1.35-4c-1.67-4.95-4.4-10.83-4.4-16,0-5.73-.64-11.86,0-17.54.55-5,2.7-9.81,3.34-14.86a27.33,27.33,0,0,0-1.15-11c-1.06-3.4-3.67-5-2.75-9a12.1,12.1,0,0,1,2.34-5.24c5-5.93,10.94-6.19,18-5.59a5.19,5.19,0,0,0,2.69-.24,5,5,0,0,0,1.87-2c3.7-6,5.94-12.79,10.89-18C1107.74,556.58,1108.8,554.13,1110.12,551.85Z"/><path class="cls-1" d="M1117.88,317.51a38,38,0,0,0,5.58-.62,13.37,13.37,0,0,0-3.37-2.31c-5.6-2.43-12.39-6.89-16-11.89a44.38,44.38,0,0,0-7.24-8.29c-2.61-2.18-6.55-3.48-7.59-7a3.56,3.56,0,0,0-.61-1.47,4.54,4.54,0,0,0-1.26-.74,20.88,20.88,0,0,1-1.88-1.36c-2.79-1.89-6.51-1.07-9.31-3.17-3-2.21-4.87-5.95-7.6-8.51-1.76-1.66-3.7-3.12-5.42-4.81a28.3,28.3,0,0,1-2.9-3.37c-1.77-2.44-4.41-1.79-7.33-2.56-4.51-1.2-7.86-4-12.76-4-4.19,0-8.52-.64-12.74-.87-2.76-.16-5,.85-7.6,1-3.08.16-6.55-1.19-9.7-1.44-3.52-.27-7.12-1-10.6-1h1c-.11,1.4-.59,2.84-.85,4.56-1.27,8.43-3.45,19.49-.29,27.64,1.11,2.88,2.69,5.61,3.3,8.64a28.27,28.27,0,0,1,.25,6.63l-.45,11.13c-.09,2.24-.44,6,.84,8.05s4.37,2.32,6.17,4,2.06,4.45,1.87,6.91c-.4,5.18-1.88,10.23-2.13,15.43-.28,5.71,3.06,9.5,3.36,14.7.19,3.19-.4,6.24,1.83,9,2.06,2.5,5.68,3.32,7.7,5.86,3.06,3.85,2.95,9.62,1.24,14-1.3,3.36-5.52,4.86-7.34,8.07,0,.06,0,.11-.07.16a40.35,40.35,0,0,1,8.27-.68c2.6.18,5.39.57,8.14.87a54,54,0,0,0,6.58.41c5.3-.08,9.79-4.22,15-1,5.92,3.64,5.25,10,13.2,10.68,5.74.49,12.72-4.77,13.74-10.44,1.19-6.58-1.35-13.63-1.88-20.06a30,30,0,0,1,3.66-18c2.3-4.21,4.49-5.76,7.93-8.95s4.25-6.31,5.86-10.64c2-5.37,4-10.81,7.39-15.43S1112.19,318.15,1117.88,317.51Z"/><path class="cls-1" d="M1196.16,378.58a9.69,9.69,0,0,1-1.08-4.28,19.91,19.91,0,0,0-.92-6.25,15.49,15.49,0,0,1-3.64.68,101.32,101.32,0,0,1-40.36-4.62c-2.27-.74-5.07-1.45-6.78.2-3.87,3.75,4.49,11.5.4,15-2.79,1.38-6.47,3.07-9.64,2-3-1-4-5.08-7.15-5-5.12.17-10.24,9.64-11.86-1.72a14.14,14.14,0,0,1-.07-5.46,10.5,10.5,0,0,1,1.66-3.37c1.59-2.27,3.7-4.25,4.62-6.86s0-6.19-2.64-6.88c-2.42-.62-4.66,1.35-6.37,3.18-3.93,4.22-8,8.69-13.33,10.79a9,9,0,0,1-6,.51,14.55,14.55,0,0,1-2.88-1.55,34.85,34.85,0,0,0-7.35-3.52l-.06.11a30,30,0,0,0-3.66,18c.53,6.43,3.07,13.48,1.88,20.06a12.43,12.43,0,0,1-4.43,7,37.77,37.77,0,0,0,17.66,1.21c9.26-1.49,17.83-5.78,25.76-10.79,1.61-1,3.74-2.08,5.29-1a4.68,4.68,0,0,1,1.28,1.75c1,2.07,2,4.35,1.62,6.64-.71,4.94-6.92,9.15-4.69,13.61,1.5,3,5.9,3.13,8.89,1.6s5.27-4.19,8.27-5.7c2.72-1.36,5.82-1.69,8.83-2.14,5.39-.83,11.78-1.8,16.71-4.23,4.28-2.1,4.58-6.6,8.69-8.41a14.47,14.47,0,0,1,5.4-.87l4.11-.14a55.27,55.27,0,0,1,7,.07,41.1,41.1,0,0,1,5,.85,31.67,31.67,0,0,1,.61-3.48q.6-2.62,1.21-5.23a16.78,16.78,0,0,0-.81-9.62C1197,380,1196.55,379.33,1196.16,378.58Z"/><path class="cls-1" d="M1185.18,452.48a23.75,23.75,0,0,0-7.17-7.63,29.17,29.17,0,0,0-5.38-2.92,10.26,10.26,0,0,0-2.82-.82,12.75,12.75,0,0,0-4.44.61,24.92,24.92,0,0,0-7,2.62c-5.91,3.72-3.17,7.44-11.39,6.17-2.33-.36-5.43-.28-6.15,2a10.45,10.45,0,0,1-.52,2.19,3.19,3.19,0,0,1-2.11,1.2c-12,2.75-18.09-9.43-28.94-10.05-3.59-.21-13.42,3.25-18.1,7.95l4,7.51a44.16,44.16,0,0,1,2,4.33,51.72,51.72,0,0,1,6.77,1.8c5.88,2.48,11.67,4.68,17.4,7.42,4.6,2.21,11.77,2.67,14.84,7.33.49.75.85,1.58,1.32,2.35,2.78,4.58,9,9.95,14.83,12.9a14.09,14.09,0,0,0,1.08-2l1.59-3.58c1.39-3.13,3.74-3.61,6.13-6.08,1.84-1.9,3.43-4.24,5.29-6,1.28-1.21,3.71-2.64,5-4.47s2.14-4.24,3.78-5.92c3.27-3.34,6.27-5.52,8.56-9.6-.13-2.43-1-3.41.23-5.53A11,11,0,0,1,1185.18,452.48Z"/><path class="cls-1" d="M855.23,485.28c.44-.17.17-.09-.23,0a4.88,4.88,0,0,1-3-.56c-6.38-2.65-11.16-3.7-13.89-10-.87-2-3-5.36-3.43-7.31-.6-2.45,1-4.71.37-7-1.58-5.61-10.25-6-11.24-11.85-.51-3.11,3.56-7.4,4.65-10.16,1.54-3.92,2.55-7.1,7-8.51,2.1-.66,3.5-2.64,4.42-4.65,1.19-2.6,1.81-5.64.78-8.3s-4.15-4.63-6.82-3.62a15.87,15.87,0,0,0-3.45,2.41c-1.13.83-2.39.28-3.71-.23-5.19-2-8.81-6.22-11.49-11.11-2-3.59-3.31-5.69-7-7.59-1.75.14-3-1.66-3.77-3.23a7.22,7.22,0,0,1-1-2.84,5.51,5.51,0,0,1,2.44-4.33c1.37-1,3-1.77,4.31-2.84,5.48-4.33,3.16-11.67,3.71-17.63.7-7.52.4-15-1.94-22.23-3.84-11.85-17.4-14.15-28.2-16.08a26.78,26.78,0,0,1-6.2-1.63,15.15,15.15,0,0,0-1.23,1.31c-5.77,7.13,2.73,7.08,7.62,9.34,5.07,2.34,6.26,9,5.43,14-1,5.95-5.62,9.62-9.92,13.45-3.7,3.29-5.71,8.08-9.36,11.35s-8.76,3.76-11.77,7.8-6.79,13.81-5.38,19c.83,3.09,4.51,4,5.55,6.86.86,2.36.15,6.49,0,8.95-.39,7.24-2.64,14.66-7.88,19.89-1,1-2,1.83-3,2.79-1.7,1.73-3.63,3.32-4.89,5.42A51.26,51.26,0,0,0,738,456.59c-1.42,4.47-.38,10.56-3.34,14.47a2.73,2.73,0,0,1-2.32,1.18,3,3,0,0,1-1.07-.32.56.56,0,0,0,0-.08c4.82,5.41-7.35,12.05-8.94,15.85-3.28,7.86-3,19.72-4.38,28.17l-2.34,14.59A102.3,102.3,0,0,0,714,543.72c-.19,7.12,1,14.18,1.68,21.25h0c2.38-2,4.84-4.17,7.55-4.87,2.24-.58,8.11-1.22,10.12.14s2.86,5.36,4.61,7.28c3.38,3.72,6.87,7.53,11.39,9.75a4.89,4.89,0,0,0,3.63.59c2.11-.74,2.47-3.52,3.75-5.34,1.91-2.71,5.73-3.11,9-2.91s6.65.81,9.1,2.94a37.1,37.1,0,0,0,15,8.05c5.71,1.43,11.42,4.12,17.42,3.15,3.66-.6,6.86-2.53,10.4-3.51,4.89-1.36,10-1.33,14.72-3.3,4-1.66,6.88-5,10.36-7.54,1.32-.95,2.89-1.93,4.43-1.92h0a28.79,28.79,0,0,0,1.14-5.73c.39-5.47-2.89-7.91-4.2-12.5-1.08-3.78.12-8.24,1.54-12,.73-1.93,1.66-3.85,1.67-5.91.05-5.55-8-6.33-10.44-10.37-6.6-10.84,10-12.36,14.28-17.42,1.74-2.07,2-4.9,3.55-7.08s1.34-4.15.68-6.69c-.24-.92-.57-1.82-.89-2.72a1.85,1.85,0,0,1-.16-.86A1.24,1.24,0,0,1,855.23,485.28Z"/><path class="cls-1" d="M1194.05,367.67a23.6,23.6,0,0,0-2.59-6.19,25.56,25.56,0,0,1-1.86-3c-1.45-3.19-.13-6.94-.61-10.41-.09.11-.25.26-.17.42-.68-5.13-1.78-10.64-5.6-14.14a31.45,31.45,0,0,1-3.71-3.77c-.53-.68-1.44-2.61-2.11-3a3.7,3.7,0,0,0-1.89-.42,85.49,85.49,0,0,0-15.59.63c-4.08.63-7.8,2.74-11.82.13a15.51,15.51,0,0,0-1.95-1.27,7.78,7.78,0,0,0-2.54-.48c-3.7-.33-6.07-2.23-9.42-3.46a39.58,39.58,0,0,1-7.29-3.06,27.45,27.45,0,0,1-3.45-2.76,37.67,37.67,0,0,1-5.57.62c-5.69.64-10.65,4.41-14,9s-5.41,10.06-7.39,15.43c-1.61,4.33-2.56,7.58-5.86,10.64s-5.63,4.74-7.93,8.95h0l.06-.11a34.85,34.85,0,0,1,7.35,3.52,14.55,14.55,0,0,0,2.88,1.55,9,9,0,0,0,6-.51c5.37-2.1,9.4-6.57,13.33-10.79,1.71-1.83,4-3.8,6.37-3.18,2.68.69,3.57,4.27,2.64,6.88s-3,4.59-4.62,6.86a10.5,10.5,0,0,0-1.66,3.37,14.14,14.14,0,0,0,.07,5.46c1.62,11.36,6.74,1.89,11.86,1.72,3.19-.1,4.16,4,7.15,5,3.17,1.06,6.85-.63,9.64-2,4.09-3.49-4.27-11.24-.4-15,1.71-1.65,4.51-.94,6.78-.2a101.32,101.32,0,0,0,40.36,4.62,15.49,15.49,0,0,0,3.64-.68Z"/><path class="cls-1" d="M1199,424.25l-.3-11.32a12.08,12.08,0,0,0-.23-2.47,11.2,11.2,0,0,0-.69-1.94q-.93-2.26-1.88-4.53c-.6-1.45.31-2.19.35-3.76a10.64,10.64,0,0,1,.12-1.12,41.1,41.1,0,0,0-5-.85,55.27,55.27,0,0,0-7-.07l-4.11.14a14.47,14.47,0,0,0-5.4.87c-4.11,1.81-4.41,6.31-8.69,8.41-4.93,2.43-11.32,3.4-16.71,4.22-3,.46-6.11.79-8.83,2.15-3,1.51-5.29,4.17-8.28,5.7s-7.38,1.4-8.88-1.6c-2.23-4.46,4-8.67,4.69-13.61.33-2.29-.59-4.57-1.62-6.64a4.68,4.68,0,0,0-1.28-1.75c-1.55-1.12-3.68-.06-5.29,1-7.93,5-16.5,9.3-25.76,10.79a37.77,37.77,0,0,1-17.66-1.21c-2.7,2.28-6.18,3.72-9.31,3.46-8-.68-7.28-7-13.2-10.68-5.19-3.18-9.68,1-15,1a54,54,0,0,1-6.58-.41c-2.75-.3-5.54-.69-8.14-.87a40.35,40.35,0,0,0-8.27.68c-2.08,3.85.35,5.75,2.27,9.4,2.23,4.25,2,7.58-1,11.43l-5.83,7.61a26.83,26.83,0,0,1-1.8,2.19c-2.2,2.34-5.26,3.59-7.89,5.32,1.94,2.63,5,4.62,7.25,7a19.83,19.83,0,0,1,5.3,12c.3,4,3.38,8.89,8.51,6.89a8.44,8.44,0,0,0,2.38-1.66l5.27-4.68a65.32,65.32,0,0,0,9.43-9.6,16.56,16.56,0,0,1,2.42-2.91c1.94-1.63,4.65-2.05,6.7-3.54,4.51-3.28,7.7-5.92,13.9-5a9.34,9.34,0,0,1,3.8,1.81c3.3,2.25,6.37,5.83,9.78,7.73,3.21,1.8,7.12.81,10.24,3.45a18.48,18.48,0,0,1,4,5.64c.14.28.29.55.43.82,4.68-4.7,14.51-8.16,18.1-7.95,10.85.62,16.9,12.8,28.94,10.05a3.19,3.19,0,0,0,2.11-1.2,10.45,10.45,0,0,0,.52-2.19c.72-2.24,3.82-2.32,6.15-2,8.22,1.27,5.48-2.45,11.39-6.17a24.92,24.92,0,0,1,7-2.62,12.75,12.75,0,0,1,4.44-.61,10.26,10.26,0,0,1,2.82.82,29.17,29.17,0,0,1,5.38,2.92,23.75,23.75,0,0,1,7.17,7.63,20.77,20.77,0,0,0,1.44-1.81c1.3-1.91,1.68-4.05,2.79-6,1-1.72,1.94-3.45,2.92-5.17a50.13,50.13,0,0,1,3.67-5.87,12.93,12.93,0,0,0,2.65-5.07A13.14,13.14,0,0,0,1199,424.25Z"/><path class="cls-1" d="M1137.46,484.5c-.47-.77-.83-1.6-1.32-2.35-3.07-4.66-10.24-5.12-14.84-7.33-5.73-2.74-11.52-4.94-17.4-7.42a51.72,51.72,0,0,0-6.77-1.8c1.66,4.14,2.84,8.42,4.56,12.59,2.23,5.42,3.79,10.19,2.56,16.13-.5,2.4-1.44,5-3.65,6.06a8.89,8.89,0,0,1-2.39.64l-6.78,1.14a3,3,0,0,0-1.47.53c-1.26,1.08,0,3.07,1.13,4.26,3.84,4,5.21,8.58,8,13,3.62,5.83,8.87,6.6,14.88,7.39a21.47,21.47,0,0,1,4.79,1.29,25.57,25.57,0,0,1,2.77,1.26l.61-1.72c2.43-7.89,9.49-13.71,14.72-19.7,2-2.28,4.12-3.2,5.85-5.69,1.37-2,.93-2.55,3.15-3.09s4.18.55,6.09-1.77a6.49,6.49,0,0,0,.36-.55C1146.46,494.45,1140.24,489.08,1137.46,484.5Z"/></svg>