<svg xmlns="http://www.w3.org/2000/svg" viewBox="0 0 22 22"><g id="Camada_2" data-name="Camada 2"><g id="desktop"><path d="M21.81,6.4l-6-6.19A.7.7,0,0,0,15.1.05a.7.7,0,0,0-.43.64v3h-.23A9,9,0,0,0,5.5,12.6V14a.68.68,0,0,0,.54.66h.15a.7.7,0,0,0,.62-.39,7.52,7.52,0,0,1,6.77-4.18h1.09v3a.69.69,0,0,0,1.18.48l6-6.19A.7.7,0,0,0,21.81,6.4Z" style="fill:#fff"/><path d="M19.25,22H2.75A2.75,2.75,0,0,1,0,19.25V6.42A2.75,2.75,0,0,1,2.75,3.67H5.5a.92.92,0,1,1,0,1.83H2.75a.92.92,0,0,0-.92.92V19.25a.92.92,0,0,0,.92.92h16.5a.92.92,0,0,0,.92-.92V11.92a.92.92,0,1,1,1.83,0v7.33A2.75,2.75,0,0,1,19.25,22Z" style="fill:#fff"/></g></g></svg>