<?xml version="1.0" encoding="utf-8"?>
<!-- Generator: Adobe Illustrator 24.0.1, SVG Export Plug-In . SVG Version: 6.00 Build 0)  -->
<svg version="1.1" id="Camada_1" xmlns="http://www.w3.org/2000/svg" xmlns:xlink="http://www.w3.org/1999/xlink" x="0px" y="0px"
	 viewBox="0 0 598.9 1592.1" style="enable-background:new 0 0 598.9 1592.1;" xml:space="preserve">
<style type="text/css">
	.st0{fill:#E3212B;}
	.st1{fill:#FFFFFF;}
</style>
<g>
	<path class="st0" d="M583.1,768.5c-16.3-43.5-53-99-135.3-126.3c0.9-29.5,9.9-56.1,27.4-81.2c15.2-21.9,36.6-42.9,69.4-68
		c39.9-30.6,59.7-74,51.8-113.4c-4.3-21.2-20.6-59.2-82.2-75.4c-35.3-9.3-107.6-31.2-171.3-50.5c-38.3-11.6-74.5-22.6-99.9-30
		c-20.3-5.9-28.4-20.7-29.2-32.6c-0.4-6.4,0.7-22.1,20.2-30.7c54.5-24,104.9-58.3,104.9-146.1V0h-51v14.3c0,28.1-6.5,48.7-20.4,64.6
		c-13.9,15.8-34.2,26.1-54.1,34.9c-33.5,14.7-52.8,45.6-50.5,80.7c2.4,36.6,28.2,67.3,65.8,78.2c25.1,7.3,61.2,18.3,99.3,29.8
		c64.2,19.5,136.9,41.5,173.1,51.1c18.2,4.8,40.9,15,45.1,36.2c4,19.8-8.9,44.5-32.8,62.8c-57.8,44.3-116.8,102-116.8,194.7
		c0,32.8-11.3,43.1-21.2,48.3c-15.8,8.5-40.9,9.6-65.5,9.6c-74.9,0-139,22.9-185.6,66.1c-23,21.4-40.8,47-53,76.2
		c-12.2,29.4-18.5,61.8-18.5,96.3c0,70.5,27.8,125.4,46,155.4c-43.2,30.1-67.2,64.3-80.5,93.2c-13.4,29.2-19.6,60.2-18.2,92.3
		c1.2,29.4,9,58.9,22.4,85.1c44.9,87.5,116.1,108.8,173.2,125.8c28.6,8.5,53.3,15.9,70.9,29.7c12.2,9.6,26.6,25.8,29.9,66.7
		l50.8-4.2c-3.8-46-19.9-79.5-49.3-102.6c-25.2-19.8-55.6-28.9-87.8-38.5c-26.6-7.9-54.2-16.2-78.9-31
		c-27.5-16.4-47.7-38.4-63.5-69.3c-21.6-42-22.7-90.4-3.2-132.8c26.7-58.1,89.3-100.3,180.8-122c54-12.8,171.8-40.6,267.9-63.1
		c8-1.9,34.9-13.1,53.4-39.4c14.1-20.1,25.3-54.6,29.8-92.3C600.5,865.2,601.3,817,583.1,768.5z M546,890.9
		c-3.9,32.8-13.3,58.3-20.9,69.1c-9,12.9-22,18.4-24.1,19.3c-96,22.5-213.3,50.1-267.2,62.9c-35.4,8.4-65.3,19.2-90.8,31.5
		c-15.5-25.6-39.1-71.9-39.1-129.8c0-54.9,19.1-101.6,55.1-135.2c36.9-34.3,89.1-52.5,150.9-52.5c29.2,0,62.5-1.2,89.6-15.6
		c19.5-10.4,33.1-26.1,40.8-46.9c46.6,17.6,78.6,48.7,95.1,92.7C549.9,825.3,549.2,864.7,546,890.9z"/>
	<path class="st1" d="M320.1,1590.2c-1.2-14.4-3.7-27.3-7.6-38.5l3.8-1.3c4,11.5,6.6,24.8,7.8,39.5L320.1,1590.2z M293.2,1518.2
		c-8.2-9.1-18.3-16.7-31.1-23.3l1.8-3.6c13.2,6.8,23.8,14.8,32.3,24.2L293.2,1518.2z M225.2,1480.2c-7.4-2.4-14.8-4.6-22.7-7
		c-5.1-1.5-10.3-3.1-15.5-4.7l1.2-3.8c5.2,1.6,10.4,3.2,15.5,4.7c7.9,2.4,15.4,4.6,22.8,7L225.2,1480.2z M149.1,1455.2
		c-13.4-5.5-25.1-11.5-35.9-18.3l2.1-3.4c10.6,6.7,22.1,12.5,35.3,18L149.1,1455.2z M81.6,1412c-9.3-9.2-17.9-19.7-25.5-31.1
		l3.3-2.2c7.4,11.2,15.8,21.5,25,30.5L81.6,1412z M37.1,1345.3c-5.1-12.5-8.8-25.5-11.1-38.8l3.9-0.7c2.2,13,5.8,25.8,10.8,38
		L37.1,1345.3z M27.8,1266.4l-4-0.2c0.8-13.5,3.1-26.8,6.9-39.8l3.8,1.1C30.8,1240.2,28.6,1253.3,27.8,1266.4z M49.9,1191.3l-3.5-2
		c6.5-11.5,14.3-22.6,23.3-32.9l3,2.6C63.9,1169.2,56.3,1180,49.9,1191.3z M101.5,1131.8l-2.5-3.1c10.1-8.1,21.3-15.7,33.3-22.6
		l2,3.5C122.5,1116.3,111.4,1123.8,101.5,1131.8z M169.8,1091.8l-1.6-3.7c11.9-5.1,24.5-9.7,37.7-13.9l1.2,3.8
		C194.1,1082.2,181.5,1086.8,169.8,1091.8z M245.6,1067.7l-0.9-3.9c11.1-2.6,24.3-5.8,39-9.2l0.9,3.9
		C269.9,1061.9,256.7,1065.1,245.6,1067.7z M323.5,1049.3l-0.9-3.9c12.5-2.9,25.5-6,39-9.2l0.9,3.9
		C349,1043.3,336,1046.3,323.5,1049.3z M401.4,1030.9l-0.9-3.9c12.9-3,26-6.1,39-9.2l0.9,3.9
		C427.4,1024.8,414.3,1027.9,401.4,1030.9z M479.3,1012.6l-0.9-3.9c9.8-2.3,19.4-4.5,28.8-6.7c0.8-0.2,4.2-1.3,9.1-3.9l1.9,3.5
		c-5.1,2.7-8.8,4-10.1,4.3C498.7,1008.1,489.1,1010.3,479.3,1012.6z M548.5,974.6l-3.3-2.2c5.6-8.5,11.2-21.3,15.5-36.1l3.8,1.1
		C560.1,952.6,554.4,965.8,548.5,974.6z M572.9,898l-4-0.5c1.7-12.3,2.5-24.8,2.5-37.2c0-0.8,0-1.6,0-2.5l4,0c0,0.8,0,1.7,0,2.5
		C575.4,872.8,574.5,885.5,572.9,898z M568,818.4c-2.2-13.4-5.6-26.3-10-38.3l3.8-1.4c4.5,12.3,7.9,25.4,10.1,39L568,818.4z
		 M540.7,744.6c-7-11.2-15.4-21.5-24.7-30.7l2.8-2.9c9.6,9.4,18.1,20,25.3,31.4L540.7,744.6z M485,689.5
		c-10.8-6.7-22.8-12.6-35.5-17.4l1.4-3.7c13,4.9,25.1,10.9,36.2,17.8L485,689.5z"/>
	<path class="st1" d="M132.4,1108.3c-0.9-1.6-2.3-3.7-4.1-6.5c-4.1-6.3-10.2-15.8-16.8-27.8l3.5-1.9c6.5,11.9,12.6,21.3,16.6,27.5
		c1.8,2.8,3.2,4.9,4.2,6.6L132.4,1108.3z M94.5,1037.6c-4.9-12.7-8.9-25.7-11.8-38.5l3.9-0.9c2.9,12.7,6.8,25.4,11.6,37.9
		L94.5,1037.6z M76.9,959.2c-0.3-5.1-0.5-10.2-0.5-15.3c0-8.4,0.4-16.8,1.2-24.9l4,0.4c-0.8,8-1.2,16.2-1.2,24.5
		c0,5,0.2,10.1,0.5,15.1L76.9,959.2z M89,880.5l-3.8-1.1c3.7-13.1,8.7-25.7,14.8-37.5l3.6,1.8C97.5,855.3,92.6,867.7,89,880.5z
		 M125.1,810.7l-3.1-2.5c8.4-10.4,18.1-19.9,28.6-28.4l2.5,3.1C142.8,791.2,133.4,800.5,125.1,810.7z M186.1,761.1l-1.9-3.5
		c11.6-6.1,24.1-11.4,37.1-15.6l1.2,3.8C209.8,749.9,197.5,755.1,186.1,761.1z M261.2,736.5l-0.6-3.9c12.9-2.1,26.4-3.3,40-3.7
		l0.1,4C287.2,733.3,273.9,734.5,261.2,736.5z M340.8,731.8l-0.3-4c15.6-1.2,28.2-3.8,38.5-7.9l1.5,3.7
		C369.7,727.8,356.8,730.5,340.8,731.8z M412,698.3l-3.4-2.1c6.1-9.7,9.9-22.2,11.1-37l4,0.3C422.4,675,418.5,688,412,698.3z
		 M426.3,619.8l-4-0.6c2.1-13.3,5.8-26.4,10.9-38.9l3.7,1.5C431.9,594,428.3,606.8,426.3,619.8z M456,547.3l-3.3-2.3
		c7.3-10.5,15.7-20.6,25.8-30.9l2.9,2.8C471.5,527.1,463.2,537,456,547.3z M510.7,490l-2.6-3.1c6-5,12.5-10.2,19.7-15.7
		c3.9-3,7.7-6.2,11.2-9.6l2.8,2.9c-3.6,3.4-7.5,6.7-11.5,9.9C523.1,479.9,516.7,485,510.7,490z M565.9,432.1l-3.6-1.8
		c5.4-11.2,8.2-22.4,8.2-33.3c0-1.5-0.1-2.9-0.2-4.4l4-0.3c0.1,1.5,0.2,3.1,0.2,4.6C574.5,408.6,571.6,420.4,565.9,432.1z
		 M555.5,357.7c-7.9-8.9-18.7-16.1-32.2-21.6l1.5-3.7c14,5.7,25.3,13.3,33.7,22.6L555.5,357.7z M485.2,324.8
		c-10.8-3-23.4-6.7-38.5-11.2l1.1-3.8c15.1,4.5,27.7,8.1,38.4,11.1L485.2,324.8z M408.3,302.2c-12.5-3.8-25.4-7.7-38.3-11.6l1.2-3.8
		c12.9,3.9,25.8,7.8,38.3,11.6L408.3,302.2z M331.7,279.1c-13.2-4-26.1-7.9-38.3-11.6l1.2-3.8c12.2,3.7,25.1,7.6,38.3,11.6
		L331.7,279.1z M255,255.9c-7.1-2.1-13.7-4.1-19.7-5.8c-6.6-1.9-12.7-4.6-18.3-8l2.1-3.4c5.2,3.2,11.1,5.7,17.3,7.6
		c6,1.8,12.6,3.7,19.7,5.8L255,255.9z M190.6,211.4c-2.9-7.2-4.3-14.7-4.3-22.3c0-6.2,1-12.4,3-18.2l3.8,1.3
		c-1.8,5.4-2.7,11.1-2.7,16.9c0,7.1,1.4,14.1,4.1,20.8L190.6,211.4z M216.9,142.9l-2.1-3.4c2.5-1.5,5.3-2.9,8.1-4.2
		c11.1-4.9,19.9-9.2,27.7-13.7l2,3.5c-7.9,4.5-16.9,8.9-28.1,13.9C221.8,140.1,219.3,141.4,216.9,142.9z M284.8,100.7l-2.9-2.8
		c9.3-9.6,16.1-20.4,21-32.8l3.7,1.5C301.6,79.5,294.5,90.7,284.8,100.7z M315,27l-4-0.3c0.3-4,0.4-8.2,0.4-12.4V0h4v14.3
		C315.4,18.7,315.3,22.9,315,27z"/>
</g>
</svg>
