<svg xmlns="http://www.w3.org/2000/svg" viewBox="0 0 720.96 1583.57"><g id="Camada_2" data-name="Camada 2"><g id="mobile"><line x1="5.84" y1="1128.71" x2="630.21" y2="981.9" style="fill:none;stroke:#e3202b;stroke-miterlimit:10;stroke-width:51px"/><path d="M304,1583.57c0-127.4-227.56-31.85-227.56-204.37" style="fill:none;stroke:#e3202b;stroke-miterlimit:10;stroke-width:51px"/><path d="M327.59,658.48H403C403,555,485,498.64,562.19,448.14c68.55-44.86,133.27,14.9,133.27-49.66L247.32,271.35c0-125.33-116.39-92.72-42.83-123C253.44,128.11,294.2,100,294.2,25.5V11.19" style="fill:none;stroke:#e3202b;stroke-miterlimit:10;stroke-width:51px"/><path d="M290.71,741.94C150.79,741.94,59.2,829.05,59.2,955.1" style="fill:none;stroke:#e3202b;stroke-miterlimit:10;stroke-width:51px"/><line x1="5.84" y1="1128.71" x2="630.21" y2="981.9" style="fill:none;stroke:#fff;stroke-miterlimit:10;stroke-width:4px;stroke-dasharray:40,40"/><path d="M304,1583.57c0-127.4-227.56-31.85-227.56-204.37" style="fill:none;stroke:#fff;stroke-miterlimit:10;stroke-width:4px;stroke-dasharray:40,40"/><path d="M327.59,658.48H403C403,554,486.53,497.6,564.33,446.74c67.75-44.3,131.13,15.62,131.13-48.26L247.32,271.35c0-125.33-116.39-92.72-42.83-123C253.44,128.11,294.2,100,294.2,25.5V11.19" style="fill:none;stroke:#fff;stroke-miterlimit:10;stroke-width:4px;stroke-dasharray:40,40"/><path d="M290.71,741.94C150.79,741.94,59.2,829.05,59.2,955.1" style="fill:none;stroke:#fff;stroke-miterlimit:10;stroke-width:4px;stroke-dasharray:40,40"/></g></g></svg>