<svg id="mobile" xmlns="http://www.w3.org/2000/svg" viewBox="0 0 586.75 2183.31"><defs><style>.cls-1{fill:#e3202b;}.cls-2{fill:#fff;}</style></defs><title>ruas_mobile</title><path class="cls-1" d="M243.42,2183.31l-7.47-3.26c-17.2-7.51-55.84-32.23-91.84-69.58-45.3-47-70.26-97.78-72.19-146.87-3.3-84.08,23.67-149.68,80.17-195,46.18-37,103-52.85,140.59-63.3,8.91-2.48,16.6-4.62,22.95-6.68l15.72,48.52c-7.37,2.39-15.94,4.77-25,7.29-75.47,21-189.52,52.7-183.46,207.17,1.81,46,32.51,87.09,58,113.48,26.43,27.42,54.37,46.65,68.84,54.8L277.9,2124l233.68-96.44L531,2074.65l-238,98.24Z"/><path class="cls-1" d="M329.48,1699.87c-3-28.13-15-38.69-26.28-45.31-17.12-10-42.79-15-70-20.32-76.8-15-182-35.43-221.88-192.22-20-78.72-13.49-146.25,19.46-200.71,35.43-58.56,100.62-99.48,193.74-121.62,23.09-5.48,47-11.74,74.57-19,38.66-10.15,82.48-21.65,138-34.65l.15,0c39.52-9.23,72.48-22.3,78.81-28.84,15.75-22.9,31.68-100,6.34-167.61-20.66-55.1-63.36-91-126.9-106.57l12.17-49.53c100.75,24.76,144,88.82,162.48,138.2,31.46,83.91,12.92,178.86-12.57,215.13-6.39,9.1-19.35,21.42-63.15,36-20.58,6.86-40.1,11.58-45.59,12.86l-.12,0c-54.87,12.84-98.34,24.25-136.7,34.32-27.93,7.33-52.05,13.66-75.71,19.28-79.34,18.86-133.81,52-161.91,98.4-25.61,42.33-30.21,96.75-13.67,161.73C92.7,1554.92,169.09,1569.8,243,1584.18c31.57,6.15,61.38,12,86,26.37,30.33,17.75,47.09,45.2,51.22,83.9Z"/><path class="cls-1" d="M152.78,1175c-1.32-1.91-6.78-8-11.59-13.34-30-33.42-92.49-103-101.36-179.72C31.63,910.87,49.65,849,91.94,803c24.59-26.76,56.3-47.12,94.23-60.52,36.34-12.83,76.65-18.67,119.83-17.33,17.56.54,41.83-2.06,57.76-17.5,13-12.65,19.66-33,19.66-60.34,0-92.67,59-150.43,116.79-194.71,23.94-18.35,36.83-43,32.84-62.83-4.26-21.2-26.89-31.37-45.12-36.16-36.26-9.54-109-31.6-173.14-51.07-38.18-11.58-74.23-22.52-99.33-29.84-37.59-11-63.43-41.68-65.82-78.24-2.29-35,17.07-65.95,50.54-80.67,49.4-21.74,74.48-43.08,74.48-99.46V0h51V14.31c0,87.86-50.44,122.16-104.94,146.14-19.47,8.56-20.6,24.29-20.19,30.66.78,11.87,8.86,26.67,29.21,32.61,25.36,7.4,61.55,18.38,99.86,30,63.73,19.34,136,41.25,171.3,50.55,61.53,16.18,77.88,54.2,82.15,75.42C591,419,571.11,462.48,531.24,493.05c-58.11,44.56-96.82,87.84-96.82,154.24,0,41.71-11.83,74.33-35.16,97-22.74,22-55.54,33.07-94.83,31.86-73.25-2.26-137,20.12-174.94,61.39-32,34.77-45.45,82.7-39,138.58,7,60.62,62.14,122,88.64,151.49,9.16,10.19,14.2,15.81,17.27,21l-43.94,25.9C152.55,1174.61,152.65,1174.79,152.78,1175Z"/><path class="cls-2" d="M266.15,2154.52l-.82-3.91,19.52-4.11L303,2139l1.53,3.69-18.71,7.69Zm-38.58-5.82a342.54,342.54,0,0,1-32.68-23.55l2.52-3.11a336.13,336.13,0,0,0,32.29,23.27Zm114-21.27-1.52-3.69,37-15.26,1.53,3.69ZM165,2098.21A323.6,323.6,0,0,1,138.37,2068l3.17-2.45a315.67,315.67,0,0,0,26.29,29.82Zm250.5-1.3-1.52-3.69,37-15.26,1.53,3.69Zm73.95-30.52-1.52-3.69,32.62-13.47,1.53,3.7ZM116.3,2034.3A185.13,185.13,0,0,1,101,1997l3.84-1.09a181.71,181.71,0,0,0,15,36.51ZM95.23,1957c0-2.38-.08-4.76-.08-7.09A282.08,282.08,0,0,1,97,1916.88l4,.47a278.42,278.42,0,0,0-1.86,32.59c0,2.3,0,4.65.08,7Zm13.82-78.37-3.82-1.18a188.33,188.33,0,0,1,15.78-37l3.49,2A184.87,184.87,0,0,0,109.05,1878.66Zm38.51-68.23-3-2.69a198.22,198.22,0,0,1,30.08-26.84l2.35,3.24A194.24,194.24,0,0,0,147.56,1810.43Zm63.38-46.81-1.79-3.57a339.37,339.37,0,0,1,37-15.8l1.36,3.75A337.08,337.08,0,0,0,210.94,1763.62Zm74.59-27.75-1.1-3.85c5.05-1.44,9.92-2.8,14.55-4.08,9.16-2.55,17.07-4.75,23.9-7l1.23,3.8c-6.91,2.24-14.86,4.45-24.06,7C295.43,1733.08,290.57,1734.42,285.53,1735.87Z"/><path class="cls-2" d="M352.85,1697.38c-1.56-14.62-5.2-26.69-11.11-36.92l3.46-2c6.2,10.72,10,23.31,11.62,38.49Zm-38.51-63.52c-9.68-5.56-21.35-10-36.71-14.06l1-3.87c15.72,4.13,27.7,8.72,37.69,14.45Zm-75.72-22.5-.9-.18c-12.47-2.43-25.36-4.94-38.37-8.07l.94-3.89c12.92,3.11,25.77,5.61,38.2,8l.9.18Zm-77.78-19.88a206.21,206.21,0,0,1-36.19-17.66l2.11-3.4a202.9,202.9,0,0,0,35.5,17.32Zm-67.77-42.63a188.07,188.07,0,0,1-25.18-31.35l3.36-2.17A183.83,183.83,0,0,0,95.9,1546Zm-43.81-66.92A315.44,315.44,0,0,1,36.18,1444L40,1443A306.75,306.75,0,0,0,53,1480.37Zm-21.74-77.16a300,300,0,0,1-3.85-40l4-.11a293.76,293.76,0,0,0,3.8,39.52Zm2.37-79.7-3.95-.58a197.59,197.59,0,0,1,9.73-39.13l3.76,1.37A193.8,193.8,0,0,0,29.89,1325.07Zm27-73.69-3.36-2.17A188.68,188.68,0,0,1,79,1217.89l2.82,2.83A184.48,184.48,0,0,0,56.93,1251.38Zm55.37-55.81-2.26-3.3a276.19,276.19,0,0,1,34.8-20.16l1.76,3.59A273.34,273.34,0,0,0,112.3,1195.57Zm71-35.18-1.34-3.77c12.07-4.28,25-8.21,38.41-11.67l1,3.87C208,1152.25,195.21,1156.15,183.25,1160.39Zm76.89-21.15-1-3.88c13-3.3,26.77-6.91,38.7-10l1,3.87C286.93,1132.32,273.12,1135.94,260.14,1139.24Zm77.41-20.17-1-3.87c14-3.64,26.69-6.89,38.75-9.93l1,3.88C364.21,1112.19,351.55,1115.43,337.55,1119.07Zm77.53-19.51-.94-3.88c9.43-2.28,19-4.55,28.34-6.75l.14,0c4-.93,7.86-1.91,10.43-2.57l1,3.87c-2.59.67-6.51,1.66-10.52,2.6l-.13,0C434,1095,424.5,1097.29,415.08,1099.56Zm77.51-20.93-1.32-3.78c16-5.61,28-11.17,35.81-16.51l2.27,3.3C521.28,1067.18,508.92,1072.89,492.59,1078.63Zm58.23-51.35L547,1026a222.38,222.38,0,0,0,9.17-38.51l4,.59A226.45,226.45,0,0,1,550.82,1027.28Zm12.39-79.37h-4V947a264.84,264.84,0,0,0-2.8-38.66l4-.58A269.9,269.9,0,0,1,563.21,947Zm-15.82-78.16a202.38,202.38,0,0,0-15.86-36.22l3.49-2a206.91,206.91,0,0,1,16.17,36.94ZM508.6,801.4A182.32,182.32,0,0,0,479.25,775l2.34-3.24a186.16,186.16,0,0,1,30,27ZM445,755.25a245.16,245.16,0,0,0-37.27-13.36l1.05-3.86a247.43,247.43,0,0,1,37.88,13.59Z"/><path class="cls-2" d="M172.71,1162.53c-1.67-2.83-6.86-8.6-14-16.59-3.56-4-7.59-8.44-12-13.42l3-2.64c4.34,5,8.36,9.44,11.91,13.39,7.61,8.46,12.63,14.06,14.5,17.23Zm-51.58-61c-8.63-11.2-16.39-22.28-23.08-32.93l3.39-2.13c6.62,10.54,14.31,21.52,22.86,32.62Zm-42.26-68.35a199.66,199.66,0,0,1-13-38.21l3.9-.87a196.32,196.32,0,0,0,12.76,37.44Zm-17.41-78.3c0-2-.07-4-.07-5.89A225.57,225.57,0,0,1,64,914.72l3.95.61A221.41,221.41,0,0,0,65.39,949c0,1.9,0,3.85.07,5.8Zm16.45-77.77-3.74-1.42a177.69,177.69,0,0,1,18.5-35.84L96,842.12A173.21,173.21,0,0,0,77.91,877.14Zm43.67-65-2.73-2.92A196.17,196.17,0,0,1,151,784.87l2.08,3.41A193.21,193.21,0,0,0,121.58,812.11Zm67.05-41.24-1.44-3.73a264.59,264.59,0,0,1,38.57-11.53l.86,3.9A262.34,262.34,0,0,0,188.63,770.87Zm77.25-17.24-.33-4a349,349,0,0,1,39.73-1h.46l-.12,4-.47,0A343.34,343.34,0,0,0,265.88,753.63Zm79.94-5.51-1.09-3.85c13.37-3.79,24.8-10,34-18.45l2.71,2.94C371.78,737.65,359.79,744.16,345.82,748.12Zm57.68-53.34-3.76-1.36c4.06-11.22,6.43-24.2,7-38.57l4,.17C410.15,669.8,407.7,683.17,403.5,694.78Zm10.24-79.29-3.94-.72a169.65,169.65,0,0,1,11.95-38.55l3.65,1.63A165.62,165.62,0,0,0,413.74,615.49Zm31.58-71.74-3.23-2.35a258.75,258.75,0,0,1,26.31-30.48l2.83,2.83A254.26,254.26,0,0,0,445.32,543.75Zm55.51-56.59-2.54-3.1c5-4.14,10.36-8.34,16.22-12.83a133,133,0,0,0,14.29-12.65l2.86,2.8a137.92,137.92,0,0,1-14.72,13C511.12,478.87,505.84,483,500.83,487.16ZM554.54,428l-3.68-1.58a74.16,74.16,0,0,0,6.4-29.35,61.63,61.63,0,0,0-.61-8.63l4-.56a65,65,0,0,1,.65,9.19A78.24,78.24,0,0,1,554.54,428Zm-15.26-73.33c-8.43-8.32-19.63-15.05-33.27-20l1.36-3.76c14.19,5.15,25.87,12.19,34.72,20.91Zm-71.62-31c-10.9-3.1-23.49-6.76-38.47-11.2l1.13-3.83c15,4.43,27.55,8.09,38.44,11.19ZM390.81,301c-12.56-3.78-25.45-7.67-38.34-11.58l1.16-3.82c12.89,3.9,25.77,7.79,38.33,11.57Zm-76.66-23.2-38.32-11.61,1.16-3.82c12.19,3.68,25.09,7.59,38.32,11.6Zm-76.67-23.11c-5.5-1.63-10.67-3.15-15.44-4.54a74.73,74.73,0,0,1-22.1-10.48l2.3-3.28a70.6,70.6,0,0,0,20.92,9.92c4.78,1.39,10,2.92,15.46,4.55Zm-61.71-47.6a59.38,59.38,0,0,1-2.8-18,56.84,56.84,0,0,1,4.58-22.51l3.68,1.57A52.84,52.84,0,0,0,177,189.07a55.37,55.37,0,0,0,2.61,16.79Zm31.62-66.27-1.84-3.56c1.32-.68,2.7-1.34,4.09-1.95a277.75,277.75,0,0,0,31.52-15.92l2.06,3.43a280.68,280.68,0,0,1-32,16.15C209.94,139.52,208.64,140.14,207.39,140.79Zm67.26-43.44-3-2.65A98,98,0,0,0,291.16,61l3.78,1.3A101.83,101.83,0,0,1,274.65,97.35ZM302,22.54l-4-.17c.12-2.63.17-5.34.17-8.06V0h4V14.31C302.16,17.09,302.1,19.86,302,22.54Z"/></svg>