<svg xmlns="http://www.w3.org/2000/svg" viewBox="0 0 615.87 1526.88"><defs><style>.cls-1{fill:#e3202b;}.cls-2{fill:#fff;}</style></defs><title>ruas_desktop</title><g id="desktop"><path class="cls-1" d="M42.91,1526.88c-2.22-28.2,7.78-53.33,28.91-72.65,60.15-55,193.35-49.62,255.38-39.09,108.55,18.41,173.06-26.54,201.84-55,24.18-23.89,33.33-45.56,35.38-55.76l-103.81-93.26-.6-10.49c-1.38-24.21-33.76-30.72-107.31-39.81-67.05-8.28-150.49-18.6-218.77-67-37.78-26.79-67.28-63-87.66-107.64C24,937.33,11.72,876.45,9.91,805.21a27,27,0,0,1,1.82-17.12c7.37-16.32,25.54-19.76,52.42-23.16,19.65-2.48,46.55-4.75,77.7-7.38,64.05-5.4,151.77-12.79,230.2-27.11,88.45-16.14,148-37.82,177.11-64.45,16-14.66-23-74.69-46.23-110.56-20.34-31.35-38.55-59.41-45.88-84.16L1.63,375.65l-1-19.6c-4.15-80,12.72-139.2,51.57-181.07C86,138.5,130.59,121.52,169.92,106.55,231.77,83,264.13,68.17,265.13,14.08V0h51V14.74c-.71,41.24-15,72.88-43.79,96.73-23.77,19.7-54.52,31.41-84.27,42.74C117.47,181.09,50.61,206.57,51,333.9l453.63,95.25v20.7c0,14.51,23.75,51.1,41.09,77.82,18.49,28.49,37.61,58,48.61,85.62,6.76,17,9.85,31.81,9.43,45.26-.55,17.91-7.52,33.48-20.14,45.05C502,778.37,287.83,796.42,146.14,808.37c-31.32,2.64-65.8,5.55-84.8,8.39,11.57,258.1,169.89,277.69,297.62,293.48,37.79,4.67,70.42,8.7,96.46,18.62,30.81,11.73,49,31.11,54.13,57.7L591,1259.75a38,38,0,0,1,21.62,22.1c11.28,29-8.81,68.93-31.37,96.61-17.88,21.92-49.74,52.27-100,72.34-49.23,19.65-103.92,24.56-162.56,14.62-76.08-12.91-176.35-6.54-212.43,26.45-9.63,8.8-13.48,18.37-12.49,31Z"/><path class="cls-2" d="M65.84,1525.07c-.15-2-.23-4-.23-5.87a62.49,62.49,0,0,1,5.92-27l4.51,2.14a57.71,57.71,0,0,0-5.43,24.91c0,1.79.07,3.63.21,5.48Zm44.43-63.78-2.37-4.4c13-7,29.06-12.72,47.62-16.94l1.11,4.88C138.51,1449,122.91,1454.49,110.27,1461.29Zm244.48-14.66c-10.56-.74-21.4-2.05-32.23-3.89-5.61-1-11.49-1.82-17.48-2.57l.63-5c6.05.76,12,1.64,17.69,2.6,10.67,1.81,21.35,3.1,31.74,3.83Zm50.34-.73-.51-5A252.12,252.12,0,0,0,453,1431.1l1.48,4.78A258.25,258.25,0,0,1,405.09,1445.9Zm-199.36-8.25-.39-5a484.8,484.8,0,0,1,50.24-1.22l-.13,5c-4.44-.11-8.92-.17-13.32-.17C229.69,1436.27,217.44,1436.74,205.73,1437.65ZM500.82,1416l-2.45-4.36a222,222,0,0,0,40.1-28.75l3.35,3.71A226.76,226.76,0,0,1,500.82,1416Zm74-67.65-4.19-2.73c10.74-16.5,17-32.86,17.22-44.88l5,.09C592.64,1313.77,586.07,1331.09,574.83,1348.36Zm-17.42-81.16-37.19-33.42,3.34-3.72,37.19,33.42Zm-74.5-68.85c-1.23-16.61-9-28.46-24.52-37.32l2.48-4.34c16.84,9.62,25.68,23.13,27,41.29Zm-71.08-52.25c-15.23-2.89-32.06-5.06-49.41-7.22l.62-5c17.43,2.16,34.35,4.35,49.73,7.26Zm-99.15-13.71c-18.52-2.72-34.69-5.66-49.44-9l1.1-4.87c14.62,3.28,30.67,6.19,49.07,8.89Zm-97.81-22.77A297.43,297.43,0,0,1,169,1088.88l2.45-4.36a292.54,292.54,0,0,0,45.08,20.39Zm-86.93-49.79A233.11,233.11,0,0,1,94,1022.74l4-3a227.68,227.68,0,0,0,33.17,36.3Zm-59.41-80.3A322.91,322.91,0,0,1,51,932.61l4.81-1.4a318.5,318.5,0,0,0,17.29,46.2ZM40,883.75c-2.58-15.7-4.5-32.43-5.71-49.72l5-.35c1.21,17.14,3.11,33.71,5.67,49.26Zm8.3-88-1-4.89c9.79-2.07,25.22-4,50-6.36l.47,5C73.16,791.81,57.9,793.75,48.3,795.77Zm99.38-10.61-.42-5c16.45-1.39,32.64-2.76,49.9-4.33l.45,5C180.34,782.4,164.14,783.77,147.68,785.16ZM247.5,776l-.53-5c17.69-1.87,34-3.76,49.7-5.77l.64,5C281.52,772.18,265.22,774.08,247.5,776ZM347,763.11l-.78-4.94c17.31-2.74,33.86-5.69,49.19-8.78l1,4.9C381,757.39,364.34,760.36,347,763.11ZM445.3,743,444,738.19c17.33-4.58,33.34-9.55,47.58-14.77l1.72,4.69C478.94,733.39,462.78,738.41,445.3,743Zm93.9-35.78-2.48-4.34a156.74,156.74,0,0,0,28-20,33.21,33.21,0,0,0,8.1-11.2l4.58,2a38,38,0,0,1-9.3,12.89A162,162,0,0,1,539.2,707.25Zm29.66-82.2c-4.81-12.43-12-26.45-22.59-44.13l4.29-2.57c10.75,17.92,18,32.19,23,44.89ZM519.5,538.72c-9.67-14.92-19-29.41-26.37-42.74l4.36-2.43c7.34,13.19,16.59,27.61,26.21,42.45Zm-42.67-86.8L427.9,441.65l1-4.9L477.86,447ZM379,431.37,330,421.1l1-4.89L380,426.48ZM281.1,410.83l-48.93-10.28,1-4.89,48.94,10.27Zm-97.87-20.55L134.3,380l1-4.89,48.93,10.27ZM85.37,369.73,36.43,359.46l1-4.9L86.4,364.84ZM28.39,316l-5-.24A268.51,268.51,0,0,1,30.17,266L35,267.13A264.52,264.52,0,0,0,28.39,316Zm24.23-94.5L48.27,219A151,151,0,0,1,80,179.89l3.31,3.74A146.26,146.26,0,0,0,52.62,221.48Zm71.62-65.16L122,151.87c15.22-7.83,31.16-14.23,46.12-20l1.8,4.66C155,142.25,139.24,148.6,124.24,156.32ZM216.5,118l-2-4.56c18.23-8.12,31.57-16.15,42-25.25L259.76,92C248.94,101.41,235.19,109.68,216.5,118Zm71.16-68-4.76-1.53a118.52,118.52,0,0,0,5.23-34.21V0h5V14.31A123.62,123.62,0,0,1,287.66,50Z"/></g></svg>