<svg xmlns="http://www.w3.org/2000/svg" viewBox="0 0 86.11 60.4"><g id="Camada_2" data-name="Camada 2"><g id="mobile"><rect x="73.39" y="22.38" width="10.32" height="22.75" style="fill:#e3202b"/><path d="M83.72,20H56.64a11.4,11.4,0,0,0-8,3.29L37.53,34.17a7.93,7.93,0,0,0,0,11.19h0a7.89,7.89,0,0,0,11.18,0L60.55,33.55a2.39,2.39,0,0,0-3.38-3.38L45.34,42a3.13,3.13,0,0,1-4.41,0v0a3.11,3.11,0,0,1,0-4.4L52,26.68a6.62,6.62,0,0,1,4.67-1.91H71V43.18L58.33,54.68a3.86,3.86,0,0,1-2.51.93H7.58a2.8,2.8,0,0,1,0-5.59H31.93a2.4,2.4,0,0,0,0-4.79H7.58a7.58,7.58,0,0,0,0,15.16H55.82a8.68,8.68,0,0,0,5.67-2.12l0,0L73.34,47.52H83.72a2.39,2.39,0,0,0,2.39-2.39V22.38A2.39,2.39,0,0,0,83.72,20Zm-2.4,22.75H75.79v-18h5.53Z" style="fill:#231f20"/><path d="M32.57,24.5a13.6,13.6,0,0,1-27.19-.17C5.44,13.46,19.11,2.39,19.11,2.39S32.64,13.53,32.57,24.5Z" style="fill:#e3202b"/><path d="M19,40.41h-.1A16,16,0,0,1,3,24.32C3.05,12.45,17,1,17.6.53a2.4,2.4,0,0,1,3,0c.59.48,14.41,12,14.34,24A16,16,0,0,1,19,40.41ZM19.1,5.58C15.72,8.69,7.81,16.77,7.77,24.35A11.22,11.22,0,0,0,18.91,35.62H19a11.23,11.23,0,0,0,11.2-11.14C30.22,17.41,23.2,9.39,19.1,5.58Z" style="fill:#231f20"/></g></g></svg>