<svg xmlns="http://www.w3.org/2000/svg" viewBox="0 0 71.25 74.04"><g id="Camada_2" data-name="Camada 2"><g id="mobile"><path d="M43.09,33c-4.45,0-6.45,2.49-7.24,4a.27.27,0,0,1-.47,0c-.78-1.47-2.77-4-7.22-4-5.08,0-9.54,3.46-9.54,9.77a13.2,13.2,0,0,0,2,7.18c2.95,5,12.67,11.42,14.66,12.69a.69.69,0,0,0,.73,0c2-1.26,11.72-7.68,14.69-12.69a13.2,13.2,0,0,0,2-7.18C52.64,36.42,48.17,33,43.09,33Z" style="fill:#e3202b"/><path d="M35.62,64.84h0a2.83,2.83,0,0,1-1.52-.44c-1.21-.77-12-7.73-15.36-13.4a15.47,15.47,0,0,1-2.26-8.27,11.34,11.34,0,0,1,11.68-11.9,10.15,10.15,0,0,1,7.46,2.87,10.16,10.16,0,0,1,7.47-2.87,11.36,11.36,0,0,1,11.69,11.9A15.34,15.34,0,0,1,52.51,51c-3.38,5.71-14.17,12.64-15.39,13.41A2.84,2.84,0,0,1,35.62,64.84ZM28.16,35.1c-3.69,0-7.4,2.36-7.4,7.63a11,11,0,0,0,1.67,6.09c2.18,3.67,9.17,8.83,13.19,11.47,4-2.63,11-7.77,13.21-11.47a11.08,11.08,0,0,0,1.67-6.09c0-5.27-3.72-7.63-7.41-7.63-3.17,0-4.66,1.54-5.35,2.83a2.41,2.41,0,0,1-2.12,1.26,2.38,2.38,0,0,1-2.12-1.27C32.8,36.64,31.32,35.1,28.16,35.1Z" style="fill:#231f20"/><path d="M45.74,74H14.54A7.5,7.5,0,0,1,7,66.57v-34a7.36,7.36,0,0,1,3.4-6.21L29.72,14a10.93,10.93,0,0,1,11.81,0L60.82,26.37a7.37,7.37,0,0,1,3.39,6.21V69.65a2.14,2.14,0,0,1-4.28,0V32.58A3.11,3.11,0,0,0,58.5,30L39.21,17.55a6.65,6.65,0,0,0-7.17,0L12.76,30a3.09,3.09,0,0,0-1.43,2.62v34a3.2,3.2,0,0,0,3.21,3.19h31.2a2.14,2.14,0,1,1,0,4.28Z" style="fill:#231f20"/><path d="M69.11,25a2.13,2.13,0,0,1-1.2-.36L39.33,5.41a6.61,6.61,0,0,0-7.4,0L3.34,24.65a2.14,2.14,0,0,1-3-.58,2.12,2.12,0,0,1,.57-3L29.53,1.87a10.88,10.88,0,0,1,12.19,0L70.31,21.11a2.13,2.13,0,0,1,.58,3A2.15,2.15,0,0,1,69.11,25Z" style="fill:#231f20"/></g></g></svg>