<svg xmlns="http://www.w3.org/2000/svg" viewBox="0 0 85.31 91.24"><g id="Camada_2" data-name="Camada 2"><g id="mobile"><path d="M21.57,58.76a18.06,18.06,0,0,1-18-18V32.47a2.16,2.16,0,0,1,4.32,0v8.25a13.73,13.73,0,1,0,27.45,0,2.16,2.16,0,0,1,4.31,0A18.06,18.06,0,0,1,21.57,58.76Z" style="fill:#231f20"/><path d="M37.45,32.47H5.69v-9c0-5.87,31.76-5.87,31.76,0Z" style="fill:#e3202b"/><path d="M37.45,34.63H5.69a2.16,2.16,0,0,1-2.16-2.16v-9c0-5.92,12.62-6.56,18-6.56s18,.64,18,6.56v9A2.16,2.16,0,0,1,37.45,34.63ZM7.85,30.31H35.3V23.65c-.77-.89-5.37-2.41-13.73-2.41s-13,1.52-13.72,2.41v6.66Z" style="fill:#231f20"/><path d="M30.85,64.28H12.3A10.14,10.14,0,0,0,2.16,74.42V89.08H41V74.42A10.14,10.14,0,0,0,30.85,64.28Zm2.59,16.21H22.94v-7.3h10.5v7.3Z" style="fill:#e3202b"/><path d="M41,91.24H2.16A2.16,2.16,0,0,1,0,89.08V74.42a12.32,12.32,0,0,1,12.3-12.3H30.85a12.31,12.31,0,0,1,12.29,12.3V89.08A2.15,2.15,0,0,1,41,91.24ZM4.31,86.93H38.83V74.42a8,8,0,0,0-8-8H12.3a8,8,0,0,0-8,8V86.93Zm29.13-4.28H22.94a2.16,2.16,0,0,1-2.16-2.16v-7.3A2.16,2.16,0,0,1,22.94,71h10.5a2.15,2.15,0,0,1,2.15,2.15v7.3A2.16,2.16,0,0,1,33.44,82.65ZM25.1,78.33h6.18v-3H25.1Z" style="fill:#231f20"/><path d="M64.64,43.2A17.3,17.3,0,0,1,47.36,25.92V18a2.07,2.07,0,0,1,4.13,0v7.91a13.15,13.15,0,0,0,26.3,0,2.07,2.07,0,1,1,4.13,0A17.3,17.3,0,0,1,64.64,43.2Z" style="fill:#231f20"/><polygon points="79.86 18.01 49.43 18.01 49.43 9.4 64.64 2.07 79.86 9.4 79.86 18.01" style="fill:#e3202b"/><path d="M79.86,20.08H49.43A2.07,2.07,0,0,1,47.36,18V9.4a2.07,2.07,0,0,1,1.17-1.86L63.74.21a2,2,0,0,1,1.8,0L80.75,7.54A2.07,2.07,0,0,1,81.92,9.4V18A2.07,2.07,0,0,1,79.86,20.08ZM51.49,16h26.3V10.7L64.64,4.36,51.49,10.7Z" style="fill:#231f20"/><path d="M73.53,48.49H71.41l-6.77,6.76-6.77-6.76H55.75A9.71,9.71,0,0,0,46,58.2v14h37.2v-14A9.71,9.71,0,0,0,73.53,48.49Z" style="fill:#e3202b"/><path d="M83.24,74.32H46A2.07,2.07,0,0,1,44,72.25v-14A11.79,11.79,0,0,1,55.75,46.42h2.12a2.12,2.12,0,0,1,1.47.6l5.3,5.31L70,47a2.07,2.07,0,0,1,1.46-.6h2.12A11.79,11.79,0,0,1,85.31,58.2v14A2.07,2.07,0,0,1,83.24,74.32ZM48.11,70.19H81.17v-12a7.65,7.65,0,0,0-7.64-7.65H72.26L66.1,56.71a2.06,2.06,0,0,1-2.92,0L57,50.55H55.75a7.65,7.65,0,0,0-7.64,7.65v12Z" style="fill:#231f20"/></g></g></svg>