<svg xmlns="http://www.w3.org/2000/svg" viewBox="0 0 77.12 77.12"><g id="Camada_2" data-name="Camada 2"><g id="mobile"><path d="M38.57,77.12h-.31A38.56,38.56,0,0,1,38.55,0h0A38.56,38.56,0,0,1,72.85,56.21L76,68a3.36,3.36,0,0,1-4.11,4.11l-8.86-2.38a2.25,2.25,0,0,1,1.16-4.34l7,1.86L68.28,56.52a2.23,2.23,0,0,1,.2-1.66A34.07,34.07,0,0,0,38.56,4.5h0a34.06,34.06,0,0,0-.27,68.12A33.72,33.72,0,0,0,53.6,69.13a2.25,2.25,0,1,1,2,4A38.11,38.11,0,0,1,38.57,77.12Z" style="fill:#231f20"/><circle cx="18.51" cy="38.56" r="5.73" style="fill:#e3202b"/><path d="M18.51,46.29a7.73,7.73,0,1,1,7.73-7.73A7.74,7.74,0,0,1,18.51,46.29Zm0-11.46a3.73,3.73,0,1,0,3.73,3.73A3.74,3.74,0,0,0,18.51,34.83Z" style="fill:#231f20"/><circle cx="38.44" cy="38.56" r="5.73" style="fill:#e3202b"/><path d="M38.44,46.29a7.73,7.73,0,1,1,7.74-7.73A7.74,7.74,0,0,1,38.44,46.29Zm0-11.46a3.73,3.73,0,1,0,3.74,3.73A3.74,3.74,0,0,0,38.44,34.83Z" style="fill:#231f20"/><circle cx="58.38" cy="38.56" r="5.73" style="fill:#e3202b"/><path d="M58.38,46.29a7.73,7.73,0,1,1,7.74-7.73A7.74,7.74,0,0,1,58.38,46.29Zm0-11.46a3.73,3.73,0,1,0,3.74,3.73A3.73,3.73,0,0,0,58.38,34.83Z" style="fill:#231f20"/></g></g></svg>