<svg xmlns="http://www.w3.org/2000/svg" viewBox="0 0 79.78 95.28"><defs><style>.cls-1{fill:#e3202b;}.cls-2{fill:#231f20;}</style></defs><title>symbol-comerciante</title><g id="desktop"><polygon class="cls-1" points="77.03 37.89 39.89 19.23 2.75 37.89 2.75 21.48 39.89 2.75 77.03 21.48 77.03 37.89"/><path class="cls-2" d="M77,40.64a2.76,2.76,0,0,0,2.75-2.75V21.48A2.76,2.76,0,0,0,78.26,19L41.13.3a2.71,2.71,0,0,0-2.48,0L1.51,19A2.77,2.77,0,0,0,0,21.48V92.22A2.75,2.75,0,0,0,2.75,95H77a2.75,2.75,0,0,0,2.75-2.75V55.47a2.76,2.76,0,1,0-5.51,0v34H5.51V39.59L39.89,22.31l35.9,18A2.82,2.82,0,0,0,77,40.64Zm-2.76-7.22L41.12,16.77a2.78,2.78,0,0,0-1.23-.29,2.85,2.85,0,0,0-1.24.29L5.51,33.42V23.18L39.89,5.84,74.27,23.18Z"/><polygon class="cls-1" points="27.52 75.02 53.95 75.02 57.63 52.85 23.51 52.85 27.52 75.02"/><path d="M59.78,50.9a2.55,2.55,0,0,0-2-.92H25.55l-1.48-7.82a2.57,2.57,0,0,0-2.52-2.1H16a2.58,2.58,0,0,0,0,5.15h3.44l5.47,30.25a2.55,2.55,0,0,0,2.17,2.1,2.57,2.57,0,0,0-.89,2,7.07,7.07,0,1,0,14.13,0A6.9,6.9,0,0,0,40,77.59h1.85A2.57,2.57,0,0,0,41,79.51,7.07,7.07,0,1,0,54.81,77.4a2.56,2.56,0,0,0,1.56-1.94l4-22.46A2.57,2.57,0,0,0,59.78,50.9ZM35.15,79.51a1.93,1.93,0,0,1-3.85,0,2.56,2.56,0,0,0-.86-1.92h2.78A1.93,1.93,0,0,1,35.15,79.51Zm14.84,0a1.93,1.93,0,0,1-3.85,0,2.56,2.56,0,0,0-.86-1.92h2.79A1.92,1.92,0,0,1,50,79.51ZM29.68,72.45,26.62,55.12H54.85L51.79,72.45Z"/></g></svg>