<svg xmlns="http://www.w3.org/2000/svg" viewBox="0 0 94.89 85.04"><defs><style>.cls-1{fill:#231f20;}.cls-2{fill:#e3202b;}</style></defs><title>symbol-alimentar</title><g id="desktop"><path class="cls-1" d="M51.14,85H9.56a2.81,2.81,0,0,1-2.79-2.56L0,3A2.81,2.81,0,0,1,2.8,0H57.9A2.78,2.78,0,0,1,60,.91,2.74,2.74,0,0,1,60.69,3l-1.47,17.3a2.8,2.8,0,1,1-5.58-.47L54.85,5.6h-49l6.29,73.84h39a2.8,2.8,0,1,1,0,5.6Z"/><path class="cls-1" d="M63.29,38.73a2.8,2.8,0,0,1-.46-5.57c3-.5,8.76-2.53,10.41-4.32a12.94,12.94,0,0,0,3.2-9.73,22.58,22.58,0,0,0-8.55,3.73,2.8,2.8,0,0,1-3.41-4.45,27.38,27.38,0,0,1,8.59-4.21c5.51-1.62,6.72-.49,7.29.06,2.12,2,1.74,6.88,1.65,7.84a18.24,18.24,0,0,1-4.65,10.55c-3.1,3.37-10.65,5.58-13.62,6.06A2.28,2.28,0,0,1,63.29,38.73Z"/><path class="cls-2" d="M37.71,36.82a13.78,13.78,0,0,1,9.83-3.94c3.51,0,6.87,1.12,9.84,2.11a37.68,37.68,0,0,0,4.5,1.29A37,37,0,0,0,66.37,35c3-1,6.34-2.11,9.85-2.11A13.76,13.76,0,0,1,86,36.82C95,45.2,91.87,54.53,90,60.1l-.1.29c-1.69,5.13-8.06,21.86-18.79,21.86-5.71,0-7.64-.94-9-1.62l-.21-.1-.21.1c-1.41.68-3.34,1.62-9.05,1.62-10.73,0-17.1-16.73-18.79-21.86l-.1-.29C31.89,54.53,28.8,45.2,37.71,36.82Z"/><path class="cls-1" d="M71.14,85.05c-5.14,0-7.66-.75-9.26-1.43-1.61.69-4.14,1.43-9.26,1.43-12.27,0-19.09-16.63-21.45-23.78l-.1-.29c-1.92-5.8-5.5-16.59,4.73-26.2a16.63,16.63,0,0,1,11.74-4.7,33.64,33.64,0,0,1,10.73,2.25c1.31.43,2.57.85,3.61,1.09,1-.24,2.29-.66,3.61-1.09a33.58,33.58,0,0,1,10.73-2.25A16.64,16.64,0,0,1,88,34.78c10.22,9.61,6.65,20.4,4.72,26.2l-.09.29C90.23,68.42,83.4,85.05,71.14,85.05Zm-9.26-7.32a2.8,2.8,0,0,1,1.2.27l.21.1c1.25.6,2.78,1.34,7.85,1.34,9.08,0,15-16.6,16.13-19.93l.09-.28c1.85-5.58,4.38-13.21-3.24-20.37a10.92,10.92,0,0,0-7.9-3.18c-3.06,0-6.19,1-9,2A38.74,38.74,0,0,1,62.38,39a2.8,2.8,0,0,1-1,0,38.74,38.74,0,0,1-4.88-1.39c-2.77-.92-5.91-2-9-2a11,11,0,0,0-7.91,3.18C32,46,34.55,53.65,36.39,59.22l.1.3c1.1,3.32,7,19.92,16.13,19.92,5.07,0,6.6-.74,7.82-1.33l.24-.11A2.8,2.8,0,0,1,61.88,77.73Z"/><path class="cls-1" d="M42.68,22.91H4.75a2.81,2.81,0,0,1,0-5.61H42.68a2.81,2.81,0,0,1,0,5.61Z"/></g></svg>