<svg xmlns="http://www.w3.org/2000/svg" viewBox="0 0 95.28 95.28"><defs><style>.cls-1{fill:#e3202b;}.cls-2{fill:#231f20;}</style></defs><title>symbol-vacinacao</title><g id="desktop"><polygon class="cls-1" points="36.9 85.39 15.73 79.55 9.89 58.39 44.65 23.64 71.65 50.64 36.9 85.39"/><path class="cls-2" d="M13.5,81.78a3.14,3.14,0,0,1-.81-1.39L6.85,59.23a3.14,3.14,0,0,1,.81-3.08L42.41,21.4a3.17,3.17,0,0,1,4.47,0l27,27a3.15,3.15,0,0,1,0,4.47L39.13,87.63a3.17,3.17,0,0,1-3.07.81L14.89,82.59A3.1,3.1,0,0,1,13.5,81.78Zm-.07-22.46L18.3,77,36,81.86,67.18,50.64,44.64,28.1Z"/><path class="cls-2" d="M.93,94.36a3.15,3.15,0,0,1,0-4.47L13.5,77.31A3.16,3.16,0,0,1,18,81.78L5.39,94.36A3.16,3.16,0,0,1,.93,94.36Z"/><path class="cls-2" d="M75,58.5,36.78,20.24a3.16,3.16,0,0,1,4.47-4.47L79.51,54A3.16,3.16,0,0,1,75,58.5Z"/><path class="cls-2" d="M89.89,34.52,60.77,5.39A3.16,3.16,0,1,1,65.24.93L94.36,30.05a3.16,3.16,0,1,1-4.47,4.47Z"/><path class="cls-2" d="M47.57,31a3.16,3.16,0,0,1,0-4.46L67,7.15a3.17,3.17,0,0,1,4.47,0L88.13,23.82a3.15,3.15,0,0,1,0,4.47l-8.79,8.8a3.16,3.16,0,1,1-4.47-4.47l6.56-6.56L69.23,13.85,52,31A3.15,3.15,0,0,1,47.57,31Z"/><path class="cls-2" d="M42,45.51l-9.62-9.62a3.16,3.16,0,0,1,4.47-4.47L46.48,41A3.16,3.16,0,0,1,42,45.51Z"/><path class="cls-2" d="M27.16,60.36l-9.62-9.62A3.16,3.16,0,1,1,22,46.27l9.62,9.62a3.16,3.16,0,0,1-4.47,4.47Z"/></g></svg>